{
.appVersion = "3151";
.formatVersion = 3;
axes = (
{
name = Weight;
tag = wght;
}
);
classes = (
{
code = "zero one two three four five six seven eight nine";
name = Numbers;
},
{
code = "zero.dnom one.dnom two.dnom three.dnom four.dnom five.dnom six.dnom seven.dnom eight.dnom nine.dnom";
name = Denominators;
},
{
code = "zero.numr one.numr two.numr three.numr four.numr five.numr six.numr seven.numr eight.numr nine.numr";
name = Numerators;
},
{
code = "zero.nnum one.nnum two.nnum three.nnum four.nnum five.nnum six.nnum seven.nnum eight.nnum nine.nnum
";
name = Note_numbers;
},
{
automatic = 1;
code = "A B C D E F G H I J K L M N O P Q R S T U V W X Y Z I.ss01 Iogonek.ss01 Iacute.ss01 Igrave.ss01 Icircumflex.ss01 Itilde.ss01 Imacron.ss01 Idieresis.ss01 Ibreve.ss01 Idotaccent.ss01 AE Dcroat Eng Eth Hbar IJ Lslash OE Oslash Tbar Thorn Germandbls Ccedilla Rcedilla Scedilla Tcedilla Gcommabelow Kcommabelow Lcommabelow Ncommabelow Scommabelow Tcommabelow Aogonek Eogonek Iogonek Uogonek Aacute AEacute Cacute Eacute Iacute Lacute Nacute Oacute Oslashacute Racute Sacute Uacute Wacute Yacute Zacute Ohungarumlaut Uhungarumlaut Agrave Egrave Igrave Ograve Ugrave Wgrave Ygrave Acircumflex Ccircumflex Ecircumflex Gcircumflex Hcircumflex Icircumflex Jcircumflex Ocircumflex Scircumflex Ucircumflex Wcircumflex Ycircumflex Atilde Itilde Ntilde Otilde Utilde Ccaron Dcaron Ecaron Lcaron Ncaron Rcaron Scaron Tcaron Zcaron Amacron Emacron Imacron Omacron Umacron Adieresis Edieresis Idieresis Odieresis Udieresis Wdieresis Ydieresis Abreve Ebreve Ibreve Gbreve Obreve Ubreve Edotaccent Idotaccent Cdotaccent Gdotaccent Zdotaccent Hdotbelow Ldotbelow Aring Aringacute Uring";
name = Uppercase;
},
{
automatic = 1;

glyphs = (
{
glyphname = .notdef;
lastChange = "2022-04-14 18:46:40 +0000";
layers = (
{
background = {
shapes = (
{
closed = 1;
nodes = (
(214,0,l),
(214,700,l),
(32,700,l),
(32,0,l)
);
},
{
closed = 1;
nodes = (
(51,680,l),
(194,680,l),
(194,20,l),
(51,20,l)
);
}
);
};
layerId = "FCCC260D-0C10-491F-B419-2EABB30545AF";
shapes = (
{
closed = 1;
nodes = (
(266,0,l),
(266,700,l),
(84,700,l),
(84,0,l)
);
},
{
closed = 1;
nodes = (
(103,680,l),
(246,680,l),
(246,20,l),
(103,20,l)
);
}
);
width = 350;
},
{
background = {
shapes = (
{
closed = 1;
nodes = (
(214,0,l),
(214,700,l),
(32,700,l),
(32,0,l)
);
},
{
closed = 1;
nodes = (
(51,680,l),
(194,680,l),
(194,20,l),
(51,20,l)
);
}
);
};
layerId = "A7032D4A-7BCC-4736-93C1-F342117E585F";
shapes = (
{
closed = 1;
nodes = (
(252,0,l),
(252,700,l),
(70,700,l),
(70,0,l)
);
},
{
closed = 1;
nodes = (
(89,680,l),
(232,680,l),
(232,20,l),
(89,20,l)
);
}
);
width = 322;
}
);
},
{
glyphname = period;
kernLeft = period;
kernRight = period;
lastChange = "2022-04-14 18:46:40 +0000";
layers = (
{
background = {
shapes = (
{
closed = 1;
nodes = (
(116,0,l),
(116,80,l),
(76,80,l),
(76,0,l)
);
}
);
};
layerId = "FCCC260D-0C10-491F-B419-2EABB30545AF";
shapes = (
{
closed = 1;
nodes = (
(105,0,l),
(105,80,l),
(65,80,l),
(65,0,l)
);
}
);
width = 170;
},
{
background = {
shapes = (
{
closed = 1;
nodes = (
(207,0,l),
(207,159,l),
(48,159,l),
(48,0,l)
);
}
);
};
layerId = "A7032D4A-7BCC-4736-93C1-F342117E585F";
shapes = (
{
closed = 1;
nodes = (
(220,0,l),
(220,160,l),
(62,160,l),
(62,0,l)
);
}
);
width = 282;
}
);
unicode = 46;
},
{
color = 10;
glyphname = colon;
kernLeft = colon;
kernRight = colon;
lastChange = "2022-04-14 18:46:40 +0000";
layers = (
{
background = {
shapes = (
{
closed = 1;
nodes = (
(116,344,l),
(116,424,l),
(76,424,l),
(76,344,l)
);
},
{
closed = 1;
nodes = (
(116,0,l),
(116,80,l),
(76,80,l),
(76,0,l)
);
}
);
};
layerId = "FCCC260D-0C10-491F-B419-2EABB30545AF";
shapes = (
{
alignment = -1;
ref = period;
},
{
alignment = -1;
pos = (0,344);
ref = period;
}
);
width = 170;
},
{
background = {
shapes = (
{
closed = 1;
nodes = (
(208,292,l),
(208,451,l),
(50,451,l),
(50,292,l)
);
},
{
closed = 1;
nodes = (
(208,0,l),
(208,159,l),
(50,159,l),
(50,0,l)
);
}
);
};
layerId = "A7032D4A-7BCC-4736-93C1-F342117E585F";
shapes = (
{
alignment = -1;
pos = (1,0);
ref = period;
},
{
alignment = -1;
pos = (1,290);
ref = period;
}
);
width = 284;
}
);
unicode = 58;
},
{
glyphname = comma;
kernLeft = period;
kernRight = period;
lastChange = "2022-04-14 18:46:40 +0000";
layers = (
{
background = {
shapes = (
{
closed = 1;
nodes = (
(79,-123,l),
(126,87,l),
(86,87,l),
(48,-123,l)
);
}
);
};
layerId = "FCCC260D-0C10-491F-B419-2EABB30545AF";
shapes = (
{
closed = 1;
nodes = (
(67,-123,l),
(114,80,l),
(70,80,l),
(36,-123,l)
);
}
);
width = 165;
},
{
background = {
shapes = (
{
closed = 1;
nodes = (
(154,-113,l),
(224,152,l),
(58,152,l),
(28,-113,l)
);
}
);
};
layerId = "A7032D4A-7BCC-4736-93C1-F342117E585F";
shapes = (
{
closed = 1;
nodes = (
(165,-113,l),
(235,160,l),
(69,160,l),
(39,-113,l)
);
}
);
width = 285;
}
);
unicode = 44;
},
{
color = 10;
glyphname = semicolon;
kernLeft = colon;
kernRight = colon;
lastChange = "2022-04-14 18:46:40 +0000";
layers = (
{
background = {
shapes = (
{
closed = 1;
nodes = (
(95,-123,l),
(143,87,l),
(101,87,l),
(64,-123,l)
);
},
{
closed = 1;
nodes = (
(138,344,l),
(138,424,l),
(99,424,l),
(99,344,l)
);
}
);
};
layerId = "FCCC260D-0C10-491F-B419-2EABB30545AF";
shapes = (
{
alignment = -1;
pos = (23,0);
ref = comma;
},
{
alignment = -1;
pos = (30,344);
ref = period;
}
);
width = 214;
},
{
background = {
shapes = (
{
closed = 1;
nodes = (
(160,-113,l),
(230,152,l),
(64,152,l),
(34,-113,l)
);
},
{
closed = 1;
nodes = (
(221,292,l),
(221,451,l),
(63,451,l),
(63,292,l)
);
}
);
};
layerId = "A7032D4A-7BCC-4736-93C1-F342117E585F";
shapes = (
{
alignment = -1;
pos = (6,0);
ref = comma;
},
{
alignment = -1;
pos = (18,290);
ref = period;
}
);
width = 303;
}
);
unicode = 59;
},
{
glyphname = question;
lastChange = "2022-04-14 18:46:40 +0000";
layers = (
{
background = {
shapes = (
{
closed = 1;
nodes = (
(200,190,l),
(200,228,ls),
(200,291,o),
(240,328,o),
(288,374,cs),
(360,443,o),
(381,473,o),
(381,551,cs,{
name = hr00;
}),
(381,658,o),
(315,709,o),
(203,709,cs),
(167,709,o),
(99,695,o),
(55,674,c),
(64,642,l),
(107,662,o),
(169,676,o),
(203,676,cs),
(293,676,o),
(346,637,o),
(346,551,cs),
(346,484,o),
(320,455,o),
(261,396,cs),
(214,349,o),
(165,307,o),
(165,231,c),
(165,217,o),
(166,204,o),
(166,190,c)
);
},
{
closed = 1;
nodes = (
(203,1,l),
(203,81,l),
(163,81,l),
(163,1,l)
);
}
);
};
layerId = "FCCC260D-0C10-491F-B419-2EABB30545AF";
shapes = (
{
closed = 1;
nodes = (
(160,191,l),
(160,228,ls),
(160,291,o),
(200,328,o),
(248,374,cs),
(315,438,o),
(342,479,o),
(342,553,cs,{
name = hr00;
}),
(342,658,o),
(275,709,o),
(168,709,cs),
(122,709,o),
(61,695,o),
(15,674,c),
(24,642,l),
(69,662,o),
(124,676,o),
(168,676,cs),
(253,676,o),
(306,637,o),
(306,553,cs),
(306,488,o),
(282,455,o),
(221,396,cs),
(173,350,o),
(125,307,o),
(125,231,cs),
(125,217,o),
(125,209,o),
(126,191,c)
);
},
{
closed = 1;
nodes = (
(163,1,l),
(163,81,l),
(123,81,l),
(123,1,l)
);
}
);
width = 372;
},
{
background = {
shapes = (
{
closed = 1;
nodes = (
(252,210,l),
(252,236,ls),
(252,265,o),
(270,295,o),
(324,338,cs),
(379,382,o),
(413,442,o),
(413,527,cs),
(413,656,o),
(334,712,o),
(213,712,cs),
(155,712,o),
(75,692,o),
(31,672,c),
(50,569,l),
(93,582,o),
(137,591,o),
(175,591,cs),
(232,591,o),
(258,566,o),
(258,520,cs),
(258,488,o),
(248,453,o),
(195,408,cs),
(136,358,o),
(112,322,o),
(112,280,cs),
(112,250,o),
(124,222,o),
(131,210,c)
);
},
{
closed = 1;
nodes = (
(271,0,l),
(271,149,l),
(113,149,l),
(113,0,l)
);
}
);
};
layerId = "A7032D4A-7BCC-4736-93C1-F342117E585F";
shapes = (
{
closed = 1;
nodes = (
(244,210,l),
(244,236,ls),
(244,265,o),
(262,295,o),
(316,338,cs),
(371,382,o),
(408,442,o),
(408,527,cs),
(408,644,o),
(334,712,o),
(205,712,cs),
(147,712,o),
(67,692,o),
(23,672,c),
(42,569,l),
(85,582,o),
(129,591,o),
(167,591,cs),
(224,591,o),
(250,566,o),
(250,520,cs),
(250,488,o),
(240,453,o),
(187,408,cs),
(128,358,o),
(104,322,o),
(104,280,cs),
(104,250,o),
(116,222,o),
(123,210,c)
);
},
{
closed = 1;
nodes = (
(263,0,l),
(263,150,l),
(105,150,l),
(105,0,l)
);
}
);
width = 437;
}
);
unicode = 63;
},
{
glyphname = exclam;
lastChange = "2022-04-14 18:46:40 +0000";
layers = (
{
background = {
shapes = (
{
closed = 1;
nodes = (
(129,214,l),
(129,700,l),
(94,700,l),
(94,214,l)
);
},
{
closed = 1;
nodes = (
(132,0,l),
(132,80,l),
(92,80,l),
(92,0,l)
);
}
);
};
layerId = "FCCC260D-0C10-491F-B419-2EABB30545AF";
shapes = (
{
closed = 1;
nodes = (
(118,214,l),
(118,700,l),
(83,700,l),
(83,214,l)
);
},
{
closed = 1;
nodes = (
(121,0,l),
(121,80,l),
(81,80,l),
(81,0,l)
);
}
);
width = 201;
},
{
background = {
shapes = (
{
closed = 1;
nodes = (
(208,237,l),
(218,680,l),
(54,680,l),
(64,237,l)
);
},
{
closed = 1;
nodes = (
(215,0,l),
(215,158,l),
(57,158,l),
(57,0,l)
);
}
);
};
layerId = "A7032D4A-7BCC-4736-93C1-F342117E585F";
shapes = (
{
closed = 1;
nodes = (
(221,240,l),
(231,680,l),
(67,680,l),
(77,240,l)
);
},
{
closed = 1;
nodes = (
(228,0,l),
(228,160,l),
(70,160,l),
(70,0,l)
);
}
);
width = 298;
}
);
unicode = 33;
},
{
glyphname = asterisk;
lastChange = "2022-04-14 18:46:40 +0000";
layers = (
{
background = {
shapes = (
{
closed = 1;
nodes = (
(253,390,l),
(215,519,l),
(339,519,l),
(339,553,l),
(217,553,l),
(255,683,l),
(224,693,l),
(187,564,l),
(86,645,l),
(67,618,l),
(166,538,l),
(66,458,l),
(84,431,l),
(185,510,l),
(222,380,l)
);
}
);
};
layerId = "FCCC260D-0C10-491F-B419-2EABB30545AF";
shapes = (
{
closed = 1;
nodes = (
(250,390,l),
(212,519,l),
(336,519,l),
(336,553,l),
(214,553,l),
(252,683,l),
(221,693,l),
(184,564,l),
(83,645,l),
(64,618,l),
(163,538,l),
(63,458,l),
(81,431,l),
(182,510,l),
(219,380,l)
);
}
);
width = 374;
},
{
background = {
shapes = (
{
closed = 1;
nodes = (
(297,383,l),
(261,493,l),
(366,489,l),
(366,583,l),
(261,579,l),
(297,689,l),
(208,718,l),
(179,606,l),
(95,677,l),
(41,601,l),
(129,535,l),
(41,469,l),
(96,394,l),
(180,466,l),
(209,355,l)
);
}
);
};
layerId = "A7032D4A-7BCC-4736-93C1-F342117E585F";
shapes = (
{
closed = 1;
nodes = (
(305,383,l),
(269,493,l),
(374,489,l),
(374,583,l),
(269,579,l),
(305,689,l),
(216,718,l),
(187,606,l),
(103,677,l),
(49,601,l),
(137,535,l),
(49,469,l),
(104,394,l),
(188,466,l),
(217,355,l)
);
}
);
width = 420;
}
);
unicode = 42;
},
{
glyphname = underscore;
lastChange = "2022-04-14 18:46:40 +0000";
layers = (
{
background = {
shapes = (
{
closed = 1;
nodes = (
(496,-138,l),
(496,-104,l),
(104,-104,l),
(104,-138,l)
);
}
);
};
layerId = "FCCC260D-0C10-491F-B419-2EABB30545AF";
shapes = (
{
closed = 1;
nodes = (
(414,-138,l),
(414,-104,l),
(22,-104,l),
(22,-138,l)
);
}
);
width = 436;
},
{
background = {
shapes = (
{
closed = 1;
nodes = (
(517,-172,l),
(517,-74,l),
(70,-74,l),
(70,-172,l)
);
}
);
};
layerId = "A7032D4A-7BCC-4736-93C1-F342117E585F";
shapes = (
{
closed = 1;
nodes = (
(490,-172,l),
(490,-74,l),
(43,-74,l),
(43,-172,l)
);
}
);
width = 533;
}
);
unicode = 95;
},
{
glyphname = ampersand;
lastChange = "2022-04-14 18:46:40 +0000";
layers = (
{
background = {
shapes = (
{
closed = 1;
nodes = (
(342,-9,o),
(425,37,o),
(464,123,c),
(583,-7,l),
(605,19,l),
(479,156,l),
(496,205,o),
(512,296,o),
(519,367,c),
(484,367,l),
(481,314,o),
(465,223,o),
(453,182,c),
(273,379,l),
(270,362,l),
(382,400,o),
(434,459,o),
(434,549,cs),
(434,624,o),
(383,694,o),
(293,694,cs),
(209,694,o),
(151,624,o),
(151,550,cs),
(151,485,o),
(171,438,o),
(207,398,c),
(210,413,l),
(114,385,o),
(50,309,o),
(50,208,cs),
(50,95,o),
(110,-9,o),
(261,-9,cs)
);
},
{
closed = 1;
nodes = (
(143,24,o),
(85,110,o),
(85,209,cs),
(85,293,o),
(140,358,o),
(223,383,c),
(438,148,l),
(406,70,o),
(332,24,o),
(263,24,cs)
);
},
{
closed = 1;
nodes = (
(203,454,o),
(187,481,o),
(187,550,cs),
(187,614,o),
(235,662,o),
(293,662,cs),
(360,662,o),
(399,609,o),
(399,550,cs),
(399,473,o),
(353,426,o),
(260,391,c)
);
}
);
};
guides = (
{
angle = 182.4642;
pos = (367,201);
},
{
angle = 182.4642;
pos = (413,201);
}
);
layerId = "FCCC260D-0C10-491F-B419-2EABB30545AF";
shapes = (
{
closed = 1;
nodes = (
(546,0,l),
(592,0,l),
(224,412,ls),
(187,453,o),
(168,490,o),
(168,546,cs),
(168,616,o),
(217,662,o),
(278,662,cs),
(346,662,o),
(382,609,o),
(382,550,cs),
(382,470,o),
(334,423,o),
(234,387,c),
(255,365,l),
(364,402,o),
(417,463,o),
(417,550,cs),
(417,624,o),
(369,694,o),
(278,694,cs),
(192,694,o),
(133,630,o),
(133,546,cs),
(133,485,o),
(153,441,o),
(193,396,cs)
);
},
{
closed = 1;
nodes = (
(331,-9,o),
(414,43,o),
(450,130,c),
(426,156,l),
(394,71,o),
(326,23,o),
(237,23,cs),
(135,23,o),
(67,91,o),
(67,194,cs),
(67,290,o),
(122,361,o),
(214,385,c),
(191,411,l),
(92,381,o),
(32,299,o),
(32,194,cs),
(32,71,o),
(112,-9,o),
(235,-9,cs)
);
},
{
closed = 1;
nodes = (
(458,142,l),
(484,209,o),
(496,283,o),
(501,367,c),
(466,367,l),
(464,291,o),
(449,214,o),
(433,171,c)
);
}
);
width = 591;
},
{
background = {
shapes = (
{
closed = 1;
nodes = (
(359,-12,o),
(439,17,o),
(489,71,c),
(606,-11,l),
(651,78,l),
(567,166,l),
(586,211,o),
(603,274,o),
(616,347,c),
(486,351,l),
(484,324,o),
(477,281,o),
(467,253,c),
(334,402,l),
(308,327,l),
(465,375,o),
(516,437,o),
(516,525,cs),
(516,635,o),
(425,692,o),
(313,692,cs),
(173,692,o),
(109,608,o),
(109,527,cs),
(109,455,o),
(129,409,o),
(186,342,c),
(200,407,l),
(76,380,o),
(28,310,o),
(28,196,cs),
(28,62,o),
(107,-12,o),
(278,-12,cs)
);
},
{
closed = 1;
nodes = (
(214,105,o),
(181,157,o),
(181,214,cs),
(181,250,o),
(204,295,o),
(229,308,c),
(376,152,l),
(358,126,o),
(318,105,o),
(285,105,cs)
);
},
{
closed = 1;
nodes = (
(281,447,o),
(259,486,o),
(259,524,cs),
(259,565,o),
(278,597,o),
(312,597,cs),
(350,597,o),
(365,567,o),
(365,525,cs),
(365,484,o),
(342,448,o),
(301,423,c)
);
}
);
};
guides = (
{
angle = 4.0555;
pos = (439,299);
},
{
angle = 356.4123;
pos = (315,230);
}
);
layerId = "A7032D4A-7BCC-4736-93C1-F342117E585F";
shapes = (
{
closed = 1;
nodes = (
(505,0,l),
(687,0,l),
(328,412,ls),
(295,449,o),
(270,483,o),
(270,525,cs),
(270,565,o),
(291,597,o),
(327,597,cs),
(361,597,o),
(376,568,o),
(376,531,cs),
(376,481,o),
(350,441,o),
(300,416,c),
(370,345,l),
(469,387,o),
(526,451,o),
(526,531,cs),
(526,636,o),
(438,692,o),
(327,692,cs),
(186,692,o),
(120,608,o),
(120,517,cs),
(120,449,o),
(149,409,o),
(225,322,cs)
);
},
{
closed = 1;
nodes = (
(365,-12,o),
(441,21,o),
(492,82,c),
(411,150,l),
(385,125,o),
(348,105,o),
(294,105,cs),
(234,105,o),
(192,146,o),
(192,205,cs),
(192,254,o),
(217,294,o),
(255,312,c),
(182,394,l),
(90,363,o),
(39,291,o),
(39,192,cs),
(39,68,o),
(129,-12,o),
(269,-12,cs)
);
},
{
closed = 1;
nodes = (
(541,121,l),
(580,171,o),
(612,241,o),
(627,349,c),
(501,349,l),
(498,294,o),
(490,252,o),
(458,199,c)
);
}
);
width = 689;
}
);
unicode = 38;
},
{
color = 10;
glyphname = ellipsis;
kernLeft = period;
kernRight = period;
lastChange = "2022-04-14 18:46:40 +0000";
layers = (
{
background = {
shapes = (
{
closed = 1;
nodes = (
(581,0,l),
(581,80,l),
(541,80,l),
(541,0,l)
);
},
{
closed = 1;
nodes = (
(116,0,l),
(116,80,l),
(76,80,l),
(76,0,l)
);
},
{
closed = 1;
nodes = (
(348,0,l),
(348,80,l),
(308,80,l),
(308,0,l)
);
}
);
};
layerId = "FCCC260D-0C10-491F-B419-2EABB30545AF";
shapes = (
{
alignment = -1;
ref = period;
},
{
alignment = -1;
pos = (180,0);
ref = period;
},
{
alignment = -1;
pos = (360,0);
ref = period;
}
);
width = 530;
},
{
background = {
shapes = (
{
closed = 1;
nodes = (
(726,0,l),
(726,159,l),
(569,159,l),
(569,0,l)
);
},
{
closed = 1;
nodes = (
(207,0,l),
(207,159,l),
(48,159,l),
(48,0,l)
);
},
{
closed = 1;
nodes = (
(466,0,l),
(466,159,l),
(308,159,l),
(308,0,l)
);
}
);
};
layerId = "A7032D4A-7BCC-4736-93C1-F342117E585F";
shapes = (
{
alignment = -1;
ref = period;
},
{
alignment = -1;
pos = (258,0);
ref = period;
},
{
alignment = -1;
pos = (516,0);
ref = period;
}
);
width = 798;
}
);
unicode = 8230;
},
{
glyphname = quotesingle;
kernLeft = quotesingle;
kernRight = quotesingle;
lastChange = "2022-04-14 18:46:40 +0000";
layers = (
{
background = {
shapes = (
{
closed = 1;
nodes = (
(110,490,l),
(115,700,l),
(75,700,l),
(77,490,l)
);
}
);
};
layerId = "FCCC260D-0C10-491F-B419-2EABB30545AF";
shapes = (
{
closed = 1;
nodes = (
(96,530,l),
(101,730,l),
(61,730,l),
(63,530,l)
);
}
);
width = 161;
},
{
background = {
shapes = (
{
closed = 1;
nodes = (
(183,443,l),
(202,680,l),
(41,680,l),
(59,443,l)
);
}
);
};
layerId = "A7032D4A-7BCC-4736-93C1-F342117E585F";
shapes = (
{
closed = 1;
nodes = (
(191,478,l),
(210,730,l),
(49,730,l),
(67,478,l)
);
}
);
width = 259;
}
);
unicode = 39;
},
{
color = 10;
glyphname = quotedbl;
kernLeft = quotesingle;
kernRight = quotesingle;
lastChange = "2022-04-14 18:46:40 +0000";
layers = (
{
background = {
shapes = (
{
closed = 1;
nodes = (
(258,490,l),
(262,700,l),
(224,700,l),
(227,490,l)
);
},
{
closed = 1;
nodes = (
(111,490,l),
(114,700,l),
(75,700,l),
(78,490,l)
);
}
);
};
layerId = "FCCC260D-0C10-491F-B419-2EABB30545AF";
shapes = (
{
alignment = -1;
ref = quotesingle;
},
{
alignment = -1;
pos = (120,0);
ref = quotesingle;
}
);
width = 281;
},
{
background = {
shapes = (
{
closed = 1;
nodes = (
(398,443,l),
(418,680,l),
(256,680,l),
(275,443,l)
);
},
{
closed = 1;
nodes = (
(183,443,l),
(201,680,l),
(41,680,l),
(59,443,l)
);
}
);
};
layerId = "A7032D4A-7BCC-4736-93C1-F342117E585F";
shapes = (
{
alignment = -1;
ref = quotesingle;
},
{
alignment = -1;
pos = (200,0);
ref = quotesingle;
}
);
width = 459;
}
);
unicode = 34;
},
{
glyphname = quoteleft;
kernLeft = quoteleft;
kernRight = quoteleft;
lastChange = "2023-06-15 09:17:41 +0000";
layers = (
{
background = {
shapes = (
{
alignment = -1;
angle = 180;
pos = (182,610);
ref = comma;
scale = (0.95,0.95);
}
);
};
layerId = "FCCC260D-0C10-491F-B419-2EABB30545AF";
shapes = (
{
closed = 1;
nodes = (
(88,530,l),
(124,730,l),
(95,730,l),
(50,530,l)
);
}
);
width = 167;
},
{
background = {
shapes = (
{
alignment = -1;
angle = 180;
pos = (240,580);
ref = comma;
scale = (0.95,0.95);
}
);
};
layerId = "A7032D4A-7BCC-4736-93C1-F342117E585F";
shapes = (
{
closed = 1;
nodes = (
(198,478,l),
(226,730,l),
(107,730,l),
(40,478,l)
);
}
);
width = 271;
}
);
unicode = 8216;
},
{
glyphname = quotesinglbase;
kernLeft = period;
kernRight = period;
lastChange = "2022-04-14 18:46:40 +0000";
layers = (
{
background = {
shapes = (
{
alignment = -1;
angle = 180;
pos = (163,-2);
ref = comma;
scale = (0.95,0.95);
}
);
};
layerId = "FCCC260D-0C10-491F-B419-2EABB30545AF";
shapes = (
{
closed = 1;
nodes = (
(83,0,l),
(119,200,l),
(90,200,l),
(45,0,l)
);
}
);
width = 170;
},
{
background = {
shapes = (
{
alignment = -1;
angle = 180;
pos = (253,45);
ref = comma;
scale = (1.0318,1.0318);
}
);
};
layerId = "A7032D4A-7BCC-4736-93C1-F342117E585F";
shapes = (
{
closed = 1;
nodes = (
(194,0,l),
(222,251,l),
(103,251,l),
(36,0,l)
);
}
);
width = 271;
}
);
unicode = 8218;
},
{
glyphname = hyphen;
kernLeft = hyphen;
kernRight = hyphen;
lastChange = "2022-04-14 18:46:40 +0000";
layers = (
{
background = {
shapes = (
{
closed = 1;
nodes = (
(356,247,l),
(356,281,l),
(76,281,l),
(76,247,l)
);
}
);
};
layerId = "FCCC260D-0C10-491F-B419-2EABB30545AF";
shapes = (
{
closed = 1;
nodes = (
(329,247,l),
(329,281,l),
(49,281,l),
(49,247,l)
);
}
);
width = 378;
},
{
background = {
shapes = (
{
closed = 1;
nodes = (
(328,203,l),
(328,326,l),
(50,326,l),
(50,203,l)
);
}
);
};
layerId = "A7032D4A-7BCC-4736-93C1-F342117E585F";
shapes = (
{
closed = 1;
nodes = (
(335,202,l),
(335,326,l),
(57,326,l),
(57,202,l)
);
}
);
width = 392;
}
);
unicode = 45;
},
{
glyphname = endash;
kernLeft = hyphen;
kernRight = hyphen;
lastChange = "2022-04-14 18:46:40 +0000";
layers = (
{
background = {
shapes = (
{
closed = 1;
nodes = (
(460,247,l),
(460,281,l),
(40,281,l),
(40,247,l)
);
}
);
};
layerId = "FCCC260D-0C10-491F-B419-2EABB30545AF";
shapes = (
{
closed = 1;
nodes = (
(469,247,l),
(469,281,l),
(49,281,l),
(49,247,l)
);
}
);
width = 518;
},
{
background = {
shapes = (
{
closed = 1;
nodes = (
(460,203,l),
(460,326,l),
(40,326,l),
(40,203,l)
);
}
);
};
layerId = "A7032D4A-7BCC-4736-93C1-F342117E585F";
shapes = (
{
closed = 1;
nodes = (
(477,202,l),
(477,326,l),
(57,326,l),
(57,202,l)
);
}
);
width = 534;
}
);
unicode = 8211;
},
{
glyphname = emdash;
kernLeft = hyphen;
kernRight = hyphen;
lastChange = "2022-04-14 18:46:40 +0000";
layers = (
{
background = {
shapes = (
{
closed = 1;
nodes = (
(960,247,l),
(960,281,l),
(40,281,l),
(40,247,l)
);
}
);
};
layerId = "FCCC260D-0C10-491F-B419-2EABB30545AF";
shapes = (
{
closed = 1;
nodes = (
(969,247,l),
(969,281,l),
(49,281,l),
(49,247,l)
);
}
);
width = 1018;
},
{
background = {
shapes = (
{
closed = 1;
nodes = (
(960,203,l),
(960,326,l),
(40,326,l),
(40,203,l)
);
}
);
};
layerId = "A7032D4A-7BCC-4736-93C1-F342117E585F";
shapes = (
{
closed = 1;
nodes = (
(977,202,l),
(977,326,l),
(57,326,l),
(57,202,l)
);
}
);
width = 1034;
}
);
unicode = 8212;
},
{
glyphname = slash;
lastChange = "2022-04-14 18:46:40 +0000";
layers = (
{
background = {
shapes = (
{
closed = 1;
nodes = (
(68,-120,l),
(321,740,l),
(285,740,l),
(32,-120,l)
);
}
);
};
layerId = "FCCC260D-0C10-491F-B419-2EABB30545AF";
shapes = (
{
closed = 1;
nodes = (
(52,-120,l),
(305,740,l),
(269,740,l),
(16,-120,l)
);
}
);
width = 321;
},
{
background = {
shapes = (
{
closed = 1;
nodes = (
(184,-120,l),
(458,740,l),
(297,740,l),
(22,-120,l)
);
}
);
};
layerId = "A7032D4A-7BCC-4736-93C1-F342117E585F";
shapes = (
{
closed = 1;
nodes = (
(175,-120,l),
(449,740,l),
(288,740,l),
(13,-120,l)
);
}
);
width = 462;
}
);
unicode = 47;
},
{
glyphname = bar;
kernLeft = bar;
kernRight = bar;
lastChange = "2022-04-14 18:46:40 +0000";
layers = (
{
background = {
shapes = (
{
closed = 1;
nodes = (
(120,-120,l),
(120,740,l),
(85,740,l),
(85,-120,l)
);
}
);
};
layerId = "FCCC260D-0C10-491F-B419-2EABB30545AF";
shapes = (
{
closed = 1;
nodes = (
(119,-120,l),
(119,740,l),
(84,740,l),
(84,-120,l)
);
}
);
width = 203;
},
{
background = {
shapes = (
{
closed = 1;
nodes = (
(206,-120,l),
(206,740,l),
(56,740,l),
(56,-120,l)
);
}
);
};
layerId = "A7032D4A-7BCC-4736-93C1-F342117E585F";
shapes = (
{
closed = 1;
nodes = (
(220,-120,l),
(220,740,l),
(70,740,l),
(70,-120,l)
);
}
);
width = 290;
}
);
unicode = 124;
},
{
glyphname = brokenbar;
kernLeft = bar;
kernRight = bar;
lastChange = "2022-04-14 18:46:40 +0000";
layers = (
{
background = {
shapes = (
{
closed = 1;
nodes = (
(121,410,l),
(121,740,l),
(86,740,l),
(86,410,l)
);
},
{
closed = 1;
nodes = (
(121,-120,l),
(121,210,l),
(86,210,l),
(86,-120,l)
);
}
);
};
layerId = "FCCC260D-0C10-491F-B419-2EABB30545AF";
shapes = (
{
closed = 1;
nodes = (
(119,410,l),
(119,740,l),
(84,740,l),
(84,410,l)
);
},
{
closed = 1;
nodes = (
(119,-120,l),
(119,210,l),
(84,210,l),
(84,-120,l)
);
}
);
width = 203;
},
{
background = {
shapes = (
{
closed = 1;
nodes = (
(206,410,l),
(206,740,l),
(56,740,l),
(56,410,l)
);
},
{
closed = 1;
nodes = (
(206,-120,l),
(206,210,l),
(56,210,l),
(56,-120,l)
);
}
);
};
layerId = "A7032D4A-7BCC-4736-93C1-F342117E585F";
shapes = (
{
closed = 1;
nodes = (
(220,410,l),
(220,740,l),
(70,740,l),
(70,410,l)
);
},
{
closed = 1;
nodes = (
(220,-120,l),
(220,210,l),
(70,210,l),
(70,-120,l)
);
}
);
width = 290;
}
);
unicode = 166;
},
{
glyphname = parenleft;
lastChange = "2022-04-14 18:46:40 +0000";
layers = (
{
background = {
shapes = (
{
closed = 1;
nodes = (
(184,-120,l),
(148,-28,o),
(98,152,o),
(98,310,cs),
(98,469,o),
(148,640,o),
(184,740,c),
(149,740,l),
(112,644,o),
(61,477,o),
(61,310,cs),
(61,143,o),
(112,-34,o),
(149,-120,c)
);
}
);
};
layerId = "FCCC260D-0C10-491F-B419-2EABB30545AF";
shapes = (
{
closed = 1;
nodes = (
(174,-120,l),
(138,-28,o),
(88,152,o),
(88,310,cs),
(88,469,o),
(138,640,o),
(174,740,c),
(139,740,l),
(102,644,o),
(51,477,o),
(51,310,cs),
(51,143,o),
(102,-34,o),
(139,-120,c)
);
}
);
width = 210;
},
{
background = {
shapes = (
{
closed = 1;
nodes = (
(272,-120,l),
(239,-28,o),
(194,161,o),
(194,310,cs),
(194,464,o),
(239,639,o),
(272,740,c),
(131,740,l),
(91,653,o),
(37,483,o),
(37,310,cs),
(37,138,o),
(91,-43,o),
(131,-120,c)
);
}
);
};
layerId = "A7032D4A-7BCC-4736-93C1-F342117E585F";
shapes = (
{
closed = 1;
nodes = (
(284,-120,l),
(251,-28,o),
(206,161,o),
(206,310,cs),
(206,464,o),
(251,639,o),
(284,740,c),
(143,740,l),
(103,653,o),
(49,483,o),
(49,310,cs),
(49,138,o),
(103,-43,o),
(143,-120,c)
);
}
);
width = 323;
}
);
unicode = 40;
},
{
glyphname = bracketleft;
lastChange = "2022-04-14 18:46:40 +0000";
layers = (
{
background = {
shapes = (
{
closed = 1;
nodes = (
(253,-120,l),
(253,-88,l),
(120,-88,l),
(120,708,l),
(253,708,l),
(253,740,l),
(85,740,l),
(85,-120,l)
);
}
);
};
layerId = "FCCC260D-0C10-491F-B419-2EABB30545AF";
shapes = (
{
closed = 1;
nodes = (
(250,-120,l),
(250,-88,l),
(117,-88,l),
(117,708,l),
(250,708,l),
(250,740,l),
(82,740,l),
(82,-120,l)
);
}
);
width = 272;
},
{
background = {
shapes = (
{
closed = 1;
nodes = (
(296,-120,l),
(296,3,l),
(210,3,l),
(210,617,l),
(296,617,l),
(296,740,l),
(56,740,l),
(56,-120,l)
);
}
);
};
layerId = "A7032D4A-7BCC-4736-93C1-F342117E585F";
shapes = (
{
closed = 1;
nodes = (
(310,-120,l),
(310,3,l),
(224,3,l),
(224,617,l),
(310,617,l),
(310,740,l),
(70,740,l),
(70,-120,l)
);
}
);
width = 351;
}
);
unicode = 91;
},
{
glyphname = braceleft;
lastChange = "2022-04-14 18:46:40 +0000";
layers = (
{
background = {
shapes = (
{
closed = 1;
nodes = (
(286,-92,l),
(183,-87,o),
(157,-34,o),
(157,53,cs),
(157,68,o),
(163,122,o),
(163,166,cs),
(163,255,o),
(136,288,o),
(61,312,c),
(61,304,l),
(136,329,o),
(163,359,o),
(163,452,cs),
(163,480,o),
(157,539,o),
(157,567,cs),
(157,656,o),
(183,707,o),
(286,712,c),
(285,744,l),
(167,739,o),
(122,686,o),
(122,567,cs),
(122,525,o),
(128,485,o),
(128,443,cs),
(128,379,o),
(104,342,o),
(34,323,c),
(34,291,l),
(103,269,o),
(128,236,o),
(128,173,cs),
(128,140,o),
(122,86,o),
(122,53,cs),
(122,-66,o),
(167,-119,o),
(285,-124,c)
);
}
);
};
layerId = "FCCC260D-0C10-491F-B419-2EABB30545AF";
shapes = (
{
closed = 1;
nodes = (
(285,-92,l),
(182,-87,o),
(156,-34,o),
(156,53,cs),
(156,68,o),
(162,122,o),
(162,166,cs),
(162,255,o),
(135,288,o),
(60,312,c),
(60,304,l),
(135,329,o),
(162,359,o),
(162,452,cs),
(162,480,o),
(156,539,o),
(156,567,cs),
(156,656,o),
(182,707,o),
(285,712,c),
(284,744,l),
(166,739,o),
(121,686,o),
(121,567,cs),
(121,525,o),
(127,485,o),
(127,443,cs),
(127,379,o),
(103,342,o),
(33,323,c),
(33,291,l),
(102,269,o),
(127,236,o),
(127,173,cs),
(127,140,o),
(121,86,o),
(121,53,cs),
(121,-66,o),
(166,-119,o),
(284,-124,c)
);
}
);
width = 306;
},
{
background = {
shapes = (
{
closed = 1;
nodes = (
(316,-9,l),
(249,-4,o),
(235,24,o),
(235,81,cs),
(235,111,o),
(238,157,o),
(238,187,cs),
(238,279,o),
(215,305,o),
(107,334,c),
(108,292,l),
(215,327,o),
(238,342,o),
(238,441,cs),
(238,464,o),
(235,519,o),
(235,542,cs),
(235,601,o),
(249,624,o),
(317,629,c),
(316,744,l),
(166,742,o),
(82,712,o),
(82,569,cs),
(82,540,o),
(91,468,o),
(91,439,cs),
(91,403,o),
(70,375,o),
(24,364,c),
(24,256,l),
(71,243,o),
(91,213,o),
(91,176,cs),
(91,154,o),
(82,77,o),
(82,49,cs),
(82,-88,o),
(165,-122,o),
(316,-124,c)
);
}
);
};
layerId = "A7032D4A-7BCC-4736-93C1-F342117E585F";
shapes = (
{
closed = 1;
nodes = (
(332,-9,l),
(265,-4,o),
(251,24,o),
(251,81,cs),
(251,111,o),
(254,157,o),
(254,187,cs),
(254,279,o),
(231,305,o),
(123,334,c),
(124,292,l),
(231,327,o),
(254,342,o),
(254,441,cs),
(254,464,o),
(251,519,o),
(251,542,cs),
(251,601,o),
(265,624,o),
(333,629,c),
(332,744,l),
(182,742,o),
(98,712,o),
(98,569,cs),
(98,540,o),
(107,468,o),
(107,439,cs),
(107,403,o),
(86,375,o),
(40,364,c),
(40,256,l),
(87,243,o),
(107,213,o),
(107,176,cs),
(107,154,o),
(98,77,o),
(98,49,cs),
(98,-88,o),
(181,-122,o),
(332,-124,c)
);
}
);
width = 373;
}
);
unicode = 123;
},
{
glyphname = bullet;
lastChange = "2022-04-14 18:46:40 +0000";
layers = (
{
background = {
shapes = (
{
closed = 1;
nodes = (
(315,110,l),
(315,400,l),
(86,400,l),
(86,110,l)
);
}
);
};
layerId = "FCCC260D-0C10-491F-B419-2EABB30545AF";
shapes = (
{
closed = 1;
nodes = (
(261,158,o),
(303,200,o),
(303,260,cs),
(303,320,o),
(261,362,o),
(201,362,cs),
(141,362,o),
(99,320,o),
(99,260,cs),
(99,200,o),
(141,158,o),
(201,158,cs)
);
}
);
width = 402;
},
{
background = {
shapes = (
{
closed = 1;
nodes = (
(331,123,l),
(331,401,l),
(84,401,l),
(84,123,l)
);
}
);
};
layerId = "A7032D4A-7BCC-4736-93C1-F342117E585F";
shapes = (
{
closed = 1;
nodes = (
(287,126,o),
(342,181,o),
(342,260,cs),
(342,339,o),
(287,394,o),
(208,394,cs),
(129,394,o),
(74,339,o),
(74,260,cs),
(74,181,o),
(129,126,o),
(208,126,cs)
);
}
);
width = 416;
}
);
unicode = 8226;
},
{
glyphname = squareBullet;
lastChange = "2022-04-14 18:46:40 +0000";
layers = (
{
background = {
shapes = (
{
closed = 1;
nodes = (
(315,110,l),
(315,400,l),
(86,400,l),
(86,110,l)
);
}
);
};
layerId = "FCCC260D-0C10-491F-B419-2EABB30545AF";
shapes = (
{
closed = 1;
nodes = (
(299,162,l),
(299,358,l),
(103,358,l),
(103,162,l)
);
}
);
width = 402;
},
{
background = {
shapes = (
{
closed = 1;
nodes = (
(331,123,l),
(331,401,l),
(84,401,l),
(84,123,l)
);
}
);
};
layerId = "A7032D4A-7BCC-4736-93C1-F342117E585F";
shapes = (
{
closed = 1;
nodes = (
(335,133,l),
(335,387,l),
(81,387,l),
(81,133,l)
);
}
);
width = 416;
}
);
unicode = 9642;
},
{
glyphname = guilsinglleft;
kernLeft = guilsinglleft;
kernRight = guilsinglleft;
lastChange = "2022-04-14 18:46:40 +0000";
layers = (
{
background = {
shapes = (
{
closed = 1;
nodes = (
(216,98,l),
(91,250,l),
(216,402,l),
(176,402,l),
(52,254,l),
(52,246,l),
(176,98,l)
);
}
);
};
layerId = "FCCC260D-0C10-491F-B419-2EABB30545AF";
shapes = (
{
closed = 1;
nodes = (
(207,98,l),
(82,250,l),
(207,402,l),
(167,402,l),
(43,254,l),
(43,246,l),
(167,98,l)
);
}
);
width = 271;
},
{
background = {
shapes = (
{
closed = 1;
nodes = (
(301,57,l),
(162,250,l),
(301,443,l),
(177,443,l),
(33,258,l),
(33,242,l),
(177,57,l)
);
}
);
};
layerId = "A7032D4A-7BCC-4736-93C1-F342117E585F";
shapes = (
{
closed = 1;
nodes = (
(307,57,l),
(168,250,l),
(307,443,l),
(183,443,l),
(39,258,l),
(39,242,l),
(183,57,l)
);
}
);
width = 355;
}
);
unicode = 8249;
},
{
glyphname = at;
lastChange = "2022-04-14 18:46:40 +0000";
layers = (
{
background = {
shapes = (
{
closed = 1;
nodes = (
(505,-199,o),
(562,-190,o),
(601,-179,c),
(594,-148,l),
(554,-159,o),
(499,-167,o),
(467,-167,cs),
(235,-167,o),
(97,-51,o),
(97,261,cs),
(97,560,o),
(236,687,o),
(468,687,cs),
(703,687,o),
(816,550,o),
(816,306,cs),
(816,288,ls),
(816,41,o),
(753,20,o),
(707,20,cs),
(621,20,o),
(621,99,o),
(621,150,cs),
(621,500,l),
(586,500,l),
(586,129,ls),
(586,56,o),
(609,-10,o),
(702,-10,cs),
(771,-10,o),
(852,10,o),
(852,288,cs),
(852,305,ls),
(852,568,o),
(726,719,o),
(468,719,cs),
(218,719,o),
(61,579,o),
(61,261,cs),
(61,-80,o),
(216,-199,o),
(467,-199,cs)
);
},
{
closed = 1;
nodes = (
(516,-9,o),
(581,20,o),
(615,50,c),
(600,77,l),
(564,47,o),
(509,23,o),
(441,23,cs),
(391,23,o),
(308,41,o),
(308,240,cs),
(308,391,o),
(350,477,o),
(468,477,cs),
(508,477,o),
(566,460,o),
(591,448,c),
(593,479,l),
(557,495,o),
(502,509,o),
(466,509,cs),
(328,509,o),
(273,414,o),
(273,243,cs),
(273,0,o),
(383,-9,o),
(441,-9,cs)
);
}
);
};
layerId = "FCCC260D-0C10-491F-B419-2EABB30545AF";
shapes = (
{
closed = 1;
nodes = (
(510,-199,o),
(569,-190,o),
(617,-179,c),
(610,-148,l),
(563,-159,o),
(505,-167,o),
(453,-167,cs),
(202,-167,o),
(83,-29,o),
(83,261,cs),
(83,541,o),
(210,687,o),
(454,687,cs),
(686,687,o),
(803,553,o),
(803,288,cs),
(803,108,o),
(767,20,o),
(693,20,cs),
(633,20,o),
(607,60,o),
(607,150,cs),
(607,500,l),
(572,500,l),
(572,129,ls),
(572,37,o),
(611,-10,o),
(688,-10,cs),
(792,-10,o),
(838,81,o),
(838,288,cs),
(838,573,o),
(708,719,o),
(454,719,cs),
(188,719,o),
(48,561,o),
(48,261,cs),
(48,-52,o),
(176,-199,o),
(453,-199,cs)
);
},
{
closed = 1;
nodes = (
(493,-9,o),
(561,16,o),
(601,51,c),
(586,77,l),
(545,43,o),
(490,23,o),
(439,23,cs),
(341,23,o),
(294,85,o),
(294,242,cs),
(294,403,o),
(344,477,o),
(452,477,cs),
(496,477,o),
(544,463,o),
(577,448,c),
(579,479,l),
(541,496,o),
(496,509,o),
(450,509,cs),
(321,509,o),
(259,423,o),
(259,242,cs),
(259,65,o),
(318,-9,o),
(439,-9,cs)
);
}
);
width = 890;
},
{
background = {
shapes = (
{
closed = 1;
nodes = (
(538,-209,o),
(609,-197,o),
(646,-183,c),
(628,-88,l),
(587,-100,o),
(531,-108,o),
(495,-108,cs),
(274,-108,o),
(158,-4,o),
(158,264,cs),
(158,516,o),
(300,627,o),
(500,627,cs),
(701,627,o),
(804,522,o),
(804,314,cs),
(804,298,ls),
(804,161,o),
(778,108,o),
(750,108,cs),
(718,108,o),
(700,139,o),
(700,195,cs),
(700,496,l),
(547,496,l),
(547,172,ls),
(547,23,o),
(668,-1,o),
(733,-1,cs),
(863,-1,o),
(928,78,o),
(928,298,cs),
(928,313,ls),
(928,585,o),
(772,729,o),
(500,729,cs),
(237,729,o),
(42,588,o),
(42,264,cs),
(42,-68,o),
(189,-209,o),
(495,-209,cs)
);
},
{
closed = 1;
nodes = (
(510,1,o),
(567,35,o),
(602,65,c),
(585,156,l),
(565,135,o),
(525,116,o),
(482,116,cs),
(449,116,o),
(406,148,o),
(406,251,cs),
(406,333,o),
(440,392,o),
(493,392,cs),
(512,392,o),
(548,380,o),
(556,376,c),
(555,470,l),
(537,485,o),
(484,508,o),
(438,508,cs),
(324,508,o),
(252,413,o),
(252,248,cs),
(252,56,o),
(337,1,o),
(453,1,cs)
);
}
);
};
layerId = "A7032D4A-7BCC-4736-93C1-F342117E585F";
shapes = (
{
closed = 1;
nodes = (
(564,-209,o),
(649,-198,o),
(699,-183,c),
(681,-88,l),
(625,-101,o),
(558,-108,o),
(498,-108,cs),
(266,-108,o),
(161,8,o),
(161,264,cs),
(161,496,o),
(284,627,o),
(503,627,cs),
(707,627,o),
(807,519,o),
(807,298,cs),
(807,171,o),
(786,108,o),
(749,108,cs),
(722,108,o),
(705,126,o),
(705,195,cs),
(705,496,l),
(551,496,l),
(551,172,ls),
(551,67,o),
(624,-1,o),
(736,-1,cs),
(867,-1,o),
(923,88,o),
(923,298,cs),
(923,579,o),
(776,729,o),
(503,729,cs),
(212,729,o),
(45,556,o),
(45,264,cs),
(45,-58,o),
(190,-209,o),
(498,-209,cs)
);
},
{
closed = 1;
nodes = (
(508,1,o),
(560,24,o),
(606,65,c),
(588,162,l),
(566,137,o),
(529,116,o),
(485,116,cs),
(436,116,o),
(409,164,o),
(409,250,cs),
(409,337,o),
(443,392,o),
(496,392,cs),
(519,392,o),
(546,383,o),
(560,366,c),
(559,460,l),
(535,490,o),
(490,508,o),
(448,508,cs),
(331,508,o),
(255,410,o),
(255,250,cs),
(255,89,o),
(323,1,o),
(448,1,cs)
);
}
);
width = 972;
}
);
unicode = 64;
},
{
glyphname = section;
lastChange = "2022-04-14 18:46:40 +0000";
layers = (
{
background = {
shapes = (
{
closed = 1;
nodes = (
(324,-123,o),
(392,-69,o),
(392,35,cs),
(392,123,o),
(329,155,o),
(231,171,cs),
(153,184,o),
(99,221,o),
(99,285,cs),
(99,323,o),
(124,371,o),
(147,391,c),
(117,406,l),
(95,386,o),
(64,336,o),
(64,283,cs),
(64,195,o),
(131,154,o),
(225,139,cs),
(299,128,o),
(357,108,o),
(357,34,cs),
(357,-51,o),
(301,-88,o),
(232,-88,cs),
(177,-88,o),
(111,-70,o),
(69,-56,c),
(59,-90,l),
(101,-105,o),
(182,-123,o),
(232,-123,cs)
);
},
{
closed = 1;
nodes = (
(354,122,l),
(370,147,o),
(395,203,o),
(395,255,cs),
(395,344,o),
(336,379,o),
(242,395,cs),
(133,413,o),
(108,446,o),
(108,518,cs),
(108,583,o),
(167,630,o),
(237,630,cs),
(291,630,o),
(347,615,o),
(381,601,c),
(390,634,l),
(360,647,o),
(299,662,o),
(237,662,cs),
(147,662,o),
(73,603,o),
(73,517,cs),
(73,408,o),
(129,382,o),
(235,363,cs),
(310,350,o),
(360,325,o),
(360,252,cs),
(360,206,o),
(341,160,o),
(327,139,c)
);
}
);
};
layerId = "FCCC260D-0C10-491F-B419-2EABB30545AF";
shapes = (
{
closed = 1;
nodes = (
(315,-123,o),
(383,-72,o),
(383,29,cs),
(383,120,o),
(320,155,o),
(222,171,cs),
(144,184,o),
(90,221,o),
(90,285,cs),
(90,323,o),
(115,371,o),
(138,391,c),
(108,406,l),
(87,386,o),
(55,336,o),
(55,283,cs),
(55,195,o),
(122,154,o),
(216,139,cs),
(290,128,o),
(348,105,o),
(348,28,cs),
(348,-54,o),
(292,-88,o),
(226,-88,cs),
(173,-88,o),
(116,-76,o),
(60,-56,c),
(50,-90,l),
(98,-108,o),
(172,-123,o),
(226,-123,cs)
);
},
{
closed = 1;
nodes = (
(345,122,l),
(361,147,o),
(386,203,o),
(386,255,cs),
(386,344,o),
(327,379,o),
(233,395,cs),
(124,413,o),
(99,453,o),
(99,513,cs),
(99,585,o),
(151,630,o),
(226,630,cs),
(282,630,o),
(338,615,o),
(372,601,c),
(381,634,l),
(349,647,o),
(289,662,o),
(226,662,cs),
(129,662,o),
(64,604,o),
(64,512,cs),
(64,415,o),
(120,382,o),
(226,363,cs),
(301,350,o),
(351,325,o),
(351,252,cs),
(351,206,o),
(332,160,o),
(318,139,c)
);
}
);
width = 442;
},
{
background = {
shapes = (
{
closed = 1;
nodes = (
(380,-170,o),
(484,-119,o),
(484,14,cs),
(484,139,o),
(370,166,o),
(257,194,cs),
(206,207,o),
(191,225,o),
(191,261,cs),
(191,283,o),
(203,316,o),
(219,322,c),
(96,368,l),
(68,343,o),
(40,293,o),
(40,239,cs),
(40,148,o),
(97,102,o),
(210,79,cs),
(307,59,o),
(333,48,o),
(333,9,cs),
(333,-36,o),
(302,-49,o),
(257,-49,cs),
(213,-49,o),
(129,-32,o),
(66,-13,c),
(38,-124,l),
(93,-148,o),
(192,-170,o),
(274,-170,cs)
);
},
{
closed = 1;
nodes = (
(443,110,l),
(470,136,o),
(492,190,o),
(492,253,cs),
(492,342,o),
(430,384,o),
(318,407,cs),
(237,424,o),
(204,440,o),
(204,475,cs),
(204,515,o),
(224,540,o),
(288,540,cs),
(331,540,o),
(406,530,o),
(465,514,c),
(491,628,l,{
name = hr00;
}),
(426,648,o),
(341,661,o),
(262,661,cs),
(147,661,o),
(52,603,o),
(52,469,cs),
(52,319,o),
(202,312,o),
(271,294,cs),
(320,281,o),
(346,274,o),
(346,235,cs),
(346,207,o),
(338,173,o),
(325,160,c)
);
}
);
};
layerId = "A7032D4A-7BCC-4736-93C1-F342117E585F";
shapes = (
{
closed = 1;
nodes = (
(391,-170,o),
(495,-119,o),
(495,14,cs),
(495,139,o),
(381,166,o),
(268,194,cs),
(217,207,o),
(202,225,o),
(202,261,cs),
(202,283,o),
(214,316,o),
(230,322,c),
(107,368,l),
(79,343,o),
(51,293,o),
(51,239,cs),
(51,148,o),
(108,102,o),
(221,79,cs),
(318,59,o),
(344,48,o),
(344,9,cs),
(344,-36,o),
(313,-49,o),
(268,-49,cs),
(224,-49,o),
(140,-32,o),
(77,-13,c),
(49,-124,l),
(104,-148,o),
(203,-170,o),
(285,-170,cs)
);
},
{
closed = 1;
nodes = (
(454,110,l),
(481,136,o),
(503,190,o),
(503,253,cs),
(503,342,o),
(441,384,o),
(329,407,cs),
(248,424,o),
(215,440,o),
(215,475,cs),
(215,515,o),
(235,540,o),
(299,540,cs),
(342,540,o),
(417,530,o),
(476,514,c),
(502,628,l,{
name = hr00;
}),
(437,648,o),
(352,661,o),
(273,661,cs),
(158,661,o),
(63,603,o),
(63,469,cs),
(63,319,o),
(213,312,o),
(282,294,cs),
(331,281,o),
(357,274,o),
(357,235,cs),
(357,207,o),
(349,173,o),
(336,160,c)
);
}
);
width = 555;
}
);
unicode = 167;
},
{
glyphname = paragraph;
lastChange = "2022-04-14 18:46:40 +0000";
layers = (
{
background = {
shapes = (
{
closed = 1;
nodes = (
(256,0,l),
(256,667,l),
(391,667,l),
(391,0,l),
(426,0,l),
(426,667,l),
(514,667,l),
(514,700,l),
(215,700,ls),
(121,700,o),
(44,629,o),
(44,524,cs),
(44,419,o),
(121,350,o),
(215,350,cs),
(221,350,l),
(221,0,l)
);
}
);
};
layerId = "FCCC260D-0C10-491F-B419-2EABB30545AF";
shapes = (
{
closed = 1;
nodes = (
(238,0,l),
(238,667,l),
(373,667,l),
(373,0,l),
(408,0,l),
(408,667,l),
(496,667,l),
(496,700,l),
(197,700,ls),
(103,700,o),
(26,629,o),
(26,524,cs),
(26,419,o),
(103,350,o),
(197,350,cs),
(203,350,l),
(203,0,l)
);
}
);
width = 512;
},
{
background = {
shapes = (
{
closed = 1;
nodes = (
(317,0,l),
(317,566,l),
(381,566,l),
(381,0,l),
(461,0,l),
(461,566,l),
(525,566,l),
(525,696,l),
(232,696,ls),
(119,696,o),
(30,602,o),
(30,479,cs),
(30,357,o),
(118,265,o),
(231,265,cs),
(237,265,l),
(237,0,l)
);
}
);
};
layerId = "A7032D4A-7BCC-4736-93C1-F342117E585F";
shapes = (
{
closed = 1;
nodes = (
(319,0,l),
(319,566,l),
(383,566,l),
(383,0,l),
(463,0,l),
(463,566,l),
(527,566,l),
(527,696,l),
(234,696,ls),
(121,696,o),
(32,602,o),
(32,479,cs),
(32,357,o),
(120,265,o),
(233,265,cs),
(239,265,l),
(239,0,l)
);
}
);
width = 571;
}
);
unicode = 182;
},
{
glyphname = dagger;
lastChange = "2022-04-14 18:46:40 +0000";
layers = (
{
background = {
shapes = (
{
closed = 1;
nodes = (
(243,-79,l),
(244,466,l),
(410,466,l),
(410,500,l),
(244,500,l),
(244,700,l),
(209,700,l),
(209,500,l),
(43,500,l),
(43,466,l),
(209,466,l),
(211,-79,l)
);
}
);
};
layerId = "FCCC260D-0C10-491F-B419-2EABB30545AF";
shapes = (
{
closed = 1;
nodes = (
(214,-100,l),
(215,466,l),
(381,466,l),
(381,500,l),
(215,500,l),
(215,700,l),
(180,700,l),
(180,500,l),
(14,500,l),
(14,466,l),
(180,466,l),
(182,-100,l)
);
}
);
width = 395;
},
{
background = {
shapes = (
{
closed = 1;
nodes = (
(322,-137,l),
(324,365,l),
(464,365,l),
(464,493,l),
(324,493,l),
(324,680,l),
(170,680,l),
(170,493,l),
(31,493,l),
(31,365,l),
(170,365,l),
(173,-137,l)
);
}
);
};
layerId = "A7032D4A-7BCC-4736-93C1-F342117E585F";
shapes = (
{
closed = 1;
nodes = (
(313,-140,l),
(315,365,l),
(455,365,l),
(455,493,l),
(315,493,l),
(315,680,l),
(161,680,l),
(161,493,l),
(21,493,l),
(21,365,l),
(161,365,l),
(164,-140,l)
);
}
);
width = 476;
}
);
unicode = 8224;
},
{
glyphname = daggerdbl;
lastChange = "2022-04-14 18:46:40 +0000";
layers = (
{
background = {
shapes = (
{
closed = 1;
nodes = (
(266,-79,l),
(266,121,l),
(432,121,l),
(432,153,l),
(266,153,l),
(266,466,l),
(432,466,l),
(432,500,l),
(266,500,l),
(266,700,l),
(231,700,l),
(231,500,l),
(65,500,l),
(65,466,l),
(231,466,l),
(231,153,l),
(65,153,l),
(65,121,l),
(231,121,l),
(231,-79,l)
);
}
);
};
layerId = "FCCC260D-0C10-491F-B419-2EABB30545AF";
shapes = (
{
closed = 1;
nodes = (
(244,-100,l),
(244,121,l),
(410,121,l),
(410,153,l),
(244,153,l),
(244,466,l),
(410,466,l),
(410,500,l),
(244,500,l),
(244,700,l),
(209,700,l),
(209,500,l),
(43,500,l),
(43,466,l),
(209,466,l),
(209,153,l),
(43,153,l),
(43,121,l),
(209,121,l),
(209,-100,l)
);
}
);
width = 453;
},
{
background = {
shapes = (
{
closed = 1;
nodes = (
(336,-137,l),
(336,51,l),
(476,51,l),
(476,179,l),
(336,179,l),
(336,365,l),
(475,365,l),
(475,493,l),
(336,493,l),
(336,680,l),
(182,680,l),
(182,493,l),
(44,493,l),
(44,365,l),
(182,365,l),
(182,179,l),
(44,179,l),
(44,51,l),
(182,51,l),
(182,-137,l)
);
}
);
};
layerId = "A7032D4A-7BCC-4736-93C1-F342117E585F";
shapes = (
{
closed = 1;
nodes = (
(349,-140,l),
(349,51,l),
(489,51,l),
(489,179,l),
(349,179,l),
(349,365,l),
(488,365,l),
(488,493,l),
(349,493,l),
(349,680,l),
(195,680,l),
(195,493,l),
(55,493,l),
(55,365,l),
(195,365,l),
(195,179,l),
(55,179,l),
(55,51,l),
(195,51,l),
(195,-140,l)
);
}
);
width = 543;
}
);
unicode = 8225;
},
{
glyphname = degree;
lastChange = "2022-04-14 18:46:40 +0000";
layers = (
{
background = {
shapes = (
{
closed = 1;
nodes = (
(337,438,o),
(388,492,o),
(388,573,cs),
(388,654,o),
(337,709,o),
(263,709,cs),
(190,709,o),
(139,654,o),
(139,573,cs),
(139,492,o),
(190,438,o),
(263,438,cs)
);
},
{
closed = 1;
nodes = (
(209,470,o),
(171,511,o),
(171,573,cs),
(171,634,o),
(208,677,o),
(263,677,cs),
(319,677,o),
(357,635,o),
(357,573,cs),
(357,511,o),
(319,470,o),
(263,470,cs)
);
}
);
};
layerId = "FCCC260D-0C10-491F-B419-2EABB30545AF";
shapes = (
{
closed = 1;
nodes = (
(340,438,o),
(391,492,o),
(391,573,cs),
(391,654,o),
(340,709,o),
(266,709,cs),
(193,709,o),
(142,654,o),
(142,573,cs),
(142,492,o),
(193,438,o),
(266,438,cs)
);
},
{
closed = 1;
nodes = (
(212,470,o),
(174,511,o),
(174,573,cs),
(174,634,o),
(211,677,o),
(266,677,cs),
(322,677,o),
(360,635,o),
(360,573,cs),
(360,511,o),
(322,470,o),
(266,470,cs)
);
}
);
width = 532;
},
{
background = {
shapes = (
{
closed = 1;
nodes = (
(347,405,o),
(404,463,o),
(404,550,cs),
(404,636,o),
(347,696,o),
(265,696,cs),
(186,696,o),
(129,636,o),
(129,550,cs),
(129,463,o),
(186,405,o),
(265,405,cs)
);
},
{
closed = 1;
nodes = (
(235,486,o),
(213,512,o),
(213,550,cs),
(213,586,o),
(234,614,o),
(265,614,cs),
(300,614,o),
(322,587,o),
(322,550,cs),
(322,512,o),
(300,486,o),
(265,486,cs)
);
}
);
};
layerId = "A7032D4A-7BCC-4736-93C1-F342117E585F";
shapes = (
{
closed = 1;
nodes = (
(346,405,o),
(403,463,o),
(403,550,cs),
(403,636,o),
(346,696,o),
(264,696,cs),
(185,696,o),
(128,636,o),
(128,550,cs),
(128,463,o),
(185,405,o),
(264,405,cs)
);
},
{
closed = 1;
nodes = (
(234,486,o),
(212,512,o),
(212,550,cs),
(212,586,o),
(233,614,o),
(264,614,cs),
(299,614,o),
(321,587,o),
(321,550,cs),
(321,512,o),
(299,486,o),
(264,486,cs)
);
}
);
width = 532;
}
);
unicode = 176;
},
{
glyphname = ordfeminine;
lastChange = "2022-04-14 18:46:40 +0000";
layers = (
{
anchors = (
{
name = bottom;
pos = (386.522,395);
},
{
name = ogonek;
pos = (496.228,395);
},
{
name = top;
pos = (386.522,652.526);
}
);
background = {
anchors = (
{
name = bottom;
pos = (397.522,395);
},
{
name = ogonek;
pos = (507.228,395);
},
{
name = top;
pos = (397.522,652.526);
}
);
shapes = (
{
closed = 1;
nodes = (
(287,416,l),
(268,418,o),
(258,420,o),
(252,430,c),
(252,569,ls),
(252,630,o),
(226,659,o),
(167,659,cs),
(139,659,o),
(100,650,o),
(75,643,c),
(81,612,l),
(110,622,o),
(143,628,o),
(167,628,cs),
(203,628,o),
(218,614,o),
(218,569,cs),
(218,417,l),
(232,397,o),
(255,383,o),
(283,386,c)
);
},
{
closed = 1;
nodes = (
(178,386,o),
(213,398,o),
(244,414,c),
(234,443,l),
(199,422,o),
(174,417,o),
(149,417,cs),
(120,417,o),
(101,433,o),
(101,467,cs),
(101,501,o),
(122,516,o),
(159,518,cs),
(186,519,o),
(218,522,o),
(240,522,c),
(240,552,l),
(214,552,o),
(191,551,o),
(155,549,cs),
(101,546,o),
(64,518,o),
(64,467,cs),
(64,416,o),
(97,386,o),
(148,386,cs)
);
}
);
};
layerId = "FCCC260D-0C10-491F-B419-2EABB30545AF";
shapes = (
{
closed = 1;
nodes = (
(279,409,l),
(260,411,o),
(250,415,o),
(244,426,c),
(244,575,ls),
(244,638,o),
(221,667,o),
(156,667,cs),
(128,667,o),
(89,658,o),
(64,650,c),
(70,623,l),
(99,633,o),
(132,639,o),
(156,639,cs),
(196,639,o),
(213,625,o),
(213,575,cs),
(213,413,l),
(227,393,o),
(247,381,o),
(275,382,c)
);
},
{
closed = 1;
nodes = (
(167,382,o),
(205,396,o),
(236,413,c),
(226,437,l),
(191,416,o),
(163,410,o),
(138,410,cs),
(106,410,o),
(85,430,o),
(85,467,cs),
(85,504,o),
(108,523,o),
(148,526,cs),
(175,528,o),
(210,529,o),
(232,529,c),
(232,556,l),
(206,556,o),
(183,555,o),
(146,553,cs),
(90,550,o),
(53,520,o),
(53,467,cs),
(53,414,o),
(86,382,o),
(137,382,cs)
);
}
);
width = 328;
},
{
anchors = (
{
name = bottom;
pos = (261,0);
},
{
name = ogonek;
pos = (480,0);
},
{
name = top;
pos = (261,524);
}
);
background = {
anchors = (
{
name = bottom;
pos = (257,0);
},
{
name = ogonek;
pos = (476,0);
},
{
name = top;
pos = (257,524);
}
);
shapes = (
{
closed = 1;
nodes = (
(315,442,l),
(299,445,o),
(289,444,o),
(289,465,cs),
(289,561,ls),
(289,629,o),
(256,663,o),
(177,663,cs),
(152,663,o),
(106,658,o),
(59,646,c),
(69,576,l),
(96,584,o),
(138,589,o),
(162,589,cs),
(191,589,o),
(194,582,o),
(194,560,cs),
(194,409,l),
(219,377,o),
(254,366,o),
(311,367,c)
);
},
{
closed = 1;
nodes = (
(178,367,o),
(210,381,o),
(235,418,c),
(206,468,l),
(200,440,o),
(185,433,o),
(170,433,cs),
(148,433,o),
(136,442,o),
(136,464,cs),
(136,480,o),
(152,489,o),
(170,490,cs),
(192,491,o),
(199,491,o),
(222,491,c),
(222,550,l),
(208,550,o),
(175,549,o),
(162,549,cs),
(79,547,o),
(42,516,o),
(42,464,cs),
(42,405,o),
(72,367,o),
(148,367,cs)
);
}
);
};
layerId = "A7032D4A-7BCC-4736-93C1-F342117E585F";
shapes = (
{
closed = 1;
nodes = (
(319,441,l),
(303,442,o),
(293,443,o),
(293,464,cs),
(293,561,ls),
(293,629,o),
(257,663,o),
(181,663,cs),
(156,663,o),
(110,658,o),
(63,646,c),
(73,576,l),
(100,584,o),
(142,589,o),
(166,589,cs),
(191,589,o),
(199,582,o),
(199,560,cs),
(199,418,l),
(224,376,o),
(258,365,o),
(315,366,c)
);
},
{
closed = 1;
nodes = (
(181,366,o),
(214,383,o),
(239,420,c),
(210,463,l),
(204,435,o),
(186,428,o),
(171,428,cs),
(151,428,o),
(142,440,o),
(142,457,cs),
(142,479,o),
(156,488,o),
(172,489,cs),
(184,490,o),
(203,490,o),
(226,490,c),
(226,545,l),
(212,545,o),
(179,545,o),
(166,544,cs),
(90,541,o),
(48,514,o),
(48,457,cs),
(48,404,o),
(75,366,o),
(141,366,cs)
);
}
);
width = 367;
}
);
unicode = 170;
},
{
glyphname = ordmasculine;
lastChange = "2022-04-14 18:46:40 +0000";
layers = (
{
background = {
shapes = (
{
closed = 1;
nodes = (
(235,386,o),
(275,441,o),
(275,524,cs),
(275,607,o),
(235,659,o),
(170,659,cs),
(105,659,o),
(64,608,o),
(64,524,cs),
(64,440,o),
(105,386,o),
(170,386,cs)
);
},
{
closed = 1;
nodes = (
(124,418,o),
(97,458,o),
(97,524,cs),
(97,590,o),
(124,627,o),
(170,627,cs),
(216,627,o),
(242,590,o),
(242,524,cs),
(242,458,o),
(216,418,o),
(170,418,cs)
);
}
);
};
layerId = "FCCC260D-0C10-491F-B419-2EABB30545AF";
shapes = (
{
closed = 1;
nodes = (
(236,381,o),
(282,430,o),
(282,526,cs),
(282,622,o),
(236,667,o),
(166,667,cs),
(96,667,o),
(50,622,o),
(50,526,cs),
(50,430,o),
(96,381,o),
(166,381,cs)
);
},
{
closed = 1;
nodes = (
(114,409,o),
(82,446,o),
(82,526,cs),
(82,607,o),
(114,639,o),
(166,639,cs),
(218,639,o),
(250,607,o),
(250,526,cs),
(250,446,o),
(218,409,o),
(166,409,cs)
);
}
);
width = 332;
},
{
background = {
shapes = (
{
closed = 1;
nodes = (
(273,367,o),
(325,421,o),
(325,516,cs),
(325,610,o),
(273,663,o),
(182,663,cs),
(89,663,o),
(39,610,o),
(39,516,cs),
(39,421,o),
(89,367,o),
(182,367,cs)
);
},
{
closed = 1;
nodes = (
(156,449,o),
(137,473,o),
(137,516,cs),
(137,558,o),
(156,581,o),
(182,581,cs),
(206,581,o),
(222,559,o),
(222,516,cs),
(222,473,o),
(206,449,o),
(182,449,cs)
);
}
);
};
layerId = "A7032D4A-7BCC-4736-93C1-F342117E585F";
shapes = (
{
closed = 1;
nodes = (
(275,366,o),
(328,422,o),
(328,516,cs),
(328,609,o),
(275,664,o),
(186,664,cs),
(97,664,o),
(44,609,o),
(44,516,cs),
(44,422,o),
(97,366,o),
(186,366,cs)
);
},
{
closed = 1;
nodes = (
(157,446,o),
(140,471,o),
(140,516,cs),
(140,559,o),
(157,584,o),
(186,584,cs),
(215,584,o),
(232,559,o),
(232,516,cs),
(232,471,o),
(215,446,o),
(186,446,cs)
);
}
);
width = 372;
}
);
unicode = 186;
},
{
glyphname = trademark;
lastChange = "2022-04-14 18:46:40 +0000";
layers = (
{
background = {
shapes = (
{
closed = 1;
nodes = (
(282,331,l),
(282,589,l),
(357,352,l),
(390,352,l),
(469,589,l),
(469,331,l),
(499,331,l),
(499,621,l),
(449,621,l),
(374,389,l),
(302,621,l),
(251,621,l),
(251,331,l)
);
},
{
closed = 1;
nodes = (
(145,332,l),
(145,590,l),
(219,590,l),
(219,621,l),
(37,621,l),
(37,590,l),
(114,590,l),
(114,332,l)
);
}
);
};
layerId = "FCCC260D-0C10-491F-B419-2EABB30545AF";
shapes = (
{
closed = 1;
nodes = (
(287,331,l),
(287,589,l),
(363,352,l),
(396,352,l),
(472,589,l),
(472,331,l),
(503,331,l),
(503,621,l),
(452,621,l),
(375,374,l),
(386,374,l),
(307,621,l),
(256,621,l),
(256,331,l)
);
},
{
closed = 1;
nodes = (
(150,332,l),
(150,591,l),
(224,591,l),
(224,621,l),
(41,621,l),
(41,591,l),
(119,591,l),
(119,332,l)
);
}
);
width = 576;
},
{
background = {
shapes = (
{
closed = 1;
nodes = (
(306,331,l),
(306,548,l),
(350,369,l),
(397,369,l),
(441,548,l),
(441,331,l),
(506,331,l),
(506,638,l),
(418,638,l),
(371,466,l),
(329,638,l),
(238,638,l),
(238,331,l)
);
},
{
closed = 1;
nodes = (
(168,332,l),
(168,582,l),
(213,582,l),
(213,638,l),
(27,638,l),
(27,582,l),
(96,582,l),
(96,332,l)
);
}
);
};
layerId = "A7032D4A-7BCC-4736-93C1-F342117E585F";
shapes = (
{
closed = 1;
nodes = (
(322,331,l),
(322,548,l),
(366,379,l),
(432,379,l),
(476,548,l),
(476,331,l),
(546,331,l),
(546,638,l),
(444,638,l),
(383,410,l),
(425,409,l),
(362,638,l),
(260,638,l),
(260,331,l)
);
},
{
closed = 1;
nodes = (
(176,332,l),
(176,582,l),
(236,582,l),
(236,638,l),
(40,638,l),
(40,582,l),
(104,582,l),
(104,332,l)
);
}
);
width = 615;
}
);
unicode = 8482;
},
{
glyphname = copyright;
kernLeft = copyright;
kernRight = copyright;
lastChange = "2022-04-14 18:46:40 +0000";
layers = (
{
anchors = (
{
name = bottom;
pos = (292,294);
},
{
name = top;
pos = (292,574);
}
);
background = {
anchors = (
{
name = bottom;
pos = (303,294);
},
{
name = top;
pos = (303,574);
}
);
shapes = (
{
closed = 1;
nodes = (
(435,169,o),
(535,287,o),
(535,434,cs),
(535,581,o),
(435,700,o),
(300,700,cs),
(166,700,o),
(67,581,o),
(67,434,cs),
(67,287,o),
(166,169,o),
(300,169,cs)
);
},
{
closed = 1;
nodes = (
(183,201,o),
(97,305,o),
(97,434,cs),
(97,563,o),
(183,668,o),
(300,668,cs),
(417,668,o),
(505,563,o),
(505,434,cs),
(505,305,o),
(417,201,o),
(300,201,cs)
);
},
{
closed = 1;
nodes = (
(331,281,o),
(352,286,o),
(375,294,c),
(370,324,l),
(352,317,o),
(331,313,o),
(306,313,cs),
(251,313,o),
(231,355,o),
(231,433,cs),
(231,513,o),
(249,555,o),
(306,555,cs),
(331,555,o),
(355,549,o),
(368,543,c),
(375,574,l),
(356,581,o),
(334,587,o),
(306,587,cs),
(226,587,o),
(198,525,o),
(198,433,cs),
(198,342,o),
(227,281,o),
(306,281,cs)
);
}
);
};
layerId = "FCCC260D-0C10-491F-B419-2EABB30545AF";
shapes = (
{
closed = 1;
nodes = (
(437,168,o),
(525,286,o),
(525,434,cs),
(525,581,o),
(437,700,o),
(289,700,cs),
(141,700,o),
(53,581,o),
(53,434,cs),
(53,286,o),
(141,168,o),
(289,168,cs)
);
},
{
closed = 1;
nodes = (
(320,281,o),
(341,286,o),
(364,294,c),
(359,322,l),
(341,315,o),
(320,311,o),
(295,311,cs),
(239,311,o),
(219,354,o),
(219,433,cs),
(219,514,o),
(237,557,o),
(295,557,cs),
(320,557,o),
(344,551,o),
(357,545,c),
(364,574,l),
(345,581,o),
(323,587,o),
(295,587,cs),
(215,587,o),
(187,525,o),
(187,433,cs),
(187,342,o),
(216,281,o),
(295,281,cs)
);
},
{
closed = 1;
nodes = (
(158,199,o),
(85,304,o),
(85,434,cs),
(85,563,o),
(158,669,o),
(289,669,cs),
(420,669,o),
(493,563,o),
(493,434,cs),
(493,304,o),
(420,199,o),
(289,199,cs)
);
}
);
width = 578;
},
{
anchors = (
{
name = bottom;
pos = (304.739,293);
},
{
name = top;
pos = (308.791,576.677);
}
);
background = {
anchors = (
{
name = bottom;
pos = (310.739,293);
},
{
name = top;
pos = (314.791,576.677);
}
);
shapes = (
{
closed = 1;
nodes = (
(462,155,o),
(562,278,o),
(562,434,cs),
(562,585,o),
(462,713,o),
(309,713,cs),
(163,713,o),
(56,593,o),
(56,434,cs),
(56,277,o),
(163,155,o),
(308,155,cs)
);
},
{
closed = 1;
nodes = (
(193,208,o),
(107,310,o),
(107,434,cs),
(107,558,o),
(194,661,o),
(308,661,cs),
(422,661,o),
(510,558,o),
(510,434,cs),
(510,310,o),
(424,208,o),
(308,208,cs)
);
},
{
closed = 1;
nodes = (
(347,278,o),
(377,286,o),
(394,295,c),
(384,360,l),
(368,354,o),
(344,348,o),
(325,348,cs),
(293,348,o),
(272,377,o),
(272,435,cs),
(272,495,o),
(293,521,o),
(325,521,cs),
(349,521,o),
(364,517,o),
(379,512,c),
(394,575,l),
(374,584,o),
(342,592,o),
(316,592,cs),
(230,592,o),
(187,534,o),
(187,435,cs),
(187,335,o),
(231,278,o),
(315,278,cs)
);
}
);
};
layerId = "A7032D4A-7BCC-4736-93C1-F342117E585F";
shapes = (
{
closed = 1;
nodes = (
(452,155,o),
(554,267,o),
(554,434,cs),
(554,603,o),
(452,713,o),
(302,713,cs),
(152,713,o),
(50,603,o),
(50,434,cs),
(50,267,o),
(152,155,o),
(302,155,cs)
);
},
{
closed = 1;
nodes = (
(341,278,o),
(371,286,o),
(388,295,c),
(378,360,l),
(362,354,o),
(338,348,o),
(319,348,cs),
(287,348,o),
(266,377,o),
(266,434,cs),
(266,496,o),
(287,522,o),
(319,522,cs),
(343,522,o),
(358,518,o),
(373,513,c),
(388,575,l),
(368,584,o),
(336,592,o),
(310,592,cs),
(224,592,o),
(181,534,o),
(181,434,cs),
(181,335,o),
(225,278,o),
(309,278,cs)
);
},
{
closed = 1;
nodes = (
(181,205,o),
(104,298,o),
(104,434,cs),
(104,569,o),
(181,663,o),
(302,663,cs),
(423,663,o),
(500,569,o),
(500,434,cs),
(500,298,o),
(423,205,o),
(302,205,cs)
);
}
);
width = 604;
}
);
unicode = 169;
},
{
glyphname = registered;
kernLeft = copyright;
kernRight = copyright;
lastChange = "2022-04-14 18:46:40 +0000";
layers = (
{
background = {
shapes = (
{
closed = 1;
nodes = (
(438,169,o),
(538,287,o),
(538,434,cs),
(538,581,o),
(438,700,o),
(303,700,cs),
(169,700,o),
(70,581,o),
(70,434,cs),
(70,287,o),
(169,169,o),
(303,169,cs)
);
},
{
closed = 1;
nodes = (
(186,201,o),
(100,305,o),
(100,434,cs),
(100,563,o),
(186,668,o),
(303,668,cs),
(420,668,o),
(508,563,o),
(508,434,cs),
(508,305,o),
(420,201,o),
(303,201,cs)
);
},
{
closed = 1;
nodes = (
(240,286,l),
(240,402,l),
(312,402,l),
(371,286,l),
(404,286,l),
(338,419,l),
(333,402,l),
(377,410,o),
(399,452,o),
(399,492,cs),
(399,550,o),
(364,581,o),
(286,581,cs),
(210,581,l),
(210,286,l)
);
},
{
closed = 1;
nodes = (
(240,433,l),
(240,550,l),
(286,550,ls),
(344,550,o),
(369,527,o),
(369,492,cs),
(369,457,o),
(351,433,o),
(303,433,cs)
);
}
);
};
layerId = "FCCC260D-0C10-491F-B419-2EABB30545AF";
shapes = (
{
closed = 1;
nodes = (
(437,168,o),
(525,286,o),
(525,434,cs),
(525,581,o),
(437,700,o),
(289,700,cs),
(141,700,o),
(53,581,o),
(53,434,cs),
(53,286,o),
(141,168,o),
(289,168,cs)
);
},
{
closed = 1;
nodes = (
(158,199,o),
(85,304,o),
(85,434,cs),
(85,563,o),
(158,669,o),
(289,669,cs),
(420,669,o),
(493,563,o),
(493,434,cs),
(493,304,o),
(420,199,o),
(289,199,cs)
);
},
{
closed = 1;
nodes = (
(238,287,l),
(238,403,l),
(309,403,l),
(366,287,l),
(401,287,l),
(334,419,l),
(327,406,l),
(375,415,o),
(398,452,o),
(398,492,cs),
(398,540,o),
(366,581,o),
(297,581,cs),
(207,581,l),
(207,287,l)
);
},
{
closed = 1;
nodes = (
(238,433,l),
(238,551,l),
(299,551,ls),
(347,551,o),
(366,527,o),
(366,492,cs),
(366,457,o),
(347,433,o),
(299,433,cs)
);
}
);
width = 578;
},
{
background = {
shapes = (
{
closed = 1;
nodes = (
(462,155,o),
(562,278,o),
(562,434,cs),
(562,585,o),
(462,713,o),
(308,713,cs),
(163,713,o),
(56,593,o),
(56,434,cs),
(56,277,o),
(163,155,o),
(308,155,cs)
);
},
{
closed = 1;
nodes = (
(196,208,o),
(107,310,o),
(107,434,cs),
(107,558,o),
(195,661,o),
(308,661,cs),
(422,661,o),
(510,558,o),
(510,434,cs),
(510,310,o),
(424,208,o),
(308,208,cs)
);
},
{
closed = 1;
nodes = (
(276,279,l),
(276,378,l),
(314,378,l),
(348,279,l),
(428,279,l),
(359,455,l),
(335,366,l),
(397,393,o),
(424,418,o),
(424,487,cs),
(424,557,o),
(380,588,o),
(308,588,cs),
(200,588,l),
(200,279,l)
);
},
{
closed = 1;
nodes = (
(275,438,l),
(275,528,l),
(298,528,ls),
(336,528,o),
(350,507,o),
(350,482,cs),
(350,459,o),
(338,438,o),
(303,438,cs)
);
}
);
};
layerId = "A7032D4A-7BCC-4736-93C1-F342117E585F";
shapes = (
{
closed = 1;
nodes = (
(452,155,o),
(554,267,o),
(554,434,cs),
(554,603,o),
(452,713,o),
(302,713,cs),
(152,713,o),
(50,603,o),
(50,434,cs),
(50,267,o),
(152,155,o),
(302,155,cs)
);
},
{
closed = 1;
nodes = (
(181,205,o),
(104,298,o),
(104,434,cs),
(104,569,o),
(181,663,o),
(302,663,cs),
(423,663,o),
(500,569,o),
(500,434,cs),
(500,298,o),
(423,205,o),
(302,205,cs)
);
},
{
closed = 1;
nodes = (
(275,280,l),
(275,374,l),
(313,374,l),
(346,280,l),
(433,280,l),
(364,455,l),
(334,377,l),
(403,396,o),
(435,422,o),
(435,481,cs),
(435,548,o),
(386,588,o),
(308,588,cs),
(195,588,l),
(195,280,l)
);
},
{
closed = 1;
nodes = (
(275,438,l),
(275,524,l),
(304,524,ls),
(339,524,o),
(350,505,o),
(350,481,cs),
(350,459,o),
(339,438,o),
(304,438,cs)
);
}
);
width = 604;
}
);
unicode = 174;
},
{
glyphname = zero;
lastChange = "2022-04-14 18:46:40 +0000";
layers = (
{
background = {
shapes = (
{
closed = 1;
nodes = (
(401,-10,o),
(472,107,o),
(472,338,cs),
(472,591,o),
(404,710,o),
(260,710,cs),
(116,710,o),
(48,591,o),
(48,338,cs),
(48,107,o),
(119,-10,o),
(260,-10,cs)
);
},
{
closed = 1;
nodes = (
(143,24,o),
(86,126,o),
(86,337,cs),
(86,572,o),
(139,676,o),
(260,676,cs),
(381,676,o),
(434,572,o),
(434,337,cs),
(434,126,o),
(377,24,o),
(260,24,cs)
);
}
);
};
layerId = "FCCC260D-0C10-491F-B419-2EABB30545AF";
shapes = (
{
closed = 1;
nodes = (
(401,-10,o),
(472,107,o),
(472,338,cs),
(472,591,o),
(404,710,o),
(260,710,cs),
(116,710,o),
(48,591,o),
(48,338,cs),
(48,107,o),
(119,-10,o),
(260,-10,cs)
);
},
{
closed = 1;
nodes = (
(141,24,o),
(84,126,o),
(84,337,cs),
(84,572,o),
(139,676,o),
(260,676,cs),
(381,676,o),
(436,572,o),
(436,337,cs),
(436,126,o),
(375,24,o),
(258,24,cs)
);
}
);
width = 520;
},
{
background = {
shapes = (
{
closed = 1;
nodes = (
(427,-12,o),
(498,106,o),
(498,345,cs),
(498,591,o),
(427,712,o),
(260,712,cs),
(93,712,o),
(22,591,o),
(22,345,cs),
(22,106,o),
(93,-12,o),
(260,-12,cs)
);
},
{
closed = 1;
nodes = (
(200,110,o),
(179,178,o),
(179,345,cs),
(179,516,o),
(198,590,o),
(260,590,cs),
(322,590,o),
(341,516,o),
(341,345,cs),
(341,178,o),
(320,110,o),
(260,110,cs)
);
}
);
};
layerId = "A7032D4A-7BCC-4736-93C1-F342117E585F";
shapes = (
{
closed = 1;
nodes = (
(427,-12,o),
(498,106,o),
(498,345,cs),
(498,591,o),
(427,712,o),
(260,712,cs),
(93,712,o),
(22,591,o),
(22,345,cs),
(22,106,o),
(93,-12,o),
(260,-12,cs)
);
},
{
closed = 1;
nodes = (
(200,110,o),
(180,178,o),
(180,345,cs),
(180,516,o),
(198,590,o),
(260,590,cs),
(322,590,o),
(340,516,o),
(340,345,cs),
(340,178,o),
(320,110,o),
(260,110,cs)
);
}
);
width = 520;
}
);
unicode = 48;
userData = {
"21 03 2011 [FL]:
Wt1
01. correzione spessore H

23 05 2011 [OA]:
Wt0
01. correzione overshooting superiore 669
02. spessori curveH 32
03. correzione larghezza 550
Wt1
01. spessori curveH 120
02. spessori curveV 142  com.typemytype.robofont.guides" = (
{
angle = 0;
isGlobal = 0;
magnetic = 5;
x = 0;
y = 660;
}
);
};
},
{
glyphname = one;
lastChange = "2022-04-14 18:46:40 +0000";
layers = (
{
background = {
shapes = (
{
closed = 1;
nodes = (
(315,0,l),
(315,700,l),
(280,700,l),
(96,567,l),
(114,538,l),
(279,661,l),
(279,0,l)
);
}
);
};
layerId = "FCCC260D-0C10-491F-B419-2EABB30545AF";
shapes = (
{
closed = 1;
nodes = (
(331,0,l),
(331,700,l),
(296,700,l),
(112,567,l),
(130,537,l),
(295,657,l),
(295,0,l)
);
}
);
width = 520;
},
{
background = {
shapes = (
{
closed = 1;
nodes = (
(399,0,l),
(399,700,l),
(275,700,l),
(59,561,l),
(109,457,l),
(243,542,l),
(243,0,l)
);
}
);
};
layerId = "A7032D4A-7BCC-4736-93C1-F342117E585F";
shapes = (
{
closed = 1;
nodes = (
(399,0,l),
(399,700,l),
(275,700,l),
(59,561,l),
(114,446,l),
(241,527,l),
(241,0,l)
);
}
);
width = 520;
}
);
unicode = 49;
userData = {
"21 03 2011 [FL]:
Wt1
01. correzione spessore H  com.typemytype.robofont.guides" = (
{
angle = 0;
isGlobal = 0;
magnetic = 5;
x = 0;
y = 660;
}
);
};
},
{
glyphname = two;
lastChange = "2022-04-14 18:46:40 +0000";
layers = (
{
background = {
shapes = (
{
closed = 1;
nodes = (
(448,0,l),
(448,32,l),
(102,32,l),
(107,20,l),
(307,255,ls),
(395,358,o),
(429,437,o),
(429,531,cs),
(429,656,o),
(360,710,o),
(245,710,cs),
(185,710,o),
(118,693,o),
(76,672,c),
(86,640,l),
(131,661,o),
(194,676,o),
(243,676,cs),
(336,676,o),
(392,633,o),
(392,530,cs),
(392,436,o),
(358,371,o),
(274,272,cs),
(70,31,l),
(70,0,l)
);
}
);
};
layerId = "FCCC260D-0C10-491F-B419-2EABB30545AF";
shapes = (
{
closed = 1;
nodes = (
(445,0,l),
(445,34,l),
(99,34,l),
(103,20,l),
(288,249,ls),
(379,361,o),
(426,428,o),
(426,524,cs),
(426,652,o),
(357,710,o),
(242,710,cs),
(182,710,o),
(115,693,o),
(73,672,c),
(83,640,l),
(128,661,o),
(191,676,o),
(240,676,cs),
(333,676,o),
(390,637,o),
(390,524,cs),
(390,432,o),
(342,372,o),
(260,270,cs),
(67,31,l),
(67,0,l)
);
}
);
width = 520;
},
{
background = {
shapes = (
{
closed = 1;
nodes = (
(463,0,l),
(463,122,l),
(161,122,l),
(176,71,l),
(308,218,ls),
(414,337,o),
(458,409,o),
(458,502,cs),
(458,644,o),
(375,712,o),
(241,712,cs),
(171,712,o),
(92,691,o),
(51,672,c),
(72,564,l),
(106,576,o),
(158,590,o),
(207,590,cs),
(263,590,o),
(300,562,o),
(300,502,cs),
(300,431,o),
(257,369,o),
(175,269,cs),
(49,115,l),
(49,0,l)
);
}
);
};
layerId = "A7032D4A-7BCC-4736-93C1-F342117E585F";
shapes = (
{
closed = 1;
nodes = (
(463,0,l),
(463,122,l),
(161,122,l),
(176,71,l),
(308,218,ls),
(414,337,o),
(458,409,o),
(458,502,cs),
(458,644,o),
(375,712,o),
(241,712,cs),
(171,712,o),
(92,691,o),
(51,672,c),
(72,563,l),
(106,575,o),
(158,589,o),
(207,589,cs),
(263,589,o),
(300,562,o),
(300,502,cs),
(300,431,o),
(257,369,o),
(175,269,cs),
(49,115,l),
(49,0,l)
);
}
);
width = 520;
}
);
unicode = 50;
userData = {
"21 03 2011 [FL]:
Wt1
01. correzione spessore H

23 05 2011 [OA]:
Wt0
01.  spessori curveH 32

Wt1
01. spessori curveH 120
03. spessore astaH 120  com.typemytype.robofont.guides" = (
{
angle = 0;
isGlobal = 0;
magnetic = 5;
x = 0;
y = 660;
}
);
};
},
{
glyphname = three;
lastChange = "2022-04-14 18:46:40 +0000";
layers = (
{
background = {
shapes = (
{
closed = 1;
nodes = (
(377,-10,o),
(443,61,o),
(443,191,cs),
(443,315,o),
(378,359,o),
(310,375,c),
(310,367,l),
(365,386,o),
(426,444,o),
(426,538,cs),
(426,648,o),
(371,710,o),
(244,710,cs),
(183,710,o),
(108,693,o),
(71,679,c),
(81,646,l),
(123,661,o),
(191,676,o),
(245,676,cs),
(346,676,o),
(389,630,o),
(389,539,cs),
(389,437,o),
(307,386,o),
(245,386,cs),
(177,386,l),
(177,352,l),
(245,352,ls),
(338,352,o),
(405,306,o),
(405,188,cs),
(405,86,o),
(354,24,o),
(252,24,cs),
(187,24,o),
(109,38,o),
(68,52,c),
(59,18,l),
(102,5,o),
(184,-10,o),
(253,-10,cs)
);
}
);
};
layerId = "FCCC260D-0C10-491F-B419-2EABB30545AF";
shapes = (
{
closed = 1;
nodes = (
(373,-10,o),
(440,65,o),
(440,186,cs),
(440,295,o),
(376,357,o),
(303,374,c),
(303,366,l),
(367,388,o),
(423,438,o),
(423,541,cs),
(423,641,o),
(366,710,o),
(240,710,cs),
(177,710,o),
(105,691,o),
(68,675,c),
(78,642,l),
(120,659,o),
(181,676,o),
(240,676,cs),
(338,676,o),
(387,629,o),
(387,541,cs),
(387,444,o),
(327,386,o),
(228,386,cs),
(174,386,l),
(174,352,l),
(228,352,ls),
(344,352,o),
(404,288,o),
(404,186,cs),
(404,79,o),
(349,24,o),
(240,24,cs),
(175,24,o),
(121,35,o),
(66,57,c),
(56,23,l),
(112,2,o),
(168,-10,o),
(240,-10,cs)
);
}
);
width = 520;
},
{
background = {
shapes = (
{
closed = 1;
nodes = (
(379,-12,o),
(462,65,o),
(462,198,cs),
(462,292,o),
(407,361,o),
(286,383,c),
(286,351,l),
(394,365,o),
(452,432,o),
(452,522,cs),
(452,645,o),
(374,712,o),
(226,712,cs),
(166,712,o),
(92,695,o),
(50,677,c),
(71,566,l),
(111,579,o),
(158,591,o),
(202,591,cs),
(261,591,o),
(295,557,o),
(295,505,cs),
(295,452,o),
(269,416,o),
(202,416,cs),
(164,416,l),
(164,302,l),
(202,302,ls),
(273,302,o),
(307,266,o),
(307,207,cs),
(307,149,o),
(278,110,o),
(202,110,cs),
(161,110,o),
(109,121,o),
(65,137,c),
(43,26,l),
(90,5,o),
(164,-12,o),
(239,-12,cs)
);
}
);
};
layerId = "A7032D4A-7BCC-4736-93C1-F342117E585F";
shapes = (
{
closed = 1;
nodes = (
(379,-12,o),
(462,65,o),
(462,198,cs),
(462,292,o),
(407,361,o),
(286,383,c),
(286,351,l),
(394,365,o),
(452,432,o),
(452,522,cs),
(452,645,o),
(374,712,o),
(226,712,cs),
(166,712,o),
(92,695,o),
(50,677,c),
(71,565,l),
(111,578,o),
(158,590,o),
(202,590,cs),
(261,590,o),
(295,557,o),
(295,505,cs),
(295,452,o),
(269,416,o),
(202,416,cs),
(164,416,l),
(164,302,l),
(202,302,ls),
(273,302,o),
(304,266,o),
(304,207,cs),
(304,149,o),
(278,111,o),
(202,111,cs),
(161,111,o),
(109,122,o),
(65,138,c),
(43,26,l),
(90,5,o),
(164,-12,o),
(239,-12,cs)
);
}
);
width = 520;
}
);
unicode = 51;
userData = {
"21 03 2011 [FL]:
Wt1
01. correzione spessore H  com.typemytype.robofont.guides" = (
{
angle = 0;
isGlobal = 0;
magnetic = 5;
x = 0;
y = 660;
}
);
};
},
{
glyphname = four;
lastChange = "2022-04-14 18:46:40 +0000";
layers = (
{
background = {
shapes = (
{
closed = 1;
nodes = (
(391,0,l),
(391,162,l),
(480,162,l),
(480,196,l),
(391,196,l),
(391,420,l),
(356,420,l),
(355,196,l),
(91,196,l),
(274,700,l),
(235,700,l),
(51,192,l),
(51,162,l),
(355,162,l),
(355,0,l)
);
}
);
};
layerId = "FCCC260D-0C10-491F-B419-2EABB30545AF";
shapes = (
{
closed = 1;
nodes = (
(391,0,l),
(391,162,l),
(480,162,l),
(480,196,l),
(391,196,l),
(391,420,l),
(356,420,l),
(355,196,l),
(89,196,l),
(272,700,l),
(235,700,l),
(51,192,l),
(51,162,l),
(355,162,l),
(355,0,l)
);
}
);
width = 520;
},
{
background = {
shapes = (
{
closed = 1;
nodes = (
(449,0,l),
(449,123,l),
(495,123,l),
(495,244,l),
(449,244,l),
(449,417,l),
(305,415,l),
(294,244,l),
(179,244,l),
(338,700,l),
(173,700,l),
(26,229,l),
(26,123,l),
(294,123,l),
(294,0,l)
);
}
);
};
layerId = "A7032D4A-7BCC-4736-93C1-F342117E585F";
shapes = (
{
closed = 1;
nodes = (
(449,0,l),
(449,122,l),
(496,122,l),
(496,244,l),
(449,244,l),
(449,417,l),
(302,415,l),
(291,244,l),
(180,244,l),
(339,700,l),
(174,700,l),
(27,229,l),
(27,122,l),
(291,122,l),
(291,0,l)
);
}
);
width = 520;
}
);
unicode = 52;
userData = {
"23 05 2011 [FL]
Wt1
1. spostamento V stems 138
2. spostamento H stems 120  com.typemytype.robofont.guides" = (
{
angle = 0;
isGlobal = 0;
magnetic = 5;
x = 0;
y = 660;
}
);
};
},
{
glyphname = five;
lastChange = "2022-04-14 18:46:40 +0000";
layers = (
{
background = {
shapes = (
{
closed = 1;
nodes = (
(369,-10,o),
(452,58,o),
(452,221,cs),
(452,375,o),
(376,442,o),
(268,442,cs),
(202,442,o),
(143,416,o),
(110,388,c),
(118,377,l),
(133,680,l),
(116,666,l),
(427,666,l),
(427,700,l),
(99,700,l),
(82,360,l),
(115,356,l),
(151,384,o),
(209,408,o),
(268,408,cs),
(350,408,o),
(415,356,o),
(415,221,cs),
(415,80,o),
(345,24,o),
(245,24,cs),
(190,24,o),
(128,41,o),
(83,60,c),
(73,26,l),
(123,5,o),
(186,-10,o),
(245,-10,cs)
);
}
);
};
layerId = "FCCC260D-0C10-491F-B419-2EABB30545AF";
shapes = (
{
closed = 1;
nodes = (
(369,-10,o),
(452,58,o),
(452,221,cs),
(452,375,o),
(376,442,o),
(268,442,cs),
(202,442,o),
(143,416,o),
(110,388,c),
(118,377,l),
(133,680,l),
(116,666,l),
(427,666,l),
(427,700,l),
(99,700,l),
(82,360,l),
(115,356,l),
(151,384,o),
(209,408,o),
(268,408,cs),
(350,408,o),
(417,360,o),
(417,221,cs),
(417,76,o),
(345,24,o),
(245,24,cs),
(190,24,o),
(128,41,o),
(83,60,c),
(73,26,l),
(123,5,o),
(186,-10,o),
(245,-10,cs)
);
}
);
width = 520;
},
{
background = {
shapes = (
{
closed = 1;
nodes = (
(394,-12,o),
(479,70,o),
(479,225,cs),
(479,369,o),
(409,452,o),
(283,452,cs),
(231,452,o),
(178,421,o),
(154,404,c),
(181,353,l),
(195,645,l),
(122,578,l),
(454,578,l),
(454,700,l),
(71,700,l),
(56,308,l),
(151,294,l),
(175,313,o),
(201,327,o),
(238,327,cs),
(300,327,o),
(326,285,o),
(326,223,cs),
(326,154,o),
(293,107,o),
(220,107,cs),
(170,107,o),
(129,120,o),
(67,141,c),
(45,30,l),
(119,2,o),
(178,-12,o),
(261,-12,cs)
);
}
);
};
layerId = "A7032D4A-7BCC-4736-93C1-F342117E585F";
shapes = (
{
closed = 1;
nodes = (
(394,-12,o),
(479,70,o),
(479,225,cs),
(479,369,o),
(409,452,o),
(283,452,cs),
(231,452,o),
(178,421,o),
(154,404,c),
(181,353,l),
(195,645,l),
(122,578,l),
(454,578,l),
(454,700,l),
(71,700,l),
(56,308,l),
(151,294,l),
(175,313,o),
(201,327,o),
(238,327,cs),
(300,327,o),
(321,285,o),
(321,223,cs),
(321,154,o),
(293,111,o),
(220,111,cs),
(170,111,o),
(129,124,o),
(67,145,c),
(45,30,l),
(119,2,o),
(178,-12,o),
(261,-12,cs)
);
}
);
width = 520;
}
);
unicode = 53;
userData = {
"21 03 2011 [FL]:
Wt1
01. correzione spessore H

23 05 2011 [FL]
Wt1
1. spostamento H stems 120  com.typemytype.robofont.guides" = (
{
angle = 0;
isGlobal = 0;
magnetic = 5;
x = 0;
y = 660;
}
);
};
},
{
glyphname = six;
lastChange = "2022-04-14 18:46:40 +0000";
layers = (
{
background = {
shapes = (
{
closed = 1;
nodes = (
(396,-10,o),
(470,78,o),
(470,217,cs),
(470,349,o),
(399,426,o),
(276,426,cs),
(197,426,o),
(122,378,o),
(90,339,c),
(91,300,l),
(133,351,o),
(204,392,o),
(273,392,cs),
(368,392,o),
(432,334,o),
(432,216,cs),
(432,97,o),
(374,24,o),
(279,24,cs),
(151,24,o),
(100,139,o),
(100,314,cs),
(100,563,o),
(162,676,o),
(308,676,cs),
(354,676,o),
(403,665,o),
(440,649,c),
(449,681,l),
(409,698,o),
(355,710,o),
(306,710,cs),
(149,710,o),
(62,597,o),
(62,318,cs),
(62,112,o),
(131,-10,o),
(279,-10,cs)
);
}
);
};
layerId = "FCCC260D-0C10-491F-B419-2EABB30545AF";
shapes = (
{
closed = 1;
nodes = (
(396,-10,o),
(470,78,o),
(470,217,cs),
(470,349,o),
(399,426,o),
(276,426,cs),
(197,426,o),
(122,378,o),
(90,339,c),
(91,300,l),
(133,351,o),
(204,392,o),
(273,392,cs),
(368,392,o),
(434,338,o),
(434,216,cs),
(434,97,o),
(374,24,o),
(279,24,cs),
(151,24,o),
(98,139,o),
(98,314,cs),
(98,563,o),
(162,676,o),
(308,676,cs),
(354,676,o),
(403,665,o),
(440,649,c),
(449,681,l),
(409,698,o),
(355,710,o),
(306,710,cs),
(149,710,o),
(62,597,o),
(62,318,cs),
(62,112,o),
(131,-10,o),
(279,-10,cs)
);
}
);
width = 520;
},
{
background = {
shapes = (
{
closed = 1;
nodes = (
(408,-12,o),
(490,77,o),
(490,226,cs),
(490,376,o),
(420,442,o),
(304,442,cs),
(250,442,o),
(188,417,o),
(134,380,c),
(150,287,l),
(187,309,o),
(234,330,o),
(273,330,cs),
(321,330,o),
(348,298,o),
(348,227,cs),
(348,159,o),
(327,107,o),
(271,107,cs),
(204,107,o),
(185,190,o),
(185,354,cs),
(185,528,o),
(227,593,o),
(324,593,cs),
(369,593,o),
(407,580,o),
(443,562,c),
(482,674,l),
(436,696,o),
(385,712,o),
(319,712,cs),
(138,712,o),
(35,585,o),
(35,354,cs),
(35,95,o),
(117,-12,o),
(271,-12,cs)
);
}
);
};
layerId = "A7032D4A-7BCC-4736-93C1-F342117E585F";
shapes = (
{
closed = 1;
nodes = (
(409,-12,o),
(492,77,o),
(492,226,cs),
(492,376,o),
(421,442,o),
(304,442,cs),
(250,442,o),
(188,417,o),
(134,380,c),
(150,287,l),
(187,309,o),
(234,330,o),
(273,330,cs),
(320,330,o),
(341,298,o),
(341,227,cs),
(341,159,o),
(322,107,o),
(267,107,cs),
(199,107,o),
(190,190,o),
(190,354,cs),
(190,528,o),
(226,590,o),
(324,590,cs),
(369,590,o),
(407,577,o),
(443,559,c),
(482,674,l),
(436,696,o),
(385,712,o),
(319,712,cs),
(136,712,o),
(32,585,o),
(32,354,cs),
(32,95,o),
(115,-12,o),
(271,-12,cs)
);
}
);
width = 520;
}
);
unicode = 54;
},
{
glyphname = seven;
lastChange = "2022-04-14 18:46:40 +0000";
layers = (
{
background = {
shapes = (
{
closed = 1;
nodes = (
(454,652,l),
(454,700,l),
(64,700,l),
(64,666,l),
(417,666,l),
(417,658,l),
(152,0,l),
(193,0,l)
);
}
);
};
layerId = "FCCC260D-0C10-491F-B419-2EABB30545AF";
shapes = (
{
closed = 1;
nodes = (
(446,652,l),
(446,700,l),
(56,700,l),
(56,666,l),
(411,666,l),
(411,658,l),
(145,0,l),
(185,0,l)
);
}
);
width = 520;
},
{
background = {
shapes = (
{
closed = 1;
nodes = (
(466,564,l),
(466,700,l),
(46,700,l),
(46,570,l),
(308,570,l),
(308,558,l),
(92,0,l),
(263,0,l)
);
}
);
};
layerId = "A7032D4A-7BCC-4736-93C1-F342117E585F";
shapes = (
{
closed = 1;
nodes = (
(466,564,l),
(466,700,l),
(46,700,l),
(46,578,l),
(308,578,l),
(308,566,l),
(100,0,l),
(263,0,l)
);
}
);
width = 520;
}
);
unicode = 55;
},
{
glyphname = eight;
lastChange = "2022-04-14 18:46:40 +0000";
layers = (
{
background = {
shapes = (
{
closed = 1;
nodes = (
(364,-10,o),
(464,49,o),
(464,179,cs),
(464,280,o),
(407,345,o),
(328,371,c),
(327,363,l),
(407,389,o),
(454,446,o),
(454,534,cs),
(454,639,o),
(377,710,o),
(260,710,cs),
(143,710,o),
(66,639,o),
(66,534,cs),
(66,446,o),
(113,389,o),
(193,363,c),
(192,371,l),
(113,345,o),
(56,280,o),
(56,179,cs),
(56,49,o),
(156,-10,o),
(260,-10,cs)
);
},
{
closed = 1;
nodes = (
(173,24,o),
(94,74,o),
(94,179,cs),
(94,280,o),
(160,349,o),
(248,350,c),
(272,350,l),
(360,349,o),
(426,280,o),
(426,179,cs),
(426,74,o),
(347,24,o),
(260,24,cs)
);
},
{
closed = 1;
nodes = (
(160,388,o),
(104,458,o),
(104,533,cs),
(104,623,o),
(166,676,o),
(260,676,cs),
(354,676,o),
(416,623,o),
(416,533,cs),
(416,458,o),
(360,388,o),
(272,383,c),
(248,383,l)
);
}
);
};
layerId = "FCCC260D-0C10-491F-B419-2EABB30545AF";
shapes = (
{
closed = 1;
nodes = (
(364,-10,o),
(464,49,o),
(464,179,cs),
(464,280,o),
(407,345,o),
(328,371,c),
(327,363,l),
(407,389,o),
(454,446,o),
(454,534,cs),
(454,639,o),
(377,710,o),
(260,710,cs),
(143,710,o),
(66,639,o),
(66,534,cs),
(66,446,o),
(113,389,o),
(193,363,c),
(192,371,l),
(113,345,o),
(56,280,o),
(56,179,cs),
(56,49,o),
(156,-10,o),
(260,-10,cs)
);
},
{
closed = 1;
nodes = (
(173,24,o),
(92,74,o),
(92,179,cs),
(92,280,o),
(160,349,o),
(248,350,c),
(272,350,l),
(360,349,o),
(428,280,o),
(428,179,cs),
(428,74,o),
(347,24,o),
(260,24,cs)
);
},
{
closed = 1;
nodes = (
(160,388,o),
(102,451,o),
(102,533,cs),
(102,623,o),
(166,676,o),
(260,676,cs),
(354,676,o),
(418,623,o),
(418,533,cs),
(418,458,o),
(360,388,o),
(272,383,c),
(248,383,l)
);
}
);
width = 520;
},
{
background = {
shapes = (
{
closed = 1;
nodes = (
(403,-12,o),
(496,66,o),
(496,187,cs),
(496,285,o),
(451,345,o),
(348,385,c),
(345,340,l),
(448,375,o),
(486,424,o),
(486,525,cs),
(486,639,o),
(398,712,o),
(260,712,cs),
(122,712,o),
(34,639,o),
(34,525,cs),
(34,424,o),
(72,375,o),
(175,340,c),
(172,385,l),
(69,345,o),
(24,285,o),
(24,187,cs),
(24,66,o),
(117,-12,o),
(260,-12,cs)
);
},
{
closed = 1;
nodes = (
(211,107,o),
(177,149,o),
(177,210,cs),
(177,263,o),
(209,307,o),
(258,308,c),
(262,308,l),
(311,307,o),
(343,263,o),
(343,210,cs),
(343,149,o),
(309,107,o),
(260,107,cs)
);
},
{
closed = 1;
nodes = (
(215,412,o),
(185,458,o),
(185,508,cs),
(185,560,o),
(214,594,o),
(260,594,cs),
(306,594,o),
(335,560,o),
(335,508,cs),
(335,458,o),
(305,412,o),
(262,410,c),
(258,410,l)
);
}
);
};
layerId = "A7032D4A-7BCC-4736-93C1-F342117E585F";
shapes = (
{
closed = 1;
nodes = (
(403,-12,o),
(496,66,o),
(496,187,cs),
(496,285,o),
(451,345,o),
(348,385,c),
(345,340,l),
(448,375,o),
(486,434,o),
(486,521,cs),
(486,635,o),
(395,712,o),
(260,712,cs),
(125,712,o),
(34,635,o),
(34,521,cs),
(34,434,o),
(72,375,o),
(175,340,c),
(172,385,l),
(69,345,o),
(24,285,o),
(24,187,cs),
(24,66,o),
(117,-12,o),
(260,-12,cs)
);
},
{
closed = 1;
nodes = (
(211,104,o),
(177,139,o),
(177,208,cs),
(177,265,o),
(209,305,o),
(258,306,c),
(262,306,l),
(311,305,o),
(343,265,o),
(343,208,cs),
(343,139,o),
(309,104,o),
(260,104,cs)
);
},
{
closed = 1;
nodes = (
(215,414,o),
(185,448,o),
(185,506,cs),
(185,560,o),
(214,596,o),
(260,596,cs),
(306,596,o),
(335,560,o),
(335,506,cs),
(335,448,o),
(305,414,o),
(262,412,c),
(258,412,l)
);
}
);
width = 520;
},
{
associatedMasterId = "A7032D4A-7BCC-4736-93C1-F342117E585F";
background = {
shapes = (
{
closed = 1;
nodes = (
(373,-12,o),
(486,37,o),
(486,182,cs),
(486,290,o),
(442,335,o),
(348,374,c),
(345,329,l),
(443,365,o),
(476,417,o),
(476,509,cs),
(476,636,o),
(377,692,o),
(250,692,cs),
(123,692,o),
(24,636,o),
(24,509,cs),
(24,417,o),
(57,365,o),
(155,329,c),
(152,374,l),
(58,335,o),
(14,290,o),
(14,182,cs),
(14,37,o),
(127,-12,o),
(250,-12,cs)
);
},
{
closed = 1;
nodes = (
(199,110,o),
(169,149,o),
(169,205,cs),
(169,247,o),
(191,279,o),
(228,294,c),
(272,294,l),
(309,279,o),
(331,247,o),
(331,205,cs),
(331,149,o),
(301,110,o),
(250,110,cs)
);
},
{
closed = 1;
nodes = (
(198,418,o),
(177,455,o),
(177,492,cs),
(177,538,o),
(200,571,o),
(250,571,cs),
(300,571,o),
(323,538,o),
(323,492,cs),
(323,455,o),
(302,418,o),
(272,402,c),
(228,402,l)
);
}
);
};
layerId = "52C26023-E3B0-4FFD-AEE2-AF4C6EA89D81";
name = "17 Dec 21, 11:09";
shapes = (
{
closed = 1;
nodes = (
(424,-12,o),
(502,78,o),
(502,204,cs),
(502,301,o),
(450,368,o),
(302,413,cs),
(222,437,o),
(193,465,o),
(193,517,cs),
(193,563,o),
(222,590,o),
(261,590,cs),
(301,590,o),
(335,569,o),
(335,517,c),
(335,467,o),
(306,442,o),
(251,399,c),
(343,342,l),
(410,390,o),
(476,405,o),
(476,511,c),
(476,655,o),
(379,712,o),
(261,712,cs),
(135,712,o),
(34,649,o),
(34,508,cs),
(34,402,o),
(102,331,o),
(227,290,cs),
(315,261,o),
(343,227,o),
(343,192,cs),
(343,141,o),
(313,110,o),
(261,110,cs),
(209,110,o),
(169,137,o),
(169,191,c),
(169,256,o),
(228,299,o),
(296,316,c),
(190,379,l),
(99,360,o),
(14,292,o),
(14,187,c),
(14,45,o),
(113,-12,o),
(275,-12,cs)
);
}
);
width = 500;
}
);
unicode = 56;
userData = {
"21 03 2011 [FL]:
Wt1
01. correzione spessore H  com.typemytype.robofont.guides" = (
{
angle = 0;
isGlobal = 0;
magnetic = 5;
x = 0;
y = 660;
},
{
angle = 90;
isGlobal = 0;
magnetic = 5;
x = 273;
y = 0;
}
);
};
},
{
glyphname = nine;
lastChange = "2022-04-14 18:46:40 +0000";
layers = (
{
background = {
shapes = (
{
closed = 1;
nodes = (
(220,0,l),
(380,165,o),
(458,317,o),
(458,464,cs),
(458,621,o),
(371,710,o),
(248,710,cs),
(127,710,o),
(46,620,o),
(46,490,cs),
(46,354,o),
(126,274,o),
(243,274,cs),
(313,274,o),
(380,308,o),
(419,346,c),
(419,386,l),
(379,346,o),
(319,308,o),
(245,308,cs),
(149,308,o),
(84,379,o),
(84,490,cs),
(84,600,o),
(148,676,o),
(248,676,cs),
(346,676,o),
(420,599,o),
(420,464,cs),
(420,322,o),
(344,183,o),
(168,0,c)
);
}
);
};
layerId = "FCCC260D-0C10-491F-B419-2EABB30545AF";
shapes = (
{
closed = 1;
nodes = (
(220,0,l),
(380,165,o),
(458,317,o),
(458,464,cs),
(458,621,o),
(371,710,o),
(248,710,cs),
(127,710,o),
(46,620,o),
(46,490,cs),
(46,354,o),
(126,274,o),
(243,274,cs),
(313,274,o),
(380,308,o),
(419,346,c),
(419,386,l),
(379,346,o),
(319,308,o),
(245,308,cs),
(149,308,o),
(82,379,o),
(82,490,cs),
(82,600,o),
(148,676,o),
(248,676,cs),
(346,676,o),
(422,599,o),
(422,464,cs),
(422,322,o),
(344,183,o),
(168,0,c)
);
}
);
width = 520;
},
{
background = {
shapes = (
{
closed = 1;
nodes = (
(281,0,l),
(416,155,o),
(490,299,o),
(490,454,cs),
(490,628,o),
(390,712,o),
(253,712,cs),
(131,712,o),
(26,624,o),
(26,473,cs),
(26,334,o),
(112,251,o),
(220,251,cs),
(296,251,o),
(359,313,o),
(376,357,c),
(360,411,l),
(340,390,o),
(292,369,o),
(253,369,cs),
(198,369,o),
(172,422,o),
(172,477,cs),
(172,542,o),
(198,594,o),
(253,594,cs),
(318,594,o),
(338,532,o),
(338,465,cs),
(338,312,o),
(258,176,o),
(103,0,c)
);
}
);
};
layerId = "A7032D4A-7BCC-4736-93C1-F342117E585F";
shapes = (
{
closed = 1;
nodes = (
(281,0,l),
(416,155,o),
(490,299,o),
(490,454,cs),
(490,628,o),
(390,712,o),
(253,712,cs),
(131,712,o),
(26,624,o),
(26,473,cs),
(26,334,o),
(112,251,o),
(220,251,cs),
(296,251,o),
(359,313,o),
(376,357,c),
(360,411,l),
(340,390,o),
(292,369,o),
(253,369,cs),
(198,369,o),
(176,422,o),
(176,477,cs),
(176,542,o),
(198,590,o),
(253,590,cs),
(318,590,o),
(337,532,o),
(337,465,cs),
(337,312,o),
(258,176,o),
(103,0,c)
);
}
);
width = 520;
}
);
unicode = 57;
},
{
color = 11;
glyphname = zero.slash;
lastChange = "2022-04-14 18:46:40 +0000";
layers = (
{
background = {
shapes = (
{
closed = 1;
nodes = (
(141,-65,l),
(185,38,l),
(150,38,l),
(106,-65,l)
);
},
{
closed = 1;
nodes = (
(397,646,l),
(434,731,l),
(398,731,l),
(361,646,l)
);
},
{
pos = (164,310);
ref = period;
},
{
ref = zero;
}
);
};
layerId = "FCCC260D-0C10-491F-B419-2EABB30545AF";
shapes = (
{
closed = 1;
nodes = (
(141,-65,l),
(185,38,l),
(150,38,l),
(106,-65,l)
);
},
{
closed = 1;
nodes = (
(397,646,l),
(434,731,l),
(398,731,l),
(361,646,l)
);
},
{
alignment = -1;
pos = (175,310);
ref = period;
},
{
alignment = -1;
ref = zero;
}
);
width = 520;
},
{
background = {
shapes = (
{
closed = 1;
nodes = (
(144,-65,l),
(191,41,l),
(141,41,l),
(94,-65,l)
);
},
{
closed = 1;
nodes = (
(412,625,l),
(459,731,l),
(407,731,l),
(361,625,l)
);
},
{
pos = (201,310);
ref = period;
scale = (0.4635,0.5055);
},
{
ref = zero;
}
);
};
layerId = "A7032D4A-7BCC-4736-93C1-F342117E585F";
shapes = (
{
closed = 1;
nodes = (
(144,-65,l),
(191,41,l),
(141,41,l),
(94,-65,l)
);
},
{
closed = 1;
nodes = (
(412,625,l),
(459,731,l),
(407,731,l),
(361,625,l)
);
},
{
alignment = -1;
pos = (194.511,310);
ref = period;
scale = (0.4635,0.5055);
},
{
alignment = -1;
ref = zero;
}
);
width = 520;
}
);
},
{
glyphname = zero.lf;
lastChange = "2022-04-14 18:46:40 +0000";
layers = (
{
background = {
shapes = (
{
closed = 1;
nodes = (
(388,-10,o),
(474,77,o),
(474,318,cs),
(474,583,o),
(392,670,o),
(262,670,cs),
(133,670,o),
(50,582,o),
(50,318,cs),
(50,76,o),
(136,-10,o),
(262,-10,cs)
);
},
{
closed = 1;
nodes = (
(158,24,o),
(88,96,o),
(88,317,cs),
(88,555,o),
(151,636,o),
(262,636,cs),
(374,636,o),
(436,553,o),
(436,318,cs),
(436,97,o),
(366,24,o),
(262,24,cs)
);
}
);
};
layerId = "FCCC260D-0C10-491F-B419-2EABB30545AF";
shapes = (
{
closed = 1;
nodes = (
(393,-10,o),
(479,77,o),
(479,318,cs),
(479,583,o),
(397,670,o),
(267,670,cs),
(138,670,o),
(55,582,o),
(55,318,cs),
(55,76,o),
(141,-10,o),
(267,-10,cs)
);
},
{
closed = 1;
nodes = (
(163,24,o),
(91,96,o),
(91,317,cs),
(91,555,o),
(156,636,o),
(267,636,cs),
(379,636,o),
(443,553,o),
(443,318,cs),
(443,97,o),
(371,24,o),
(267,24,cs)
);
}
);
width = 534;
},
{
background = {
shapes = (
{
closed = 1;
nodes = (
(429,-12,o),
(504,93,o),
(504,325,cs),
(504,564,o),
(431,672,o),
(267,672,cs),
(106,672,o),
(30,564,o),
(30,325,cs),
(30,93,o),
(105,-12,o),
(268,-12,cs)
);
},
{
closed = 1;
nodes = (
(213,109,o),
(187,165,o),
(187,325,cs),
(187,492,o),
(211,551,o),
(268,551,cs),
(324,551,o),
(347,491,o),
(347,325,cs),
(347,165,o),
(322,109,o),
(268,109,cs)
);
}
);
};
layerId = "A7032D4A-7BCC-4736-93C1-F342117E585F";
shapes = (
{
closed = 1;
nodes = (
(451,-12,o),
(526,93,o),
(526,325,cs),
(526,564,o),
(453,672,o),
(289,672,cs),
(128,672,o),
(52,564,o),
(52,325,cs),
(52,93,o),
(127,-12,o),
(290,-12,cs)
);
},
{
closed = 1;
nodes = (
(235,110,o),
(210,165,o),
(210,325,cs),
(210,492,o),
(233,550,o),
(290,550,cs),
(346,550,o),
(368,491,o),
(368,325,cs),
(368,165,o),
(344,110,o),
(290,110,cs)
);
}
);
width = 578;
}
);
},
{
glyphname = one.lf;
lastChange = "2022-04-14 18:46:40 +0000";
layers = (
{
background = {
shapes = (
{
closed = 1;
nodes = (
(276,0,l),
(276,660,l),
(240,660,l),
(75,540,l),
(92,512,l),
(240,621,l),
(240,0,l)
);
}
);
};
layerId = "FCCC260D-0C10-491F-B419-2EABB30545AF";
shapes = (
{
closed = 1;
nodes = (
(213,0,l),
(213,660,l),
(177,660,l),
(12,540,l),
(30,509,l),
(190,626,l),
(177,633,l),
(177,0,l)
);
}
);
width = 297;
},
{
background = {
shapes = (
{
closed = 1;
nodes = (
(351,0,l),
(351,672,l),
(226,672,l),
(27,551,l),
(76,443,l),
(195,512,l),
(195,0,l)
);
}
);
};
layerId = "A7032D4A-7BCC-4736-93C1-F342117E585F";
shapes = (
{
closed = 1;
nodes = (
(332,0,l),
(332,672,l),
(207,672,l),
(8,551,l),
(60,434,l),
(236,534,l),
(176,569,l),
(176,0,l)
);
}
);
width = 402;
}
);
},
{
glyphname = two.lf;
lastChange = "2022-04-14 18:46:40 +0000";
layers = (
{
background = {
shapes = (
{
closed = 1;
nodes = (
(452,0,l),
(452,32,l),
(102,32,l),
(107,20,l),
(310,255,ls),
(388,345,o),
(433,417,o),
(433,500,cs),
(433,617,o),
(362,670,o),
(247,670,cs),
(186,670,o),
(119,653,o),
(76,632,c),
(86,600,l),
(132,621,o),
(195,636,o),
(244,636,cs),
(339,636,o),
(396,594,o),
(396,499,cs),
(396,422,o),
(354,363,o),
(276,272,cs),
(70,31,l),
(70,0,l)
);
}
);
};
layerId = "FCCC260D-0C10-491F-B419-2EABB30545AF";
shapes = (
{
closed = 1;
nodes = (
(416,0,l),
(416,34,l),
(66,34,l),
(71,20,l),
(274,255,ls),
(352,345,o),
(397,417,o),
(397,500,cs),
(397,617,o),
(326,670,o),
(211,670,cs),
(150,670,o),
(83,653,o),
(40,632,c),
(51,599,l),
(97,620,o),
(159,636,o),
(208,636,cs),
(303,636,o),
(361,599,o),
(361,499,cs),
(361,422,o),
(318,360,o),
(240,269,cs),
(34,31,l),
(34,0,l)
);
}
);
width = 453;
},
{
background = {
shapes = (
{
closed = 1;
nodes = (
(454,0,l),
(454,117,l),
(153,117,l),
(168,71,l),
(325,233,ls),
(412,323,o),
(449,381,o),
(449,483,cs),
(449,606,o),
(367,672,o),
(232,672,cs),
(162,672,o),
(83,651,o),
(42,633,c),
(64,525,l),
(98,537,o),
(151,550,o),
(199,550,cs),
(255,550,o),
(292,527,o),
(292,467,cs),
(292,405,o),
(254,354,o),
(171,261,cs),
(41,115,l),
(41,0,l)
);
}
);
};
layerId = "A7032D4A-7BCC-4736-93C1-F342117E585F";
shapes = (
{
closed = 1;
nodes = (
(458,0,l),
(458,117,l),
(157,117,l),
(172,71,l),
(329,233,ls),
(416,323,o),
(453,381,o),
(453,483,cs),
(453,606,o),
(371,672,o),
(236,672,cs),
(166,672,o),
(87,651,o),
(46,633,c),
(68,525,l),
(102,537,o),
(155,550,o),
(203,550,cs),
(259,550,o),
(296,527,o),
(296,467,cs),
(296,405,o),
(258,354,o),
(175,261,cs),
(45,115,l),
(45,0,l)
);
}
);
width = 508;
}
);
},
{
glyphname = three.lf;
lastChange = "2022-04-14 18:46:40 +0000";
layers = (
{
background = {
shapes = (
{
closed = 1;
nodes = (
(357,-10,o),
(423,56,o),
(423,182,cs),
(423,297,o),
(363,335,o),
(299,353,c),
(330,365,o),
(406,402,o),
(406,508,cs),
(406,613,o),
(351,670,o),
(224,670,cs),
(163,670,o),
(88,654,o),
(51,640,c),
(61,606,l),
(97,620,o),
(166,636,o),
(225,636,cs),
(326,636,o),
(369,595,o),
(369,509,cs),
(369,412,o),
(287,366,o),
(225,366,cs),
(137,366,l),
(137,332,l),
(225,332,ls),
(318,332,o),
(385,292,o),
(385,179,cs),
(385,81,o),
(334,24,o),
(232,24,cs),
(167,24,o),
(89,38,o),
(48,52,c),
(39,18,l),
(82,5,o),
(164,-10,o),
(233,-10,cs)
);
}
);
};
layerId = "FCCC260D-0C10-491F-B419-2EABB30545AF";
shapes = (
{
closed = 1;
nodes = (
(352,-10,o),
(418,56,o),
(418,182,cs),
(418,302,o),
(352,338,o),
(285,355,c),
(290,351,l),
(317,361,o),
(401,396,o),
(401,508,cs),
(401,613,o),
(346,670,o),
(219,670,cs),
(158,670,o),
(83,654,o),
(46,640,c),
(56,606,l),
(92,620,o),
(161,636,o),
(220,636,cs),
(321,636,o),
(365,595,o),
(365,509,cs),
(365,412,o),
(282,366,o),
(220,366,cs),
(132,366,l),
(132,332,l),
(220,332,ls),
(317,332,o),
(382,292,o),
(382,179,cs),
(382,77,o),
(333,24,o),
(227,24,cs),
(162,24,o),
(84,38,o),
(43,52,c),
(34,18,l),
(77,5,o),
(159,-10,o),
(228,-10,cs)
);
}
);
width = 471;
},
{
background = {
shapes = (
{
closed = 1;
nodes = (
(362,-12,o),
(445,58,o),
(445,197,cs),
(445,277,o),
(409,321,o),
(354,346,c),
(401,373,o),
(434,414,o),
(434,490,cs),
(434,612,o),
(353,672,o),
(199,672,cs),
(145,672,o),
(72,656,o),
(30,640,c),
(45,531,l),
(87,543,o),
(141,551,o),
(185,551,cs),
(244,551,o),
(277,524,o),
(277,475,cs),
(277,424,o),
(244,395,o),
(191,395,cs),
(121,395,l),
(121,281,l),
(193,281,ls),
(256,281,o),
(289,252,o),
(289,197,cs),
(289,142,o),
(258,110,o),
(197,110,cs),
(147,110,o),
(85,121,o),
(40,133,c),
(21,22,l),
(69,5,o),
(147,-12,o),
(220,-12,cs)
);
}
);
};
layerId = "A7032D4A-7BCC-4736-93C1-F342117E585F";
shapes = (
{
closed = 1;
nodes = (
(379,-12,o),
(462,58,o),
(462,197,cs),
(462,297,o),
(406,341,o),
(327,361,c),
(331,327,l),
(398,354,o),
(451,394,o),
(451,490,cs),
(451,612,o),
(370,672,o),
(216,672,cs),
(162,672,o),
(89,656,o),
(47,640,c),
(62,531,l),
(104,543,o),
(158,551,o),
(202,551,cs),
(261,551,o),
(294,524,o),
(294,475,cs),
(294,424,o),
(261,395,o),
(208,395,cs),
(138,395,l),
(138,281,l),
(210,281,ls),
(273,281,o),
(306,252,o),
(306,197,cs),
(306,142,o),
(275,111,o),
(214,111,cs),
(164,111,o),
(102,122,o),
(57,134,c),
(38,22,l),
(86,5,o),
(164,-12,o),
(237,-12,cs)
);
}
);
width = 514;
}
);
},
{
glyphname = four.lf;
lastChange = "2022-04-14 18:46:40 +0000";
layers = (
{
background = {
shapes = (
{
closed = 1;
nodes = (
(396,0,l),
(396,142,l),
(484,142,l),
(484,176,l),
(396,176,l),
(396,395,l),
(360,395,l),
(360,176,l),
(86,176,l),
(269,660,l),
(230,660,l),
(44,172,l),
(44,142,l),
(360,142,l),
(360,0,l)
);
}
);
};
layerId = "FCCC260D-0C10-491F-B419-2EABB30545AF";
shapes = (
{
closed = 1;
nodes = (
(380,0,l),
(380,142,l),
(468,142,l),
(468,176,l),
(380,176,l),
(380,395,l),
(344,395,l),
(344,176,l),
(68,176,l),
(251,660,l),
(214,660,l),
(28,172,l),
(28,142,l),
(344,142,l),
(344,0,l)
);
}
);
width = 487;
},
{
background = {
shapes = (
{
closed = 1;
nodes = (
(458,0,l),
(458,108,l),
(504,108,l),
(504,228,l),
(458,228,l),
(458,395,l),
(314,392,l),
(303,228,l),
(189,228,l),
(335,660,l),
(165,660,l),
(35,214,l),
(35,108,l),
(303,108,l),
(303,0,l)
);
}
);
};
layerId = "A7032D4A-7BCC-4736-93C1-F342117E585F";
shapes = (
{
closed = 1;
nodes = (
(469,0,l),
(469,106,l),
(515,106,l),
(515,228,l),
(469,228,l),
(469,395,l),
(325,392,l),
(314,228,l),
(200,228,l),
(346,660,l),
(176,660,l),
(46,214,l),
(46,106,l),
(314,106,l),
(314,0,l)
);
}
);
width = 548;
}
);
},
{
glyphname = five.lf;
lastChange = "2022-04-14 18:46:40 +0000";
layers = (
{
background = {
shapes = (
{
closed = 1;
nodes = (
(381,-10,o),
(458,68,o),
(458,215,cs),
(458,348,o),
(384,407,o),
(270,407,cs),
(214,407,o),
(150,384,o),
(113,359,c),
(129,624,l),
(432,624,l),
(432,660,l),
(95,660,l),
(78,325,l),
(111,321,l),
(148,347,o),
(214,373,o),
(268,373,cs),
(358,373,o),
(420,327,o),
(420,215,cs),
(420,90,o),
(357,24,o),
(254,24,cs),
(196,24,o),
(129,37,o),
(78,54,c),
(70,20,l),
(127,2,o),
(197,-10,o),
(255,-10,cs)
);
}
);
};
layerId = "FCCC260D-0C10-491F-B419-2EABB30545AF";
shapes = (
{
closed = 1;
nodes = (
(364,-10,o),
(441,68,o),
(441,215,cs),
(441,348,o),
(367,407,o),
(253,407,cs),
(193,407,o),
(125,381,o),
(89,354,c),
(95,343,l),
(113,642,l),
(96,626,l),
(415,626,l),
(415,660,l),
(78,660,l),
(61,325,l),
(94,321,l),
(131,347,o),
(197,373,o),
(251,373,cs),
(341,373,o),
(405,327,o),
(405,215,cs),
(405,90,o),
(340,24,o),
(237,24,cs),
(179,24,o),
(112,37,o),
(61,54,c),
(53,20,l),
(110,2,o),
(180,-10,o),
(238,-10,cs)
);
}
);
width = 488;
},
{
background = {
shapes = (
{
closed = 1;
nodes = (
(403,-12,o),
(488,64,o),
(488,215,cs),
(488,355,o),
(412,420,o),
(290,420,cs),
(254,420,o),
(213,406,o),
(185,392,c),
(194,537,l),
(462,537,l),
(462,660,l),
(73,660,l),
(58,278,l),
(156,264,l),
(186,282,o),
(223,295,o),
(254,295,cs),
(305,295,o),
(334,265,o),
(334,207,cs),
(334,142,o),
(302,107,o),
(243,107,cs),
(188,107,o),
(122,119,o),
(69,135,c),
(44,29,l),
(106,5,o),
(193,-12,o),
(267,-12,cs)
);
}
);
};
layerId = "A7032D4A-7BCC-4736-93C1-F342117E585F";
shapes = (
{
closed = 1;
nodes = (
(407,-12,o),
(492,64,o),
(492,215,cs),
(492,355,o),
(416,420,o),
(294,420,cs),
(243,420,o),
(182,392,o),
(162,375,c),
(185,323,l),
(202,606,l),
(129,537,l),
(466,537,l),
(466,660,l),
(77,660,l),
(62,278,l),
(160,264,l),
(190,282,o),
(227,295,o),
(258,295,cs),
(309,295,o),
(338,265,o),
(338,207,cs),
(338,142,o),
(306,107,o),
(247,107,cs),
(192,107,o),
(126,119,o),
(73,135,c),
(48,29,l),
(110,5,o),
(197,-12,o),
(271,-12,cs)
);
}
);
width = 538;
}
);
},
{
glyphname = six.lf;
lastChange = "2022-04-14 18:46:40 +0000";
layers = (
{
background = {
shapes = (
{
closed = 1;
nodes = (
(391,-10,o),
(459,74,o),
(459,207,cs),
(459,336,o),
(384,406,o),
(262,406,cs),
(187,406,o),
(102,361,o),
(80,326,c),
(81,285,l),
(123,333,o),
(198,372,o),
(261,372,cs),
(358,372,o),
(422,314,o),
(422,206,cs),
(422,91,o),
(367,24,o),
(269,24,cs),
(140,24,o),
(87,132,o),
(87,324,cs),
(87,537,o),
(152,636,o),
(278,636,cs),
(329,636,o),
(382,626,o),
(420,609,c),
(430,641,l),
(389,660,o),
(329,670,o),
(277,670,cs),
(138,670,o),
(50,571,o),
(50,328,cs),
(50,105,o),
(119,-10,o),
(269,-10,cs)
);
}
);
};
layerId = "FCCC260D-0C10-491F-B419-2EABB30545AF";
shapes = (
{
closed = 1;
nodes = (
(396,-10,o),
(464,74,o),
(464,207,cs),
(464,336,o),
(389,406,o),
(267,406,cs),
(192,406,o),
(107,361,o),
(85,326,c),
(86,285,l),
(128,333,o),
(203,372,o),
(266,372,cs),
(363,372,o),
(428,314,o),
(428,206,cs),
(428,91,o),
(372,24,o),
(274,24,cs),
(145,24,o),
(91,132,o),
(91,324,cs),
(91,537,o),
(157,636,o),
(283,636,cs),
(334,636,o),
(387,626,o),
(425,609,c),
(435,641,l),
(394,660,o),
(334,670,o),
(282,670,cs),
(143,670,o),
(55,571,o),
(55,328,cs),
(55,105,o),
(124,-10,o),
(274,-10,cs)
);
}
);
width = 508;
},
{
background = {
shapes = (
{
closed = 1;
nodes = (
(396,-12,o),
(485,65,o),
(485,216,cs),
(485,360,o),
(415,420,o),
(295,420,cs),
(242,420,o),
(179,397,o),
(150,360,c),
(166,267,l),
(182,287,o),
(227,308,o),
(268,308,cs),
(316,308,o),
(344,279,o),
(344,217,cs),
(344,155,o),
(323,107,o),
(268,107,cs),
(199,107,o),
(180,187,o),
(180,339,cs),
(180,480,o),
(211,553,o),
(298,553,cs),
(345,553,o),
(403,541,o),
(444,524,c),
(472,633,l,{
name = hr00;
}),
(425,655,o),
(353,672,o),
(294,672,cs),
(160,672,o),
(30,600,o),
(30,338,cs),
(30,91,o),
(122,-12,o),
(264,-12,cs)
);
}
);
};
layerId = "A7032D4A-7BCC-4736-93C1-F342117E585F";
shapes = (
{
closed = 1;
nodes = (
(417,-12,o),
(506,65,o),
(506,216,cs),
(506,360,o),
(436,420,o),
(316,420,cs),
(263,420,o),
(200,397,o),
(171,360,c),
(187,267,l),
(203,287,o),
(248,308,o),
(289,308,cs),
(337,308,o),
(365,279,o),
(365,217,cs),
(365,155,o),
(344,107,o),
(289,107,cs),
(220,107,o),
(201,187,o),
(201,339,cs),
(201,480,o),
(232,553,o),
(319,553,cs),
(366,553,o),
(424,541,o),
(465,524,c),
(493,633,l,{
name = hr00;
}),
(446,655,o),
(374,672,o),
(315,672,cs),
(181,672,o),
(51,600,o),
(51,338,cs),
(51,91,o),
(143,-12,o),
(285,-12,cs)
);
}
);
width = 552;
}
);
},
{
glyphname = seven.lf;
lastChange = "2022-04-14 18:46:40 +0000";
layers = (
{
background = {
shapes = (
{
closed = 1;
nodes = (
(144,-5,l),
(385,612,l),
(385,660,l),
(17,660,l),
(17,626,l),
(348,626,l),
(348,620,l),
(106,3,l)
);
}
);
};
layerId = "FCCC260D-0C10-491F-B419-2EABB30545AF";
shapes = (
{
closed = 1;
nodes = (
(146,0,l),
(385,612,l),
(385,660,l),
(17,660,l),
(17,626,l),
(350,626,l),
(350,617,l),
(108,0,l)
);
}
);
width = 415;
},
{
background = {
shapes = (
{
closed = 1;
nodes = (
(237,0,l),
(431,525,l),
(431,660,l),
(25,660,l),
(25,529,l),
(279,529,l),
(279,517,l),
(70,0,l)
);
}
);
};
layerId = "A7032D4A-7BCC-4736-93C1-F342117E585F";
shapes = (
{
closed = 1;
nodes = (
(245,0,l),
(439,525,l),
(439,660,l),
(33,660,l),
(33,538,l),
(287,538,l),
(287,525,l),
(85,0,l)
);
}
);
width = 478;
}
);
},
{
glyphname = eight.lf;
lastChange = "2022-04-14 18:46:40 +0000";
layers = (
{
background = {
shapes = (
{
closed = 1;
nodes = (
(382,-10,o),
(475,34,o),
(475,178,cs),
(475,277,o),
(422,323,o),
(343,348,c),
(424,374,o),
(466,421,o),
(466,505,cs),
(466,616,o),
(383,670,o),
(258,670,cs),
(133,670,o),
(55,615,o),
(55,506,cs),
(55,422,o),
(97,375,o),
(167,348,c),
(96,316,o),
(45,273,o),
(45,167,cs),
(45,37,o),
(146,-10,o),
(258,-10,cs)
);
},
{
closed = 1;
nodes = (
(164,24,o),
(84,62,o),
(84,168,cs),
(84,263,o),
(130,309,o),
(208,330,c),
(299,330,l),
(374,309,o),
(437,274,o),
(437,177,cs),
(437,61,o),
(360,24,o),
(258,24,cs)
);
},
{
closed = 1;
nodes = (
(208,363,l),
(130,387,o),
(93,431,o),
(93,505,cs),
(93,599,o),
(156,636,o),
(258,636,cs),
(363,636,o),
(427,597,o),
(427,504,cs),
(427,425,o),
(377,384,o),
(299,363,c)
);
}
);
};
layerId = "FCCC260D-0C10-491F-B419-2EABB30545AF";
shapes = (
{
closed = 1;
nodes = (
(362,-10,o),
(445,44,o),
(445,178,cs),
(445,281,o),
(397,324,o),
(312,348,c),
(311,341,l),
(400,367,o),
(436,427,o),
(436,505,cs),
(436,606,o),
(363,670,o),
(248,670,cs),
(133,670,o),
(65,605,o),
(65,506,cs),
(65,428,o),
(101,367,o),
(178,341,c),
(177,349,l),
(101,317,o),
(55,278,o),
(55,167,cs),
(55,47,o),
(146,-10,o),
(248,-10,cs)
);
},
{
closed = 1;
nodes = (
(164,24,o),
(94,72,o),
(94,168,cs),
(94,253,o),
(140,327,o),
(228,327,c),
(259,327,l),
(344,327,o),
(407,264,o),
(407,177,cs),
(407,71,o),
(340,24,o),
(248,24,cs)
);
},
{
closed = 1;
nodes = (
(140,360,o),
(103,441,o),
(103,505,cs),
(103,589,o),
(156,636,o),
(248,636,cs),
(343,636,o),
(397,587,o),
(397,504,cs),
(397,435,o),
(347,360,o),
(259,360,c),
(228,360,l)
);
}
);
width = 500;
},
{
background = {
shapes = (
{
closed = 1;
nodes = (
(408,-12,o),
(520,35,o),
(520,177,cs),
(520,284,o),
(478,323,o),
(380,363,c),
(377,315,l),
(478,357,o),
(511,398,o),
(511,496,cs),
(511,617,o),
(412,672,o),
(285,672,cs),
(159,672,o),
(63,612,o),
(63,497,cs),
(63,400,o),
(96,355,o),
(190,315,c),
(186,366,l),
(98,319,o),
(51,284,o),
(51,173,cs),
(51,33,o),
(162,-12,o),
(285,-12,cs)
);
},
{
closed = 1;
nodes = (
(235,105,o),
(207,137,o),
(207,191,cs),
(207,233,o),
(228,270,o),
(262,285,c),
(307,285,l),
(342,270,o),
(365,236,o),
(365,194,cs),
(365,135,o),
(336,105,o),
(285,105,cs)
);
},
{
closed = 1;
nodes = (
(262,390,l),
(234,406,o),
(216,440,o),
(216,475,cs),
(216,517,o),
(236,556,o),
(285,556,cs),
(335,556,o),
(357,517,o),
(357,474,cs),
(357,441,o),
(338,406,o),
(307,390,c)
);
}
);
};
layerId = "A7032D4A-7BCC-4736-93C1-F342117E585F";
shapes = (
{
closed = 1;
nodes = (
(429,-12,o),
(522,61,o),
(522,177,cs),
(522,270,o),
(477,321,o),
(374,361,c),
(371,316,l),
(474,351,o),
(512,407,o),
(512,489,cs),
(512,598,o),
(416,672,o),
(286,672,cs),
(156,672,o),
(60,598,o),
(60,489,cs),
(60,407,o),
(98,351,o),
(201,316,c),
(198,361,l),
(95,321,o),
(50,270,o),
(50,177,cs),
(50,61,o),
(143,-12,o),
(286,-12,cs)
);
},
{
closed = 1;
nodes = (
(237,104,o),
(203,134,o),
(203,198,cs),
(203,250,o),
(240,291,o),
(284,292,c),
(288,292,l),
(332,291,o),
(369,250,o),
(369,198,cs),
(369,134,o),
(335,104,o),
(286,104,cs)
);
},
{
closed = 1;
nodes = (
(246,390,o),
(211,421,o),
(211,474,cs),
(211,523,o),
(245,556,o),
(286,556,cs),
(327,556,o),
(361,523,o),
(361,474,cs),
(361,421,o),
(325,390,o),
(288,388,c),
(284,388,l)
);
}
);
width = 572;
}
);
},
{
glyphname = nine.lf;
lastChange = "2022-04-14 18:46:40 +0000";
layers = (
{
background = {
shapes = (
{
closed = 1;
nodes = (
(380,-10,o),
(462,86,o),
(462,319,cs),
(462,547,o),
(397,670,o),
(254,670,cs),
(133,670,o),
(53,590,o),
(53,464,cs),
(53,323,o),
(125,249,o),
(249,249,cs),
(317,249,o),
(397,283,o),
(436,321,c),
(435,359,l),
(395,319,o),
(313,283,o),
(251,283,cs),
(149,283,o),
(91,344,o),
(91,464,cs),
(91,570,o),
(154,636,o),
(254,636,cs),
(372,636,o),
(425,525,o),
(425,319,cs),
(425,120,o),
(363,24,o),
(237,24,cs),
(180,24,o),
(122,35,o),
(81,54,c),
(71,22,l),
(114,2,o),
(176,-10,o),
(237,-10,cs)
);
}
);
};
layerId = "FCCC260D-0C10-491F-B419-2EABB30545AF";
shapes = (
{
closed = 1;
nodes = (
(219,0,l),
(379,165,o),
(457,291,o),
(457,438,cs),
(457,595,o),
(370,669,o),
(247,669,cs),
(126,669,o),
(45,584,o),
(45,454,cs),
(45,318,o),
(125,250,o),
(242,250,cs),
(312,250,o),
(379,284,o),
(418,322,c),
(418,362,l),
(378,322,o),
(318,283,o),
(244,283,cs),
(148,283,o),
(81,343,o),
(81,454,cs),
(81,564,o),
(147,635,o),
(247,635,cs),
(345,635,o),
(421,573,o),
(421,438,cs),
(421,296,o),
(343,183,o),
(167,0,c)
);
}
);
width = 512;
},
{
background = {
shapes = (
{
closed = 1;
nodes = (
(388,-12,o),
(493,81,o),
(493,337,cs),
(493,559,o),
(412,672,o),
(259,672,cs),
(136,672,o),
(38,594,o),
(38,452,cs),
(38,304,o),
(113,238,o),
(233,238,cs),
(289,238,o),
(340,266,o),
(378,299,c),
(363,395,l),
(344,373,o),
(293,356,o),
(256,356,cs),
(207,356,o),
(183,395,o),
(183,451,cs),
(183,498,o),
(201,554,o),
(260,554,cs),
(330,554,o),
(349,459,o),
(349,328,cs),
(349,180,o),
(306,108,o),
(233,108,cs),
(188,108,o),
(134,117,o),
(92,132,c),
(63,25,l,{
name = hr00;
}),
(116,2,o),
(188,-12,o),
(243,-12,cs)
);
}
);
};
layerId = "A7032D4A-7BCC-4736-93C1-F342117E585F";
shapes = (
{
closed = 1;
nodes = (
(290,0,l),
(425,155,o),
(499,272,o),
(499,427,cs),
(499,596,o),
(394,670,o),
(262,670,cs),
(145,670,o),
(35,582,o),
(35,436,cs),
(35,302,o),
(127,229,o),
(229,229,cs),
(305,229,o),
(368,281,o),
(385,325,c),
(369,379,l),
(349,358,o),
(301,347,o),
(262,347,cs),
(213,347,o),
(185,390,o),
(185,440,cs),
(185,500,o),
(212,548,o),
(262,548,cs),
(322,548,o),
(346,500,o),
(346,438,cs),
(346,285,o),
(267,176,o),
(112,0,c)
);
}
);
width = 550;
}
);
},
{
color = 10;
glyphname = one.nnum;
lastChange = "2022-07-07 12:58:27 +0000";
layers = (
{
layerId = "FCCC260D-0C10-491F-B419-2EABB30545AF";
shapes = (
{
alignment = -1;
pos = (105,194);
ref = one.pnum;
},
{
closed = 1;
nodes = (
(103,194,l),
(445,194,l),
(445,226,l),
(103,226,l)
);
}
);
width = 520;
},
{
layerId = "A7032D4A-7BCC-4736-93C1-F342117E585F";
shapes = (
{
alignment = -1;
pos = (70,171);
ref = one.pnum;
},
{
closed = 1;
nodes = (
(113,171,l),
(465,171,l),
(465,293,l),
(113,293,l)
);
}
);
width = 520;
}
);
},
{
glyphname = zero.pnum;
lastChange = "2022-04-14 18:46:40 +0000";
layers = (
{
background = {
shapes = (
{
closed = 1;
nodes = (
(388,-10,o),
(474,77,o),
(474,318,cs),
(474,583,o),
(392,670,o),
(262,670,cs),
(133,670,o),
(50,582,o),
(50,318,cs),
(50,76,o),
(136,-10,o),
(262,-10,cs)
);
},
{
closed = 1;
nodes = (
(158,24,o),
(88,96,o),
(88,317,cs),
(88,555,o),
(151,636,o),
(262,636,cs),
(374,636,o),
(436,553,o),
(436,318,cs),
(436,97,o),
(366,24,o),
(262,24,cs)
);
}
);
};
layerId = "FCCC260D-0C10-491F-B419-2EABB30545AF";
shapes = (
{
closed = 1;
nodes = (
(347,-10,o),
(422,61,o),
(422,243,cs),
(422,444,o),
(350,514,o),
(235,514,cs),
(121,514,o),
(48,443,o),
(48,243,cs),
(48,59,o),
(124,-10,o),
(235,-10,cs)
);
},
{
closed = 1;
nodes = (
(145,22,o),
(82,77,o),
(82,242,cs),
(82,419,o),
(138,482,o),
(235,482,cs),
(332,482,o),
(388,419,o),
(388,243,cs),
(388,79,o),
(326,22,o),
(235,22,cs)
);
}
);
width = 470;
},
{
background = {
shapes = (
{
closed = 1;
nodes = (
(429,-12,o),
(504,93,o),
(504,325,cs),
(504,564,o),
(431,672,o),
(267,672,cs),
(106,672,o),
(30,564,o),
(30,325,cs),
(30,93,o),
(105,-12,o),
(268,-12,cs)
);
},
{
closed = 1;
nodes = (
(213,109,o),
(187,165,o),
(187,325,cs),
(187,492,o),
(211,551,o),
(268,551,cs),
(324,551,o),
(347,491,o),
(347,325,cs),
(347,165,o),
(322,109,o),
(268,109,cs)
);
}
);
};
layerId = "A7032D4A-7BCC-4736-93C1-F342117E585F";
shapes = (
{
closed = 1;
nodes = (
(398,-12,o),
(464,75,o),
(464,256,cs),
(464,440,o),
(400,530,o),
(255,530,cs),
(113,530,o),
(46,440,o),
(46,256,cs),
(46,76,o),
(112,-12,o),
(256,-12,cs)
);
},
{
closed = 1;
nodes = (
(209,97,o),
(186,140,o),
(186,256,cs),
(186,376,o),
(207,421,o),
(256,421,cs),
(304,421,o),
(324,376,o),
(324,256,cs),
(324,139,o),
(302,97,o),
(256,97,cs)
);
}
);
width = 510;
}
);
userData = {
com.typemytype.robofont.guides = (
{
angle = 0;
isGlobal = 0;
magnetic = 5;
x = 0;
y = 243;
},
{
angle = 0;
isGlobal = 0;
magnetic = 5;
x = 0;
y = 447;
},
{
angle = 90;
isGlobal = 0;
magnetic = 5;
x = 263;
y = 0;
}
);
};
},
{
glyphname = one.pnum;
lastChange = "2022-04-14 18:46:40 +0000";
layers = (
{
background = {
shapes = (
{
closed = 1;
nodes = (
(276,0,l),
(276,660,l),
(240,660,l),
(75,540,l),
(92,512,l),
(240,621,l),
(240,0,l)
);
}
);
};
layerId = "FCCC260D-0C10-491F-B419-2EABB30545AF";
shapes = (
{
closed = 1;
nodes = (
(189,0,l),
(189,505,l),
(156,505,l),
(10,413,l),
(26,385,l),
(168,473,l),
(155,480,l),
(155,0,l)
);
}
);
width = 263;
},
{
background = {
shapes = (
{
closed = 1;
nodes = (
(351,0,l),
(351,672,l),
(226,672,l),
(27,551,l),
(76,443,l),
(195,512,l),
(195,0,l)
);
}
);
};
layerId = "A7032D4A-7BCC-4736-93C1-F342117E585F";
shapes = (
{
closed = 1;
nodes = (
(295,0,l),
(295,529,l),
(183,529,l),
(7,434,l),
(54,330,l),
(209,406,l),
(155,437,l),
(155,0,l)
);
}
);
width = 356;
}
);
},
{
glyphname = two.pnum;
lastChange = "2022-04-14 18:46:40 +0000";
layers = (
{
background = {
shapes = (
{
closed = 1;
nodes = (
(452,0,l),
(452,32,l),
(102,32,l),
(107,20,l),
(310,255,ls),
(388,345,o),
(433,417,o),
(433,500,cs),
(433,617,o),
(362,670,o),
(247,670,cs),
(186,670,o),
(119,653,o),
(76,632,c),
(86,600,l),
(132,621,o),
(195,636,o),
(244,636,cs),
(339,636,o),
(396,594,o),
(396,499,cs),
(396,422,o),
(354,363,o),
(276,272,cs),
(70,31,l),
(70,0,l)
);
}
);
};
layerId = "FCCC260D-0C10-491F-B419-2EABB30545AF";
shapes = (
{
closed = 1;
nodes = (
(367,0,l),
(367,32,l),
(60,32,l),
(64,18,l),
(242,194,ls),
(311,262,o),
(350,317,o),
(350,381,cs),
(350,470,o),
(288,514,o),
(186,514,cs),
(134,514,o),
(74,501,o),
(35,485,c),
(45,455,l),
(85,471,o),
(141,483,o),
(183,483,cs),
(266,483,o),
(316,453,o),
(316,379,cs),
(316,322,o),
(280,273,o),
(210,205,cs),
(30,28,l),
(30,0,l)
);
}
);
width = 400;
},
{
background = {
shapes = (
{
closed = 1;
nodes = (
(454,0,l),
(454,117,l),
(153,117,l),
(168,71,l),
(325,233,ls),
(412,323,o),
(449,381,o),
(449,483,cs),
(449,606,o),
(367,672,o),
(232,672,cs),
(162,672,o),
(83,651,o),
(42,633,c),
(64,525,l),
(98,537,o),
(151,550,o),
(199,550,cs),
(255,550,o),
(292,527,o),
(292,467,cs),
(292,405,o),
(254,354,o),
(171,261,cs),
(41,115,l),
(41,0,l)
);
}
);
};
layerId = "A7032D4A-7BCC-4736-93C1-F342117E585F";
shapes = (
{
closed = 1;
nodes = (
(404,0,l),
(404,104,l),
(141,104,l),
(154,63,l),
(290,180,ls),
(368,250,o),
(400,294,o),
(400,377,cs),
(400,474,o),
(327,528,o),
(208,528,cs),
(149,528,o),
(77,511,o),
(41,497,c),
(60,401,l),
(90,409,o),
(136,419,o),
(179,419,cs),
(227,419,o),
(259,403,o),
(259,362,cs),
(259,315,o),
(226,277,o),
(152,205,cs),
(40,103,l),
(40,0,l)
);
}
);
width = 448;
}
);
},
{
glyphname = three.pnum;
lastChange = "2022-04-14 18:46:40 +0000";
layers = (
{
background = {
shapes = (
{
closed = 1;
nodes = (
(357,-10,o),
(423,56,o),
(423,182,cs),
(423,297,o),
(363,335,o),
(299,353,c),
(330,365,o),
(406,402,o),
(406,508,cs),
(406,613,o),
(351,670,o),
(224,670,cs),
(163,670,o),
(88,654,o),
(51,640,c),
(61,606,l),
(97,620,o),
(166,636,o),
(225,636,cs),
(326,636,o),
(369,595,o),
(369,509,cs),
(369,412,o),
(287,366,o),
(225,366,cs),
(137,366,l),
(137,332,l),
(225,332,ls),
(318,332,o),
(385,292,o),
(385,179,cs),
(385,81,o),
(334,24,o),
(232,24,cs),
(167,24,o),
(89,38,o),
(48,52,c),
(39,18,l),
(82,5,o),
(164,-10,o),
(233,-10,cs)
);
}
);
};
layerId = "FCCC260D-0C10-491F-B419-2EABB30545AF";
shapes = (
{
closed = 1;
nodes = (
(310,-10,o),
(369,43,o),
(369,140,cs),
(369,230,o),
(311,258,o),
(252,271,c),
(256,267,l),
(305,283,o),
(354,318,o),
(354,387,cs),
(354,468,o),
(305,514,o),
(193,514,cs),
(140,514,o),
(75,502,o),
(41,491,c),
(49,460,l),
(81,470,o),
(140,482,o),
(193,482,cs),
(280,482,o),
(320,451,o),
(320,387,cs),
(320,316,o),
(248,282,o),
(193,282,cs),
(116,282,l),
(116,250,l),
(193,250,ls),
(278,250,o),
(335,221,o),
(335,138,cs),
(335,63,o),
(292,22,o),
(200,22,cs),
(145,22,o),
(76,32,o),
(38,43,c),
(30,12,l),
(68,2,o),
(139,-10,o),
(201,-10,cs)
);
}
);
width = 416;
},
{
background = {
shapes = (
{
closed = 1;
nodes = (
(362,-12,o),
(445,58,o),
(445,197,cs),
(445,277,o),
(409,321,o),
(354,346,c),
(401,373,o),
(434,414,o),
(434,490,cs),
(434,612,o),
(353,672,o),
(199,672,cs),
(145,672,o),
(72,656,o),
(30,640,c),
(45,531,l),
(87,543,o),
(141,551,o),
(185,551,cs),
(244,551,o),
(277,524,o),
(277,475,cs),
(277,424,o),
(244,395,o),
(191,395,cs),
(121,395,l),
(121,281,l),
(193,281,ls),
(256,281,o),
(289,252,o),
(289,197,cs),
(289,142,o),
(258,110,o),
(197,110,cs),
(147,110,o),
(85,121,o),
(40,133,c),
(21,22,l),
(69,5,o),
(147,-12,o),
(220,-12,cs)
);
}
);
};
layerId = "A7032D4A-7BCC-4736-93C1-F342117E585F";
shapes = (
{
closed = 1;
nodes = (
(334,-10,o),
(408,46,o),
(408,157,cs),
(408,232,o),
(359,268,o),
(289,284,c),
(293,253,l),
(353,277,o),
(399,309,o),
(399,382,cs),
(399,480,o),
(326,528,o),
(190,528,cs),
(143,528,o),
(79,515,o),
(42,502,c),
(55,406,l),
(92,415,o),
(142,420,o),
(178,420,cs),
(228,420,o),
(257,401,o),
(257,368,cs),
(257,335,o),
(230,314,o),
(183,314,cs),
(122,314,l),
(122,213,l),
(185,213,ls),
(239,213,o),
(268,192,o),
(268,157,cs),
(268,121,o),
(241,100,o),
(188,100,cs),
(146,100,o),
(91,108,o),
(51,117,c),
(34,18,l),
(76,4,o),
(145,-10,o),
(209,-10,cs)
);
}
);
width = 454;
}
);
},
{
glyphname = four.pnum;
lastChange = "2022-04-14 18:46:40 +0000";
layers = (
{
background = {
shapes = (
{
closed = 1;
nodes = (
(396,0,l),
(396,142,l),
(484,142,l),
(484,176,l),
(396,176,l),
(396,395,l),
(360,395,l),
(360,176,l),
(86,176,l),
(269,660,l),
(230,660,l),
(44,172,l),
(44,142,l),
(360,142,l),
(360,0,l)
);
}
);
};
layerId = "FCCC260D-0C10-491F-B419-2EABB30545AF";
shapes = (
{
closed = 1;
nodes = (
(336,0,l),
(336,105,l),
(413,105,l),
(413,137,l),
(336,137,l),
(336,302,l),
(302,301,l),
(302,137,l),
(62,137,l),
(223,504,l),
(188,504,l),
(25,134,l),
(25,105,l),
(302,105,l),
(302,0,l)
);
}
);
width = 430;
},
{
background = {
shapes = (
{
closed = 1;
nodes = (
(458,0,l),
(458,108,l),
(504,108,l),
(504,228,l),
(458,228,l),
(458,395,l),
(314,392,l),
(303,228,l),
(189,228,l),
(335,660,l),
(165,660,l),
(35,214,l),
(35,108,l),
(303,108,l),
(303,0,l)
);
}
);
};
layerId = "A7032D4A-7BCC-4736-93C1-F342117E585F";
shapes = (
{
closed = 1;
nodes = (
(415,0,l),
(415,78,l),
(454,78,l),
(454,187,l),
(415,187,l),
(415,310,l),
(286,307,l),
(276,187,l),
(179,187,l),
(307,518,l),
(154,518,l),
(41,174,l),
(41,78,l),
(276,78,l),
(276,0,l)
);
}
);
width = 483;
}
);
},
{
glyphname = five.pnum;
lastChange = "2022-04-14 18:46:40 +0000";
layers = (
{
background = {
shapes = (
{
closed = 1;
nodes = (
(322,-10,o),
(390,52,o),
(390,164,cs),
(390,266,o),
(324,311,o),
(224,311,cs),
(174,311,o),
(114,293,o),
(80,271,c),
(86,261,l),
(102,488,l),
(86,473,l),
(367,473,l),
(367,504,l),
(69,504,l),
(54,246,l),
(84,242,l),
(118,262,o),
(175,281,o),
(221,281,cs),
(300,281,o),
(356,246,o),
(356,164,cs),
(356,72,o),
(299,21,o),
(209,21,cs),
(157,21,o),
(98,31,o),
(54,44,c),
(47,14,l),
(97,0,o),
(157,-10,o),
(211,-10,cs)
);
}
);
};
layerId = "FCCC260D-0C10-491F-B419-2EABB30545AF";
shapes = (
{
closed = 1;
nodes = (
(322,-10,o),
(390,52,o),
(390,164,cs),
(390,266,o),
(324,311,o),
(224,311,cs),
(174,311,o),
(114,293,o),
(80,271,c),
(86,261,l),
(102,488,l),
(86,472,l),
(367,472,l),
(367,504,l),
(69,504,l),
(54,246,l),
(84,241,l),
(118,261,o),
(175,280,o),
(221,280,cs),
(300,280,o),
(355,246,o),
(355,164,cs),
(355,72,o),
(299,21,o),
(209,21,cs),
(157,21,o),
(98,31,o),
(54,44,c),
(47,14,l),
(97,0,o),
(157,-10,o),
(211,-10,cs)
);
}
);
width = 431;
},
{
background = {
shapes = (
{
closed = 1;
nodes = (
(403,-12,o),
(488,64,o),
(488,215,cs),
(488,355,o),
(412,420,o),
(290,420,cs),
(254,420,o),
(213,406,o),
(185,392,c),
(194,537,l),
(462,537,l),
(462,660,l),
(73,660,l),
(58,278,l),
(156,264,l),
(186,282,o),
(223,295,o),
(254,295,cs),
(305,295,o),
(334,265,o),
(334,207,cs),
(334,142,o),
(302,107,o),
(243,107,cs),
(188,107,o),
(122,119,o),
(69,135,c),
(44,29,l),
(106,5,o),
(193,-12,o),
(267,-12,cs)
);
}
);
};
layerId = "A7032D4A-7BCC-4736-93C1-F342117E585F";
shapes = (
{
closed = 1;
nodes = (
(359,-10,o),
(434,50,o),
(434,169,cs),
(434,279,o),
(367,332,o),
(260,332,cs),
(215,332,o),
(161,309,o),
(144,297,c),
(165,251,l),
(180,470,l),
(114,408,l),
(411,408,l),
(411,518,l),
(68,518,l),
(54,211,l),
(142,199,l),
(167,211,o),
(199,220,o),
(227,220,cs),
(270,220,o),
(296,199,o),
(296,161,cs),
(296,119,o),
(268,96,o),
(217,96,cs),
(168,96,o),
(109,106,o),
(64,118,c),
(42,24,l),
(95,5,o),
(172,-10,o),
(239,-10,cs)
);
}
);
width = 474;
}
);
},
{
glyphname = six.pnum;
lastChange = "2022-04-14 18:46:40 +0000";
layers = (
{
background = {
shapes = (
{
closed = 1;
nodes = (
(391,-10,o),
(459,74,o),
(459,207,cs),
(459,336,o),
(384,406,o),
(262,406,cs),
(187,406,o),
(102,361,o),
(80,326,c),
(81,285,l),
(123,333,o),
(198,372,o),
(261,372,cs),
(358,372,o),
(422,314,o),
(422,206,cs),
(422,91,o),
(367,24,o),
(269,24,cs),
(140,24,o),
(87,132,o),
(87,324,cs),
(87,537,o),
(152,636,o),
(278,636,cs),
(329,636,o),
(382,626,o),
(420,609,c),
(430,641,l),
(389,660,o),
(329,670,o),
(277,670,cs),
(138,670,o),
(50,571,o),
(50,328,cs),
(50,105,o),
(119,-10,o),
(269,-10,cs)
);
}
);
};
layerId = "FCCC260D-0C10-491F-B419-2EABB30545AF";
shapes = (
{
closed = 1;
nodes = (
(348,-10,o),
(409,56,o),
(409,159,cs),
(409,258,o),
(342,311,o),
(236,311,cs),
(172,311,o),
(97,279,o),
(76,251,c),
(77,217,l),
(114,252,o),
(180,279,o),
(234,279,cs),
(318,279,o),
(374,238,o),
(374,158,cs),
(374,73,o),
(326,22,o),
(241,22,cs),
(129,22,o),
(83,104,o),
(83,248,cs),
(83,406,o),
(139,482,o),
(249,482,cs),
(296,482,o),
(341,474,o),
(373,461,c),
(384,491,l),
(349,505,o),
(297,514,o),
(248,514,cs),
(126,514,o),
(48,437,o),
(48,251,cs),
(48,80,o),
(109,-10,o),
(241,-10,cs)
);
}
);
width = 448;
},
{
background = {
shapes = (
{
closed = 1;
nodes = (
(396,-12,o),
(485,65,o),
(485,216,cs),
(485,360,o),
(415,420,o),
(295,420,cs),
(242,420,o),
(179,397,o),
(150,360,c),
(166,267,l),
(182,287,o),
(227,308,o),
(268,308,cs),
(316,308,o),
(344,279,o),
(344,217,cs),
(344,155,o),
(323,107,o),
(268,107,cs),
(199,107,o),
(180,187,o),
(180,339,cs),
(180,480,o),
(211,553,o),
(298,553,cs),
(345,553,o),
(403,541,o),
(444,524,c),
(472,633,l,{
name = hr00;
}),
(425,655,o),
(353,672,o),
(294,672,cs),
(160,672,o),
(30,600,o),
(30,338,cs),
(30,91,o),
(122,-12,o),
(264,-12,cs)
);
}
);
};
layerId = "A7032D4A-7BCC-4736-93C1-F342117E585F";
shapes = (
{
closed = 1;
nodes = (
(368,-12,o),
(447,50,o),
(447,171,cs),
(447,286,o),
(385,332,o),
(279,332,cs),
(235,332,o),
(180,318,o),
(153,288,c),
(167,207,l),
(180,218,o),
(219,232,o),
(255,232,cs),
(296,232,o),
(320,214,o),
(320,172,cs),
(320,131,o),
(302,94,o),
(255,94,cs),
(196,94,o),
(180,154,o),
(180,268,cs),
(180,368,o),
(206,424,o),
(282,424,cs),
(323,424,o),
(374,414,o),
(410,401,c),
(435,498,l,{
name = hr00;
}),
(394,515,o),
(332,530,o),
(278,530,cs),
(161,530,o),
(45,475,o),
(45,267,cs),
(45,69,o),
(127,-12,o),
(251,-12,cs)
);
}
);
width = 488;
}
);
userData = {
com.typemytype.robofont.guides = (
{
angle = 90;
isGlobal = 0;
magnetic = 5;
x = 182;
y = 0;
}
);
};
},
{
glyphname = seven.pnum;
lastChange = "2022-04-14 18:46:40 +0000";
layers = (
{
background = {
shapes = (
{
closed = 1;
nodes = (
(144,-5,l),
(385,612,l),
(385,660,l),
(17,660,l),
(17,626,l),
(348,626,l),
(348,620,l),
(106,3,l)
);
}
);
};
layerId = "FCCC260D-0C10-491F-B419-2EABB30545AF";
shapes = (
{
closed = 1;
nodes = (
(130,0,l),
(340,463,l),
(340,504,l),
(15,504,l),
(15,472,l),
(305,472,l),
(305,466,l),
(92,0,l)
);
}
);
width = 367;
},
{
background = {
shapes = (
{
closed = 1;
nodes = (
(237,0,l),
(431,525,l),
(431,660,l),
(25,660,l),
(25,529,l),
(279,529,l),
(279,517,l),
(70,0,l)
);
}
);
};
layerId = "A7032D4A-7BCC-4736-93C1-F342117E585F";
shapes = (
{
closed = 1;
nodes = (
(218,0,l),
(387,399,l),
(387,518,l),
(29,518,l),
(29,409,l),
(251,409,l),
(251,398,l),
(74,0,l)
);
}
);
width = 422;
}
);
},
{
glyphname = eight.pnum;
lastChange = "2022-04-14 18:46:40 +0000";
layers = (
{
background = {
shapes = (
{
closed = 1;
nodes = (
(382,-10,o),
(475,34,o),
(475,178,cs),
(475,277,o),
(422,323,o),
(343,348,c),
(424,374,o),
(466,421,o),
(466,505,cs),
(466,616,o),
(383,670,o),
(258,670,cs),
(133,670,o),
(55,615,o),
(55,506,cs),
(55,422,o),
(97,375,o),
(167,348,c),
(96,316,o),
(45,273,o),
(45,167,cs),
(45,37,o),
(146,-10,o),
(258,-10,cs)
);
},
{
closed = 1;
nodes = (
(164,24,o),
(84,62,o),
(84,168,cs),
(84,263,o),
(130,309,o),
(208,330,c),
(299,330,l),
(374,309,o),
(437,274,o),
(437,177,cs),
(437,61,o),
(360,24,o),
(258,24,cs)
);
},
{
closed = 1;
nodes = (
(208,363,l),
(130,387,o),
(93,431,o),
(93,505,cs),
(93,599,o),
(156,636,o),
(258,636,cs),
(363,636,o),
(427,597,o),
(427,504,cs),
(427,425,o),
(377,384,o),
(299,363,c)
);
}
);
};
layerId = "FCCC260D-0C10-491F-B419-2EABB30545AF";
shapes = (
{
closed = 1;
nodes = (
(331,-10,o),
(393,47,o),
(393,135,cs),
(393,204,o),
(356,244,o),
(276,265,c),
(275,257,l),
(348,277,o),
(385,324,o),
(385,382,cs),
(385,459,o),
(320,514,o),
(219,514,cs),
(120,514,o),
(57,460,o),
(57,383,cs),
(57,326,o),
(92,276,o),
(157,257,c),
(156,265,l),
(78,236,o),
(48,199,o),
(48,128,cs),
(48,50,o),
(116,-10,o),
(219,-10,cs)
);
},
{
closed = 1;
nodes = (
(136,22,o),
(84,70,o),
(84,129,cs),
(84,196,o),
(135,244,o),
(201,244,cs),
(229,244,ls),
(300,244,o),
(357,196,o),
(357,135,cs),
(357,69,o),
(307,22,o),
(219,22,cs)
);
},
{
closed = 1;
nodes = (
(201,275,ls),
(139,275,o),
(93,327,o),
(93,381,cs),
(93,441,o),
(138,482,o),
(219,482,cs),
(302,482,o),
(349,440,o),
(349,380,cs),
(349,329,o),
(295,275,o),
(229,275,cs)
);
}
);
width = 441;
},
{
background = {
shapes = (
{
closed = 1;
nodes = (
(396,-12,o),
(508,35,o),
(508,177,cs),
(508,264,o),
(480,306,o),
(417,340,c),
(478,375,o),
(499,417,o),
(499,496,cs),
(499,617,o),
(400,672,o),
(273,672,cs),
(147,672,o),
(51,612,o),
(51,497,cs),
(51,419,o),
(72,375,o),
(129,340,c),
(70,303,o),
(39,263,o),
(39,173,cs),
(39,33,o),
(150,-12,o),
(273,-12,cs)
);
},
{
closed = 1;
nodes = (
(223,105,o),
(195,137,o),
(195,191,cs),
(195,233,o),
(216,270,o),
(250,285,c),
(295,285,l),
(330,270,o),
(353,236,o),
(353,194,cs),
(353,135,o),
(324,105,o),
(273,105,cs)
);
},
{
closed = 1;
nodes = (
(250,390,l),
(222,406,o),
(204,440,o),
(204,475,cs),
(204,517,o),
(224,556,o),
(273,556,cs),
(323,556,o),
(345,517,o),
(345,474,cs),
(345,441,o),
(326,406,o),
(295,390,c)
);
}
);
};
layerId = "A7032D4A-7BCC-4736-93C1-F342117E585F";
shapes = (
{
closed = 1;
nodes = (
(360,-12,o),
(460,26,o),
(460,139,cs),
(460,223,o),
(423,253,o),
(336,287,c),
(334,243,l),
(423,279,o),
(452,308,o),
(452,388,cs),
(452,486,o),
(363,530,o),
(252,530,cs),
(141,530,o),
(56,481,o),
(56,389,cs),
(56,306,o),
(88,276,o),
(168,243,c),
(164,290,l),
(87,251,o),
(45,224,o),
(45,137,cs),
(45,24,o),
(143,-12,o),
(252,-12,cs)
);
},
{
closed = 1;
nodes = (
(209,92,o),
(185,117,o),
(185,153,cs),
(185,179,o),
(204,217,o),
(247,217,cs),
(257,217,ls),
(300,217,o),
(320,182,o),
(320,155,cs),
(320,116,o),
(296,92,o),
(252,92,cs)
);
},
{
closed = 1;
nodes = (
(248,310,ls),
(208,310,o),
(193,345,o),
(193,368,cs),
(193,395,o),
(210,427,o),
(252,427,cs),
(295,427,o),
(313,395,o),
(313,368,cs),
(313,345,o),
(296,310,o),
(256,310,cs)
);
}
);
width = 506;
}
);
userData = {
com.typemytype.robofont.guides = (
{
angle = 90;
isGlobal = 0;
magnetic = 5;
x = 259;
y = 0;
}
);
};
},
{
glyphname = nine.pnum;
lastChange = "2022-04-14 18:46:40 +0000";
layers = (
{
background = {
shapes = (
{
closed = 1;
nodes = (
(380,-10,o),
(462,86,o),
(462,319,cs),
(462,547,o),
(397,670,o),
(254,670,cs),
(133,670,o),
(53,590,o),
(53,464,cs),
(53,323,o),
(125,249,o),
(249,249,cs),
(317,249,o),
(397,283,o),
(436,321,c),
(435,359,l),
(395,319,o),
(313,283,o),
(251,283,cs),
(149,283,o),
(91,344,o),
(91,464,cs),
(91,570,o),
(154,636,o),
(254,636,cs),
(372,636,o),
(425,525,o),
(425,319,cs),
(425,120,o),
(363,24,o),
(237,24,cs),
(180,24,o),
(122,35,o),
(81,54,c),
(71,22,l),
(114,2,o),
(176,-10,o),
(237,-10,cs)
);
}
);
};
layerId = "FCCC260D-0C10-491F-B419-2EABB30545AF";
shapes = (
{
closed = 1;
nodes = (
(194,0,l),
(331,123,o),
(403,219,o),
(403,334,cs),
(403,454,o),
(326,513,o),
(217,513,cs),
(111,513,o),
(39,446,o),
(39,346,cs),
(39,242,o),
(110,180,o),
(212,180,cs),
(274,180,o),
(333,207,o),
(367,236,c),
(366,267,l),
(332,238,o),
(280,212,o),
(215,212,cs),
(131,212,o),
(75,265,o),
(75,346,cs),
(75,427,o),
(130,481,o),
(217,481,cs),
(303,481,o),
(367,433,o),
(367,334,cs),
(367,226,o),
(300,139,o),
(146,0,c)
);
}
);
width = 451;
},
{
background = {
shapes = (
{
closed = 1;
nodes = (
(388,-12,o),
(493,81,o),
(493,337,cs),
(493,559,o),
(412,672,o),
(259,672,cs),
(136,672,o),
(38,594,o),
(38,452,cs),
(38,304,o),
(113,238,o),
(233,238,cs),
(289,238,o),
(340,266,o),
(378,299,c),
(363,395,l),
(344,373,o),
(293,356,o),
(256,356,cs),
(207,356,o),
(183,395,o),
(183,451,cs),
(183,498,o),
(201,554,o),
(260,554,cs),
(330,554,o),
(349,459,o),
(349,328,cs),
(349,180,o),
(306,108,o),
(233,108,cs),
(188,108,o),
(134,117,o),
(92,132,c),
(63,25,l,{
name = hr00;
}),
(116,2,o),
(188,-12,o),
(243,-12,cs)
);
}
);
};
layerId = "A7032D4A-7BCC-4736-93C1-F342117E585F";
shapes = (
{
closed = 1;
nodes = (
(257,0,l),
(383,127,o),
(441,219,o),
(441,335,cs),
(441,470,o),
(347,530,o),
(231,530,cs),
(128,530,o),
(31,458,o),
(31,337,cs),
(31,227,o),
(112,167,o),
(202,167,cs),
(268,167,o),
(324,210,o),
(338,246,c),
(324,290,l),
(307,276,o),
(262,272,o),
(231,272,cs),
(190,272,o),
(166,305,o),
(166,340,cs),
(166,385,o),
(189,421,o),
(231,421,cs),
(283,421,o),
(303,384,o),
(303,346,cs),
(303,228,o),
(239,142,o),
(98,0,c)
);
}
);
width = 486;
}
);
},
{
glyphname = zero.dnom;
lastChange = "2022-04-14 18:46:40 +0000";
layers = (
{
background = {
shapes = (
{
closed = 1;
nodes = (
(208,-5,o),
(242,49,o),
(242,152,cs),
(242,262,o),
(209,317,o),
(136,317,cs),
(64,317,o),
(31,263,o),
(31,152,cs),
(31,48,o),
(65,-5,o),
(136,-5,cs)
);
},
{
closed = 1;
nodes = (
(87,23,o),
(65,65,o),
(65,151,cs),
(65,246,o),
(86,289,o),
(136,289,cs),
(186,289,o),
(208,247,o),
(208,151,cs),
(208,64,o),
(184,23,o),
(135,23,cs)
);
}
);
};
layerId = "FCCC260D-0C10-491F-B419-2EABB30545AF";
shapes = (
{
closed = 1;
nodes = (
(208,-5,o),
(242,49,o),
(242,152,cs),
(242,262,o),
(209,317,o),
(136,317,c),
(64,317,o),
(31,263,o),
(31,152,cs),
(31,48,o),
(65,-5,o),
(136,-5,cs)
);
},
{
closed = 1;
nodes = (
(87,25,o),
(65,65,o),
(65,151,cs),
(65,246,o),
(86,287,o),
(136,287,cs),
(186,287,o),
(208,247,o),
(208,151,cs),
(208,64,o),
(184,25,o),
(135,25,cs)
);
}
);
userData = {
RMXScaler = {
height = 44.57;
weight = -2;
width = 48;
};
};
width = 272;
},
{
background = {
shapes = (
{
closed = 1;
nodes = (
(257,-7,o),
(297,54,o),
(297,177,cs),
(297,300,o),
(256,362,o),
(158,362,cs),
(61,362,o),
(20,300,o),
(20,177,cs),
(20,54,o),
(60,-7,o),
(158,-7,cs)
);
},
{
closed = 1;
nodes = (
(137,79,o),
(133,104,o),
(133,177,cs),
(133,248,o),
(136,276,o),
(158,276,cs),
(181,276,o),
(184,248,o),
(184,177,cs),
(184,104,o),
(181,79,o),
(158,79,cs)
);
}
);
};
layerId = "A7032D4A-7BCC-4736-93C1-F342117E585F";
shapes = (
{
closed = 1;
nodes = (
(257,-7,o),
(297,54,o),
(297,177,cs),
(297,300,o),
(256,362,o),
(158,362,cs),
(61,362,o),
(20,300,o),
(20,177,cs),
(20,54,o),
(60,-7,o),
(158,-7,cs)
);
},
{
closed = 1;
nodes = (
(137,79,o),
(133,104,o),
(133,177,cs),
(133,248,o),
(136,276,o),
(158,276,cs),
(181,276,o),
(184,248,o),
(184,177,cs),
(184,104,o),
(181,79,o),
(158,79,cs)
);
}
);
userData = {
RMXScaler = {
height = 50.71;
weight = -45;
width = 56;
};
};
width = 316;
}
);
userData = {
"- fatto in thin
- fatto in bold  com.typemytype.robofont.guides" = (
{
angle = 0;
isGlobal = 0;
magnetic = 5;
x = 0;
y = -100;
},
{
angle = 0;
isGlobal = 0;
magnetic = 5;
x = 0;
y = 314;
},
{
angle = 0;
isGlobal = 0;
magnetic = 5;
x = 0;
y = -100;
},
{
angle = 90;
isGlobal = 0;
magnetic = 5;
x = 2709;
y = 0;
},
{
angle = 90;
isGlobal = 0;
magnetic = 5;
x = 2686;
y = 0;
},
{
angle = 90;
isGlobal = 0;
magnetic = 5;
x = 3966;
y = 0;
}
);
RMXScaler = {
source = zero;
};
};
},
{
glyphname = one.dnom;
lastChange = "2022-04-14 18:46:40 +0000";
layers = (
{
background = {
shapes = (
{
closed = 0;
nodes = (
(70,226,l),
(144,274,l)
);
}
);
};
layerId = "FCCC260D-0C10-491F-B419-2EABB30545AF";
shapes = (
{
closed = 1;
nodes = (
(178,0,l),
(178,312,l),
(149,312,l),
(56,252,l),
(71,224,l),
(144,272,l),
(144,0,l)
);
}
);
userData = {
RMXScaler = {
height = 44.57;
weight = -2;
width = 48;
};
};
width = 272;
},
{
background = {
shapes = (
{
closed = 1;
nodes = (
(250,0,l),
(250,355,l),
(162,355,l),
(35,283,l),
(73,202,l),
(137,232,l),
(137,0,l)
);
}
);
};
layerId = "A7032D4A-7BCC-4736-93C1-F342117E585F";
shapes = (
{
closed = 1;
nodes = (
(250,0,l),
(250,355,l),
(162,355,l),
(35,283,l),
(73,202,l),
(137,232,l),
(137,0,l)
);
}
);
userData = {
RMXScaler = {
height = 50.71;
weight = -45;
width = 56;
};
};
width = 316;
}
);
userData = {
"- fatto in thin
- fatto in bold  com.typemytype.robofont.guides" = (
{
angle = 0;
isGlobal = 0;
magnetic = 5;
x = 0;
y = -100;
}
);
RMXScaler = {
source = one;
};
};
},
{
glyphname = two.dnom;
lastChange = "2022-04-14 18:46:40 +0000";
layers = (
{
background = {
shapes = (
{
closed = 1;
nodes = (
(228,0,l),
(228,28,l),
(68,28,l),
(72,16,l),
(153,106,ls),
(199,157,o),
(221,188,o),
(221,230,cs),
(221,289,o),
(186,317,o),
(128,317,cs),
(97,317,o),
(63,308,o),
(44,300,c),
(51,274,l),
(71,282,o),
(100,288,o),
(123,288,cs),
(162,288,o),
(187,273,o),
(187,230,cs),
(187,193,o),
(165,165,o),
(125,120,cs),
(42,26,l),
(42,0,l)
);
}
);
};
layerId = "FCCC260D-0C10-491F-B419-2EABB30545AF";
shapes = (
{
closed = 1;
nodes = (
(228,0,l),
(228,30,l),
(68,30,l),
(72,16,l),
(153,106,ls),
(199,157,o),
(221,188,o),
(221,230,cs),
(221,289,o),
(186,317,o),
(128,317,cs),
(97,317,o),
(63,308,o),
(44,300,c),
(51,274,l),
(71,282,o),
(100,287,o),
(123,287,cs),
(162,287,o),
(187,273,o),
(187,230,cs),
(187,193,o),
(165,165,o),
(125,120,cs),
(42,26,l),
(42,0,l)
);
}
);
userData = {
RMXScaler = {
height = 44.57;
weight = -2;
width = 48;
};
};
width = 272;
},
{
background = {
shapes = (
{
closed = 1;
nodes = (
(277,0,l),
(277,86,l),
(117,86,l),
(127,50,l),
(189,104,ls),
(253,164,o),
(277,201,o),
(277,249,cs),
(277,324,o),
(228,362,o),
(148,362,cs),
(109,362,o),
(61,350,o),
(38,341,c),
(52,265,l),
(76,270,o),
(99,275,o),
(123,275,cs),
(147,275,o),
(164,265,o),
(164,249,cs),
(164,218,o),
(141,186,o),
(94,137,cs),
(38,81,l),
(38,0,l)
);
}
);
};
layerId = "A7032D4A-7BCC-4736-93C1-F342117E585F";
shapes = (
{
closed = 1;
nodes = (
(277,0,l),
(277,86,l),
(117,86,l),
(127,50,l),
(189,104,ls),
(253,164,o),
(277,201,o),
(277,249,cs),
(277,324,o),
(228,362,o),
(148,362,cs),
(109,362,o),
(61,350,o),
(38,341,c),
(52,265,l),
(76,270,o),
(99,275,o),
(123,275,cs),
(147,275,o),
(164,265,o),
(164,249,cs),
(164,218,o),
(141,186,o),
(94,137,cs),
(38,81,l),
(38,0,l)
);
}
);
userData = {
RMXScaler = {
height = 50.71;
weight = -45;
width = 56;
};
};
width = 316;
}
);
userData = {
"- fatto in thin
- fatto in bold  com.typemytype.robofont.guides" = (
{
angle = 0;
isGlobal = 0;
magnetic = 5;
x = 0;
y = -100;
}
);
RMXScaler = {
source = two;
};
};
},
{
glyphname = three.dnom;
lastChange = "2022-04-14 18:46:40 +0000";
layers = (
{
background = {
shapes = (
{
closed = 1;
nodes = (
(192,-5,o),
(227,29,o),
(227,85,cs),
(227,128,o),
(201,159,o),
(156,168,c),
(156,161,l),
(191,169,o),
(220,193,o),
(220,238,cs),
(220,286,o),
(190,317,o),
(126,317,cs),
(95,317,o),
(60,308,o),
(43,301,c),
(49,275,l),
(69,282,o),
(98,289,o),
(122,289,cs),
(164,289,o),
(186,270,o),
(186,236,cs),
(186,199,o),
(161,176,o),
(118,176,cs),
(95,176,l),
(95,150,l),
(118,150,ls),
(168,150,o),
(193,125,o),
(193,86,cs),
(193,46,o),
(171,24,o),
(122,24,cs),
(97,24,o),
(70,28,o),
(44,37,c),
(38,11,l),
(62,2,o),
(91,-5,o),
(127,-5,cs)
);
}
);
};
layerId = "FCCC260D-0C10-491F-B419-2EABB30545AF";
shapes = (
{
closed = 1;
nodes = (
(192,-5,o),
(227,29,o),
(227,85,cs),
(227,128,o),
(201,159,o),
(156,168,c),
(156,161,l),
(191,169,o),
(220,193,o),
(220,238,cs),
(220,286,o),
(190,317,o),
(126,317,cs),
(95,317,o),
(60,308,o),
(43,301,c),
(49,273,l),
(69,280,o),
(98,287,o),
(122,287,cs),
(164,287,o),
(186,270,o),
(186,236,cs),
(186,199,o),
(161,177,o),
(118,177,cs),
(95,177,l),
(95,149,l),
(118,149,ls),
(168,149,o),
(193,125,o),
(193,86,cs),
(193,46,o),
(171,25,o),
(122,25,cs),
(97,25,o),
(70,29,o),
(44,38,c),
(38,11,l),
(62,2,o),
(91,-5,o),
(127,-5,cs)
);
}
);
userData = {
RMXScaler = {
height = 44.57;
weight = -2;
width = 48;
};
};
width = 272;
},
{
background = {
shapes = (
{
closed = 1;
nodes = (
(228,-7,o),
(278,33,o),
(278,104,cs),
(278,147,o),
(249,184,o),
(171,197,c),
(171,174,l),
(241,179,o),
(273,218,o),
(273,260,cs),
(273,328,o),
(225,362,o),
(138,362,cs),
(104,362,o),
(62,353,o),
(39,344,c),
(53,266,l),
(75,271,o),
(97,276,o),
(120,276,cs),
(145,276,o),
(161,263,o),
(161,246,cs),
(161,231,o),
(153,219,o),
(122,219,cs),
(104,219,l),
(104,140,l),
(122,140,ls),
(153,140,o),
(165,129,o),
(165,111,cs),
(165,95,o),
(156,80,o),
(120,80,cs),
(103,80,o),
(74,85,o),
(51,92,c),
(36,14,l),
(64,2,o),
(109,-7,o),
(148,-7,cs)
);
}
);
};
layerId = "A7032D4A-7BCC-4736-93C1-F342117E585F";
shapes = (
{
closed = 1;
nodes = (
(228,-7,o),
(278,33,o),
(278,104,cs),
(278,147,o),
(249,184,o),
(171,197,c),
(171,174,l),
(241,179,o),
(273,218,o),
(273,260,cs),
(273,328,o),
(225,362,o),
(138,362,cs),
(104,362,o),
(62,353,o),
(39,344,c),
(53,266,l),
(75,271,o),
(97,276,o),
(120,276,cs),
(145,276,o),
(161,263,o),
(161,246,cs),
(161,231,o),
(153,219,o),
(122,219,cs),
(104,219,l),
(104,140,l),
(122,140,ls),
(153,140,o),
(165,129,o),
(165,111,cs),
(165,95,o),
(156,80,o),
(120,80,cs),
(103,80,o),
(74,85,o),
(51,92,c),
(36,14,l),
(64,2,o),
(109,-7,o),
(148,-7,cs)
);
}
);
userData = {
RMXScaler = {
height = 50.71;
weight = -45;
width = 56;
};
};
width = 316;
}
);
userData = {
"- fatto in thin
- fatto in bold  com.typemytype.robofont.guides" = (
{
angle = 0;
isGlobal = 0;
magnetic = 5;
x = 0;
y = -100;
}
);
RMXScaler = {
source = three;
};
};
},
{
glyphname = four.dnom;
lastChange = "2022-04-14 18:46:40 +0000";
layers = (
{
background = {
shapes = (
{
closed = 1;
nodes = (
(207,0,l),
(207,66,l),
(244,66,l),
(244,94,l),
(207,94,l),
(207,187,l),
(175,186,l),
(173,94,l),
(67,94,l),
(152,312,l),
(116,312,l),
(33,91,l),
(33,66,l),
(173,66,l),
(173,0,l)
);
}
);
};
layerId = "FCCC260D-0C10-491F-B419-2EABB30545AF";
shapes = (
{
closed = 1;
nodes = (
(207,0,l),
(207,64,l),
(244,64,l),
(244,94,l),
(207,94,l),
(207,187,l),
(175,186,l),
(173,94,l),
(67,94,l),
(151,312,l),
(116,312,l),
(33,91,l),
(33,64,l),
(173,64,l),
(173,0,l)
);
}
);
userData = {
RMXScaler = {
height = 44.57;
weight = -2;
width = 48;
};
};
width = 272;
},
{
background = {
shapes = (
{
closed = 1;
nodes = (
(276,0,l),
(276,51,l),
(294,51,l),
(294,137,l),
(276,137,l),
(276,211,l),
(171,209,l),
(163,137,l),
(132,137,l),
(216,355,l),
(98,355,l),
(23,126,l),
(23,51,l),
(163,51,l),
(163,0,l)
);
}
);
};
layerId = "A7032D4A-7BCC-4736-93C1-F342117E585F";
shapes = (
{
closed = 1;
nodes = (
(276,0,l),
(276,51,l),
(294,51,l),
(294,137,l),
(276,137,l),
(276,211,l),
(176,209,l),
(168,137,l),
(127,137,l),
(216,355,l),
(98,355,l),
(23,126,l),
(23,51,l),
(168,51,l),
(168,0,l)
);
}
);
userData = {
RMXScaler = {
height = 50.71;
weight = -45;
width = 56;
};
};
width = 316;
}
);
userData = {
"- fatto in thin  com.typemytype.robofont.guides" = (
{
angle = 0;
isGlobal = 0;
magnetic = 5;
x = 0;
y = -100;
}
);
RMXScaler = {
source = four;
};
};
},
{
glyphname = five.dnom;
lastChange = "2022-04-14 18:46:40 +0000";
layers = (
{
background = {
shapes = (
{
closed = 1;
nodes = (
(191,-5,o),
(231,28,o),
(231,99,cs),
(231,166,o),
(196,198,o),
(141,198,cs),
(112,198,o),
(84,186,o),
(70,175,c),
(76,164,l),
(83,298,l),
(67,284,l),
(219,284,l),
(219,312,l),
(54,312,l),
(47,153,l),
(71,150,l),
(87,161,o),
(110,170,o),
(135,170,cs),
(172,170,o),
(198,149,o),
(198,99,cs),
(198,45,o),
(169,24,o),
(124,24,cs),
(100,24,o),
(74,30,o),
(48,39,c),
(42,12,l),
(69,2,o),
(98,-5,o),
(130,-5,cs)
);
}
);
};
layerId = "FCCC260D-0C10-491F-B419-2EABB30545AF";
shapes = (
{
closed = 1;
nodes = (
(191,-5,o),
(231,28,o),
(231,99,cs),
(231,166,o),
(196,198,o),
(141,198,cs),
(112,198,o),
(84,186,o),
(70,175,c),
(77,164,l),
(84,298,l),
(67,282,l),
(219,282,l),
(219,312,l),
(54,312,l),
(47,153,l),
(71,150,l),
(87,161,o),
(110,168,o),
(135,168,cs),
(175,168,o),
(197,147,o),
(197,99,cs),
(197,47,o),
(172,25,o),
(124,25,cs),
(100,25,o),
(75,30,o),
(49,39,c),
(42,12,l),
(69,2,o),
(98,-5,o),
(130,-5,cs)
);
}
);
userData = {
RMXScaler = {
height = 44.57;
weight = -2;
width = 48;
};
};
width = 272;
},
{
background = {
shapes = (
{
closed = 1;
nodes = (
(237,-7,o),
(285,39,o),
(285,115,cs),
(285,185,o),
(247,232,o),
(172,232,cs),
(147,232,o),
(118,215,o),
(107,209,c),
(125,173,l),
(133,318,l),
(81,269,l),
(271,269,l),
(271,355,l),
(46,355,l),
(38,142,l),
(103,132,l),
(116,141,o),
(125,144,o),
(138,144,cs),
(169,144,o),
(172,124,o),
(172,114,cs),
(172,99,o),
(165,80,o),
(129,80,cs),
(104,80,o),
(84,85,o),
(46,96,c),
(31,16,l),
(77,0,o),
(112,-7,o),
(160,-7,cs)
);
}
);
};
layerId = "A7032D4A-7BCC-4736-93C1-F342117E585F";
shapes = (
{
closed = 1;
nodes = (
(237,-7,o),
(285,39,o),
(285,115,cs),
(285,185,o),
(247,232,o),
(172,232,cs),
(147,232,o),
(118,215,o),
(107,209,c),
(125,173,l),
(133,318,l),
(81,269,l),
(271,269,l),
(271,355,l),
(46,355,l),
(38,142,l),
(103,132,l),
(116,141,o),
(125,144,o),
(138,144,cs),
(159,144,o),
(172,133,o),
(172,114,cs),
(172,92,o),
(156,80,o),
(129,80,cs),
(104,80,o),
(84,85,o),
(46,96,c),
(31,16,l),
(77,0,o),
(112,-7,o),
(160,-7,cs)
);
}
);
userData = {
RMXScaler = {
height = 50.71;
weight = -45;
width = 56;
};
};
width = 316;
}
);
userData = {
"- fatto in thin
- fatto in bold  com.typemytype.robofont.guides" = (
{
angle = 0;
isGlobal = 0;
magnetic = 5;
x = 0;
y = -100;
}
);
RMXScaler = {
source = five;
};
};
},
{
glyphname = six.dnom;
lastChange = "2022-04-14 18:46:40 +0000";
layers = (
{
background = {
shapes = (
{
closed = 1;
nodes = (
(203,-5,o),
(240,35,o),
(240,98,cs),
(240,159,o),
(206,192,o),
(147,192,cs),
(113,192,o),
(79,174,o),
(61,157,c),
(63,132,l),
(85,152,o),
(115,166,o),
(142,166,cs),
(181,166,o),
(207,145,o),
(207,98,cs),
(207,53,o),
(184,23,o),
(143,23,cs),
(91,23,o),
(71,69,o),
(71,146,cs),
(71,246,o),
(98,289,o),
(161,289,cs),
(182,289,o),
(204,284,o),
(223,276,c),
(231,302,l),
(211,311,o),
(185,317,o),
(160,317,cs),
(81,317,o),
(37,264,o),
(37,147,cs),
(37,48,o),
(72,-5,o),
(144,-5,cs)
);
}
);
};
layerId = "FCCC260D-0C10-491F-B419-2EABB30545AF";
shapes = (
{
closed = 1;
nodes = (
(203,-5,o),
(240,35,o),
(240,98,cs),
(240,159,o),
(206,192,o),
(147,192,cs),
(113,192,o),
(79,174,o),
(61,157,c),
(63,132,l),
(85,152,o),
(115,162,o),
(142,162,cs),
(181,162,o),
(206,141,o),
(206,98,cs),
(206,55,o),
(182,25,o),
(143,25,cs),
(91,25,o),
(71,71,o),
(71,146,cs),
(71,246,o),
(100,287,o),
(161,287,cs),
(182,287,o),
(204,283,o),
(223,275,c),
(231,302,l),
(211,311,o),
(185,317,o),
(160,317,cs),
(81,317,o),
(37,264,o),
(37,147,cs),
(37,48,o),
(72,-5,o),
(144,-5,cs)
);
}
);
userData = {
RMXScaler = {
height = 44.57;
weight = -2;
width = 48;
};
};
width = 272;
},
{
background = {
shapes = (
{
closed = 1;
nodes = (
(244,-7,o),
(292,39,o),
(292,117,cs),
(292,198,o),
(252,228,o),
(187,228,cs),
(163,228,o),
(131,222,o),
(96,204,c),
(108,142,l),
(126,145,o),
(149,151,o),
(164,151,cs),
(182,151,o),
(184,139,o),
(184,118,cs),
(184,98,o),
(182,77,o),
(159,77,cs),
(133,77,o),
(137,112,o),
(137,190,cs),
(137,259,o),
(152,276,o),
(196,276,cs),
(221,276,o),
(241,269,o),
(261,259,c),
(289,340,l),
(258,354,o),
(231,362,o),
(193,362,cs),
(86,362,o),
(24,293,o),
(24,189,cs),
(24,44,o),
(73,-7,o),
(162,-7,cs)
);
}
);
};
layerId = "A7032D4A-7BCC-4736-93C1-F342117E585F";
shapes = (
{
closed = 1;
nodes = (
(244,-7,o),
(292,39,o),
(292,117,cs),
(292,198,o),
(252,228,o),
(187,228,cs),
(163,228,o),
(131,222,o),
(96,204,c),
(108,142,l),
(126,148,o),
(149,151,o),
(164,151,cs),
(178,151,o),
(184,137,o),
(184,116,cs),
(184,96,o),
(182,77,o),
(162,77,cs),
(139,77,o),
(135,102,o),
(135,170,cs),
(135,259,o),
(152,276,o),
(196,276,cs),
(221,276,o),
(241,269,o),
(261,259,c),
(289,340,l),
(258,354,o),
(231,362,o),
(193,362,cs),
(86,362,o),
(24,293,o),
(24,189,cs),
(24,44,o),
(73,-7,o),
(162,-7,cs)
);
}
);
userData = {
RMXScaler = {
height = 50.71;
weight = -45;
width = 56;
};
};
width = 316;
}
);
userData = {
"- fatto in thin
- fatto in bold  com.typemytype.robofont.guides" = (
{
angle = 0;
isGlobal = 0;
magnetic = 5;
x = 0;
y = -100;
}
);
RMXScaler = {
source = six;
};
};
},
{
glyphname = seven.dnom;
lastChange = "2022-04-14 18:46:40 +0000";
layers = (
{
background = {
shapes = (
{
closed = 1;
nodes = (
(227,278,l),
(227,312,l),
(36,312,l),
(36,284,l),
(194,284,l),
(194,280,l),
(74,0,l),
(110,0,l)
);
}
);
};
layerId = "FCCC260D-0C10-491F-B419-2EABB30545AF";
shapes = (
{
closed = 1;
nodes = (
(227,278,l),
(227,312,l),
(36,312,l),
(36,282,l),
(191,282,l),
(191,278,l),
(74,0,l),
(110,0,l)
);
}
);
userData = {
RMXScaler = {
height = 44.57;
weight = -2;
width = 48;
};
};
width = 272;
},
{
background = {
shapes = (
{
closed = 1;
nodes = (
(278,262,l),
(278,355,l),
(37,355,l),
(37,269,l),
(165,269,l),
(165,262,l),
(60,0,l),
(176,0,l)
);
}
);
};
layerId = "A7032D4A-7BCC-4736-93C1-F342117E585F";
shapes = (
{
closed = 1;
nodes = (
(278,262,l),
(278,355,l),
(37,355,l),
(37,269,l),
(165,269,l),
(165,262,l),
(60,0,l),
(176,0,l)
);
}
);
userData = {
RMXScaler = {
height = 50.71;
weight = -45;
width = 56;
};
};
width = 316;
}
);
userData = {
"- fatto in thin
- fatto in bold  com.typemytype.robofont.guides" = (
{
angle = 0;
isGlobal = 0;
magnetic = 5;
x = 0;
y = -100;
}
);
RMXScaler = {
source = seven;
};
};
},
{
glyphname = eight.dnom;
lastChange = "2022-04-14 18:46:40 +0000";
layers = (
{
background = {
shapes = (
{
closed = 1;
nodes = (
(191,-5,o),
(239,24,o),
(239,81,cs),
(239,125,o),
(213,154,o),
(172,167,c),
(171,158,l),
(214,172,o),
(234,198,o),
(234,236,cs),
(234,284,o),
(195,317,o),
(136,317,cs),
(78,317,o),
(39,284,o),
(39,236,cs),
(39,198,o),
(60,171,o),
(102,158,c),
(101,167,l),
(60,154,o),
(34,125,o),
(34,81,cs),
(34,25,o),
(81,-5,o),
(136,-5,cs)
);
},
{
closed = 1;
nodes = (
(100,22,o),
(67,43,o),
(67,84,cs),
(67,122,o),
(95,149,o),
(132,150,c),
(141,150,l),
(178,149,o),
(205,122,o),
(205,84,cs),
(205,43,o),
(173,22,o),
(136,22,cs)
);
},
{
closed = 1;
nodes = (
(96,177,o),
(72,200,o),
(72,234,cs),
(72,268,o),
(98,290,o),
(136,290,cs),
(175,290,o),
(201,268,o),
(201,234,cs),
(201,203,o),
(177,177,o),
(141,175,c),
(132,175,l)
);
}
);
};
layerId = "FCCC260D-0C10-491F-B419-2EABB30545AF";
shapes = (
{
closed = 1;
nodes = (
(191,-5,o),
(239,24,o),
(239,81,cs),
(239,125,o),
(213,154,o),
(172,167,c),
(171,158,l),
(214,172,o),
(234,198,o),
(234,236,cs),
(234,284,o),
(195,317,o),
(136,317,cs),
(78,317,o),
(39,284,o),
(39,236,cs),
(39,198,o),
(60,171,o),
(102,158,c),
(101,167,l),
(60,154,o),
(34,125,o),
(34,81,cs),
(34,25,o),
(81,-5,o),
(136,-5,cs)
);
},
{
closed = 1;
nodes = (
(102,25,o),
(68,45,o),
(68,84,cs),
(68,120,o),
(97,148,o),
(132,149,c),
(141,149,l),
(176,148,o),
(205,120,o),
(205,84,cs),
(205,45,o),
(171,25,o),
(136,25,cs)
);
},
{
closed = 1;
nodes = (
(98,178,o),
(73,202,o),
(73,234,cs),
(73,266,o),
(100,287,o),
(136,287,cs),
(173,287,o),
(200,266,o),
(200,234,cs),
(200,205,o),
(175,178,o),
(141,176,c),
(132,176,l)
);
}
);
userData = {
RMXScaler = {
height = 44.57;
weight = -2;
width = 48;
};
};
width = 272;
},
{
background = {
shapes = (
{
closed = 1;
nodes = (
(246,-7,o),
(297,38,o),
(297,97,cs),
(297,146,o),
(274,175,o),
(212,199,c),
(210,166,l),
(272,186,o),
(292,218,o),
(292,261,cs),
(292,321,o),
(237,362,o),
(158,362,cs),
(80,362,o),
(26,321,o),
(26,261,cs),
(26,218,o),
(45,186,o),
(107,166,c),
(105,199,l),
(43,175,o),
(20,146,o),
(20,97,cs),
(20,38,o),
(71,-7,o),
(158,-7,cs)
);
},
{
closed = 1;
nodes = (
(139,74,o),
(129,88,o),
(129,113,cs),
(129,130,o),
(140,143,o),
(159,143,c),
(158,143,l),
(177,143,o),
(188,130,o),
(188,113,cs),
(188,88,o),
(178,74,o),
(158,74,cs)
);
},
{
closed = 1;
nodes = (
(145,217,o),
(133,226,o),
(133,249,cs),
(133,267,o),
(143,281,o),
(158,281,cs),
(175,281,o),
(184,266,o),
(184,249,cs),
(184,225,o),
(173,217,o),
(158,217,c),
(159,217,l)
);
}
);
};
layerId = "A7032D4A-7BCC-4736-93C1-F342117E585F";
shapes = (
{
closed = 1;
nodes = (
(246,-7,o),
(297,38,o),
(297,97,cs),
(297,146,o),
(274,175,o),
(212,199,c),
(210,166,l),
(272,186,o),
(292,218,o),
(292,261,cs),
(292,321,o),
(237,362,o),
(158,362,cs),
(80,362,o),
(26,321,o),
(26,261,cs),
(26,218,o),
(45,186,o),
(107,166,c),
(105,199,l),
(43,175,o),
(20,146,o),
(20,97,cs),
(20,38,o),
(71,-7,o),
(158,-7,cs)
);
},
{
closed = 1;
nodes = (
(139,74,o),
(129,88,o),
(129,113,cs),
(129,130,o),
(140,143,o),
(159,143,c),
(158,143,l),
(177,143,o),
(188,130,o),
(188,113,cs),
(188,88,o),
(178,74,o),
(158,74,cs)
);
},
{
closed = 1;
nodes = (
(145,217,o),
(133,226,o),
(133,249,cs),
(133,267,o),
(143,281,o),
(158,281,cs),
(175,281,o),
(184,266,o),
(184,249,cs),
(184,225,o),
(173,217,o),
(158,217,c),
(159,217,l)
);
}
);
userData = {
RMXScaler = {
height = 50.71;
weight = -45;
width = 56;
};
};
width = 316;
},
{
associatedMasterId = "A7032D4A-7BCC-4736-93C1-F342117E585F";
background = {
shapes = (
{
closed = 1;
nodes = (
(373,-12,o),
(486,37,o),
(486,182,cs),
(486,290,o),
(442,335,o),
(348,374,c),
(345,329,l),
(443,365,o),
(476,417,o),
(476,509,cs),
(476,636,o),
(377,692,o),
(250,692,cs),
(123,692,o),
(24,636,o),
(24,509,cs),
(24,417,o),
(57,365,o),
(155,329,c),
(152,374,l),
(58,335,o),
(14,290,o),
(14,182,cs),
(14,37,o),
(127,-12,o),
(250,-12,cs)
);
},
{
closed = 1;
nodes = (
(199,110,o),
(169,149,o),
(169,205,cs),
(169,247,o),
(191,279,o),
(228,294,c),
(272,294,l),
(309,279,o),
(331,247,o),
(331,205,cs),
(331,149,o),
(301,110,o),
(250,110,cs)
);
},
{
closed = 1;
nodes = (
(198,418,o),
(177,455,o),
(177,492,cs),
(177,538,o),
(200,571,o),
(250,571,cs),
(300,571,o),
(323,538,o),
(323,492,cs),
(323,455,o),
(302,418,o),
(272,402,c),
(228,402,l)
);
}
);
};
layerId = "52C26023-E3B0-4FFD-AEE2-AF4C6EA89D81";
name = "17 Dec 21, 11:09";
shapes = (
{
closed = 1;
nodes = (
(424,-12,o),
(502,78,o),
(502,204,cs),
(502,301,o),
(450,368,o),
(302,413,cs),
(222,437,o),
(193,465,o),
(193,517,cs),
(193,563,o),
(222,590,o),
(261,590,cs),
(301,590,o),
(335,569,o),
(335,517,c),
(335,467,o),
(306,442,o),
(251,399,c),
(343,342,l),
(410,390,o),
(476,405,o),
(476,511,c),
(476,655,o),
(379,712,o),
(261,712,cs),
(135,712,o),
(34,649,o),
(34,508,cs),
(34,402,o),
(102,331,o),
(227,290,cs),
(315,261,o),
(343,227,o),
(343,192,cs),
(343,141,o),
(313,110,o),
(261,110,cs),
(209,110,o),
(169,137,o),
(169,191,c),
(169,256,o),
(228,299,o),
(296,316,c),
(190,379,l),
(99,360,o),
(14,292,o),
(14,187,c),
(14,45,o),
(113,-12,o),
(275,-12,cs)
);
}
);
width = 500;
}
);
userData = {
"- fatto in thin
- fatto in bold  com.typemytype.robofont.guides" = (
{
angle = 0;
isGlobal = 0;
magnetic = 5;
x = 0;
y = -100;
}
);
RMXScaler = {
source = eight;
};
};
},
{
glyphname = nine.dnom;
lastChange = "2022-04-14 18:46:40 +0000";
layers = (
{
background = {
shapes = (
{
closed = 1;
nodes = (
(127,0,l),
(200,72,o),
(237,139,o),
(237,205,cs),
(237,278,o),
(193,317,o),
(132,317,cs),
(75,317,o),
(32,277,o),
(32,216,cs),
(32,155,o),
(71,119,o),
(126,119,cs),
(160,119,o),
(192,138,o),
(208,156,c),
(206,176,l),
(189,161,o),
(163,146,o),
(131,146,cs),
(91,146,o),
(65,176,o),
(65,216,cs),
(65,259,o),
(91,289,o),
(132,289,cs),
(175,289,o),
(204,257,o),
(204,207,cs),
(204,140,o),
(164,79,o),
(84,0,c)
);
}
);
};
layerId = "FCCC260D-0C10-491F-B419-2EABB30545AF";
shapes = (
{
closed = 1;
nodes = (
(127,0,l),
(200,72,o),
(237,139,o),
(237,205,cs),
(237,278,o),
(193,317,o),
(132,317,cs),
(75,317,o),
(32,277,o),
(32,216,cs),
(32,155,o),
(71,119,o),
(126,119,cs),
(160,119,o),
(192,138,o),
(208,156,c),
(206,176,l),
(189,161,o),
(163,149,o),
(131,149,cs),
(93,149,o),
(66,178,o),
(66,216,cs),
(66,257,o),
(93,287,o),
(132,287,cs),
(173,287,o),
(203,255,o),
(203,207,cs),
(203,140,o),
(163,79,o),
(83,0,c)
);
}
);
userData = {
RMXScaler = {
height = 44.57;
weight = -2;
width = 48;
};
};
width = 272;
},
{
background = {
shapes = (
{
closed = 1;
nodes = (
(181,0,l),
(252,76,o),
(292,147,o),
(292,228,cs),
(292,320,o),
(234,362,o),
(154,362,cs),
(87,362,o),
(22,318,o),
(22,235,cs),
(22,164,o),
(72,121,o),
(130,121,cs),
(174,121,o),
(208,160,o),
(213,184,c),
(201,215,l),
(194,210,o),
(171,204,o),
(154,204,cs),
(132,204,o),
(129,226,o),
(129,238,cs),
(129,258,o),
(132,276,o),
(154,276,cs),
(184,276,o),
(183,252,o),
(183,236,cs),
(183,153,o),
(136,85,o),
(56,0,c)
);
}
);
};
layerId = "A7032D4A-7BCC-4736-93C1-F342117E585F";
shapes = (
{
closed = 1;
nodes = (
(181,0,l),
(252,76,o),
(292,147,o),
(292,228,cs),
(292,320,o),
(234,362,o),
(154,362,cs),
(77,362,o),
(22,309,o),
(22,235,cs),
(22,164,o),
(72,121,o),
(130,121,cs),
(174,121,o),
(208,160,o),
(213,184,c),
(199,217,l),
(188,209,o),
(169,204,o),
(154,204,cs),
(141,204,o),
(129,219,o),
(129,238,cs),
(129,263,o),
(138,276,o),
(154,276,cs),
(173,276,o),
(183,263,o),
(183,236,cs),
(183,153,o),
(136,85,o),
(56,0,c)
);
}
);
userData = {
RMXScaler = {
height = 50.71;
weight = -45;
width = 56;
};
};
width = 316;
}
);
userData = {
"- fatto in thin
- fatto in bold  com.typemytype.robofont.guides" = (
{
angle = 0;
isGlobal = 0;
magnetic = 5;
x = 0;
y = -100;
}
);
RMXScaler = {
source = nine;
};
};
},
{
color = 10;
glyphname = zerosuperior;
lastChange = "2022-04-14 19:02:25 +0000";
layers = (
{
background = {
shapes = (
{
closed = 1;
nodes = (
(197,469,o),
(238,511,o),
(238,635,cs),
(238,758,o),
(199,799,o),
(135,799,cs),
(73,799,o),
(33,758,o),
(33,636,cs),
(33,511,o),
(75,469,o),
(136,469,cs)
);
},
{
closed = 1;
nodes = (
(93,502,o),
(67,537,o),
(67,635,cs),
(67,726,o),
(89,766,o),
(135,766,cs),
(182,766,o),
(204,726,o),
(204,636,cs),
(204,537,o),
(179,502,o),
(136,502,cs)
);
}
);
};
layerId = "FCCC260D-0C10-491F-B419-2EABB30545AF";
shapes = (
{
pos = (0,483);
ref = zero.dnom;
}
);
width = 272;
},
{
background = {
shapes = (
{
closed = 1;
nodes = (
(253,368,o),
(289,417,o),
(289,551,cs),
(289,685,o),
(253,733,o),
(155,733,cs),
(61,733,o),
(22,684,o),
(22,551,cs),
(22,416,o),
(60,368,o),
(156,368,cs)
);
},
{
closed = 1;
nodes = (
(136,458,o),
(126,469,o),
(126,551,cs),
(126,628,o),
(134,644,o),
(155,644,cs),
(179,644,o),
(187,628,o),
(187,551,cs),
(187,471,o),
(177,458,o),
(156,458,cs)
);
}
);
};
layerId = "A7032D4A-7BCC-4736-93C1-F342117E585F";
shapes = (
{
pos = (0,440);
ref = zero.dnom;
}
);
width = 316;
}
);
unicode = 8304;
userData = {
"- fatto in thin
- fatto in bold  com.typemytype.robofont.guides" = (
{
angle = 0;
isGlobal = 0;
magnetic = 5;
x = 0;
y = 378;
},
{
angle = 0;
isGlobal = 0;
magnetic = 5;
x = 0;
y = 792;
},
{
angle = 0;
isGlobal = 0;
magnetic = 5;
x = 0;
y = 378;
},
{
angle = 90;
isGlobal = 0;
magnetic = 5;
x = 2709;
y = 0;
},
{
angle = 90;
isGlobal = 0;
magnetic = 5;
x = 2686;
y = 0;
},
{
angle = 90;
isGlobal = 0;
magnetic = 5;
x = 3966;
y = 0;
}
);
};
},
{
color = 10;
glyphname = onesuperior;
lastChange = "2022-04-14 19:02:25 +0000";
layers = (
{
background = {
shapes = (
{
closed = 1;
nodes = (
(174,478,l),
(174,790,l),
(140,790,l),
(49,723,l),
(65,695,l),
(139,751,l),
(139,478,l)
);
}
);
};
layerId = "FCCC260D-0C10-491F-B419-2EABB30545AF";
shapes = (
{
pos = (0,483);
ref = one.dnom;
}
);
width = 272;
},
{
background = {
shapes = (
{
closed = 1;
nodes = (
(245,373,l),
(245,728,l),
(146,728,l),
(30,652,l),
(63,563,l),
(132,603,l),
(132,373,l)
);
}
);
};
layerId = "A7032D4A-7BCC-4736-93C1-F342117E585F";
shapes = (
{
pos = (0,440);
ref = one.dnom;
}
);
width = 316;
}
);
unicode = 185;
userData = {
"- fatto in thin
- fatto in bold  com.typemytype.robofont.guides" = (
{
angle = 0;
isGlobal = 0;
magnetic = 5;
x = 0;
y = 378;
}
);
};
},
{
color = 10;
glyphname = twosuperior;
lastChange = "2022-04-14 19:02:25 +0000";
layers = (
{
background = {
shapes = (
{
closed = 1;
nodes = (
(219,478,l),
(219,511,l),
(83,511,l),
(154,594,ls),
(188,633,o),
(213,663,o),
(213,714,cs),
(213,771,o),
(184,799,o),
(130,799,cs),
(100,799,o),
(64,792,o),
(44,786,c),
(46,757,l),
(67,761,o),
(107,767,o),
(127,767,cs),
(156,767,o),
(179,751,o),
(179,715,cs),
(179,676,o),
(155,646,o),
(130,616,cs),
(41,509,l),
(41,478,l)
);
}
);
};
layerId = "FCCC260D-0C10-491F-B419-2EABB30545AF";
shapes = (
{
pos = (0,483);
ref = two.dnom;
}
);
width = 272;
},
{
background = {
shapes = (
{
closed = 1;
nodes = (
(264,373,l),
(264,462,l),
(159,462,l),
(193,498,ls),
(250,555,o),
(267,587,o),
(267,629,cs),
(267,700,o),
(233,735,o),
(151,735,cs),
(119,735,o),
(74,729,o),
(44,722,c),
(48,640,l),
(68,643,o),
(106,647,o),
(126,647,cs),
(156,647,o),
(170,637,o),
(170,617,cs),
(170,588,o),
(150,569,o),
(123,541,cs),
(42,458,l),
(42,373,l)
);
}
);
};
layerId = "A7032D4A-7BCC-4736-93C1-F342117E585F";
shapes = (
{
pos = (0,440);
ref = two.dnom;
}
);
width = 316;
}
);
unicode = 178;
userData = {
"- fatto in thin
- fatto in bold  com.typemytype.robofont.guides" = (
{
angle = 0;
isGlobal = 0;
magnetic = 5;
x = 0;
y = 378;
}
);
};
},
{
color = 10;
glyphname = threesuperior;
lastChange = "2022-04-14 19:02:25 +0000";
layers = (
{
background = {
shapes = (
{
closed = 1;
nodes = (
(200,469,o),
(231,499,o),
(231,566,cs),
(231,619,o),
(212,633,o),
(180,643,c),
(201,651,o),
(222,676,o),
(222,722,cs),
(222,775,o),
(194,799,o),
(134,799,cs),
(108,799,o),
(69,794,o),
(46,790,c),
(49,757,l),
(68,761,o),
(109,766,o),
(131,766,cs),
(170,766,o),
(188,753,o),
(188,722,cs),
(188,683,o),
(162,656,o),
(143,656,cs),
(83,656,l),
(83,623,l),
(143,623,ls),
(172,623,o),
(197,607,o),
(197,562,cs),
(197,521,o),
(176,502,o),
(132,502,cs),
(110,502,o),
(66,507,o),
(45,511,c),
(42,480,l),
(65,475,o),
(109,469,o),
(137,469,cs)
);
}
);
};
layerId = "FCCC260D-0C10-491F-B419-2EABB30545AF";
shapes = (
{
pos = (0,483);
ref = three.dnom;
}
);
width = 272;
},
{
background = {
shapes = (
{
closed = 1;
nodes = (
(236,368,o),
(278,401,o),
(278,481,cs),
(278,527,o),
(263,545,o),
(237,560,c),
(260,573,o),
(273,595,o),
(273,634,cs),
(273,702,o),
(232,734,o),
(153,734,cs),
(118,734,o),
(68,727,o),
(40,721,c),
(44,642,l),
(64,644,o),
(104,648,o),
(126,648,cs),
(154,648,o),
(169,641,o),
(169,623,cs),
(169,604,o),
(156,593,o),
(138,593,cs),
(70,593,l),
(70,514,l),
(141,514,ls),
(163,514,o),
(174,505,o),
(174,484,cs),
(174,461,o),
(160,454,o),
(133,454,cs),
(110,454,o),
(66,458,o),
(40,461,c),
(37,381,l),
(66,375,o),
(117,368,o),
(154,368,cs)
);
}
);
};
layerId = "A7032D4A-7BCC-4736-93C1-F342117E585F";
shapes = (
{
pos = (0,440);
ref = three.dnom;
}
);
width = 316;
}
);
unicode = 179;
userData = {
"- fatto in thin
- fatto in bold  com.typemytype.robofont.guides" = (
{
angle = 0;
isGlobal = 0;
magnetic = 5;
x = 0;
y = 378;
}
);
};
},
{
color = 10;
glyphname = foursuperior;
lastChange = "2022-04-14 19:02:25 +0000";
layers = (
{
background = {
shapes = (
{
closed = 1;
nodes = (
(204,478,l),
(204,535,l),
(237,535,l),
(237,568,l),
(204,568,l),
(204,656,l),
(170,656,l),
(170,568,l),
(75,568,l),
(153,790,l),
(116,790,l),
(36,566,l),
(36,535,l),
(170,535,l),
(170,478,l)
);
}
);
};
layerId = "FCCC260D-0C10-491F-B419-2EABB30545AF";
shapes = (
{
pos = (0,483);
ref = four.dnom;
}
);
width = 272;
},
{
background = {
shapes = (
{
closed = 1;
nodes = (
(272,373,l),
(272,421,l),
(290,421,l),
(290,508,l),
(272,508,l),
(272,588,l),
(169,579,l),
(166,508,l),
(123,508,l),
(193,728,l),
(78,728,l),
(23,498,l),
(23,421,l),
(166,421,l),
(166,373,l)
);
}
);
};
layerId = "A7032D4A-7BCC-4736-93C1-F342117E585F";
shapes = (
{
pos = (0,440);
ref = four.dnom;
}
);
width = 316;
}
);
unicode = 8308;
userData = {
"- fatto in thin  com.typemytype.robofont.guides" = (
{
angle = 0;
isGlobal = 0;
magnetic = 5;
x = 0;
y = 378;
}
);
};
},
{
color = 10;
glyphname = fivesuperior;
lastChange = "2022-04-14 19:02:25 +0000";
layers = (
{
background = {
shapes = (
{
closed = 1;
nodes = (
(200,469,o),
(232,504,o),
(232,576,cs),
(232,651,o),
(194,673,o),
(147,673,cs),
(123,673,o),
(97,661,o),
(86,652,c),
(91,757,l),
(222,757,l),
(222,790,l),
(62,790,l),
(54,620,l),
(84,618,l),
(95,627,o),
(121,640,o),
(146,640,cs),
(173,640,o),
(197,626,o),
(197,576,cs),
(197,530,o),
(180,502,o),
(142,502,cs),
(114,502,o),
(74,507,o),
(53,511,c),
(50,481,l),
(72,476,o),
(113,469,o),
(142,469,cs)
);
}
);
};
layerId = "FCCC260D-0C10-491F-B419-2EABB30545AF";
shapes = (
{
pos = (0,483);
ref = five.dnom;
}
);
width = 272;
},
{
background = {
shapes = (
{
closed = 1;
nodes = (
(238,369,o),
(286,402,o),
(286,492,cs),
(286,580,o),
(248,604,o),
(178,604,cs),
(160,604,o),
(136,597,o),
(124,592,c),
(127,640,l),
(274,640,l),
(274,728,l),
(51,728,l),
(42,511,l),
(110,503,l),
(119,507,o),
(139,513,o),
(154,513,cs),
(171,513,o),
(183,506,o),
(183,484,cs),
(183,463,o),
(170,452,o),
(150,452,cs),
(118,452,o),
(69,458,o),
(42,463,c),
(34,387,l),
(70,378,o),
(125,369,o),
(160,369,cs)
);
}
);
};
layerId = "A7032D4A-7BCC-4736-93C1-F342117E585F";
shapes = (
{
pos = (0,440);
ref = five.dnom;
}
);
width = 316;
}
);
unicode = 8309;
userData = {
"- fatto in thin
- fatto in bold  com.typemytype.robofont.guides" = (
{
angle = 0;
isGlobal = 0;
magnetic = 5;
x = 0;
y = 378;
}
);
};
},
{
color = 10;
glyphname = sixsuperior;
lastChange = "2022-04-14 19:02:25 +0000";
layers = (
{
background = {
shapes = (
{
closed = 1;
nodes = (
(200,469,o),
(236,512,o),
(236,579,cs),
(236,643,o),
(206,680,o),
(143,680,cs),
(120,680,o),
(91,667,o),
(82,662,c),
(79,661,o),
(79,660,o),
(77,660,c),
(78,737,o),
(102,766,o),
(148,766,cs),
(169,766,o),
(198,763,o),
(220,759,c),
(222,790,l),
(204,794,o),
(172,799,o),
(148,799,cs),
(80,799,o),
(42,756,o),
(42,633,cs),
(42,524,o),
(75,469,o),
(140,469,cs)
);
},
{
closed = 1;
nodes = (
(93,502,o),
(79,546,o),
(76,625,c),
(76,626,o),
(110,648,o),
(142,648,cs),
(184,648,o),
(202,629,o),
(202,579,cs),
(202,538,o),
(186,502,o),
(140,502,cs)
);
}
);
};
layerId = "FCCC260D-0C10-491F-B419-2EABB30545AF";
shapes = (
{
pos = (0,483);
ref = six.dnom;
}
);
width = 272;
},
{
background = {
shapes = (
{
closed = 1;
nodes = (
(234,368,o),
(287,406,o),
(287,490,cs),
(287,571,o),
(249,607,o),
(171,607,cs),
(154,607,o),
(136,600,o),
(128,597,c),
(126,596,o),
(126,595,o),
(123,595,c),
(125,632,o),
(138,650,o),
(169,650,cs),
(197,650,o),
(241,646,o),
(265,642,c),
(272,719,l),
(238,726,o),
(194,733,o),
(166,733,cs),
(83,733,o),
(29,685,o),
(29,546,cs),
(29,431,o),
(67,368,o),
(159,368,cs)
);
},
{
closed = 1;
nodes = (
(131,450,o),
(124,474,o),
(123,516,c),
(133,522,o),
(147,528,o),
(159,528,cs),
(180,528,o),
(190,517,o),
(190,490,cs),
(190,467,o),
(181,450,o),
(158,450,cs)
);
}
);
};
layerId = "A7032D4A-7BCC-4736-93C1-F342117E585F";
shapes = (
{
pos = (0,440);
ref = six.dnom;
}
);
width = 316;
}
);
unicode = 8310;
userData = {
"- fatto in thin
- fatto in bold  com.typemytype.robofont.guides" = (
{
angle = 0;
isGlobal = 0;
magnetic = 5;
x = 0;
y = 378;
}
);
};
},
{
color = 10;
glyphname = sevensuperior;
lastChange = "2022-04-14 19:02:25 +0000";
layers = (
{
background = {
shapes = (
{
closed = 1;
nodes = (
(214,729,l),
(214,790,l),
(37,790,l),
(37,756,l),
(178,756,l),
(178,731,l),
(79,479,l),
(112,470,l)
);
}
);
};
layerId = "FCCC260D-0C10-491F-B419-2EABB30545AF";
shapes = (
{
pos = (0,483);
ref = seven.dnom;
}
);
width = 272;
},
{
background = {
shapes = (
{
closed = 1;
nodes = (
(268,624,l),
(268,728,l),
(41,728,l),
(41,628,l),
(162,628,l),
(162,611,l),
(69,389,l),
(170,368,l)
);
}
);
};
layerId = "A7032D4A-7BCC-4736-93C1-F342117E585F";
shapes = (
{
pos = (0,440);
ref = seven.dnom;
}
);
width = 316;
}
);
unicode = 8311;
userData = {
"- fatto in thin
- fatto in bold  com.typemytype.robofont.guides" = (
{
angle = 0;
isGlobal = 0;
magnetic = 5;
x = 0;
y = 378;
}
);
};
},
{
color = 10;
glyphname = eightsuperior;
lastChange = "2022-04-14 19:02:25 +0000";
layers = (
{
background = {
shapes = (
{
closed = 1;
nodes = (
(197,469,o),
(238,496,o),
(238,563,cs),
(238,610,o),
(221,632,o),
(185,644,c),
(224,657,o),
(233,676,o),
(233,717,cs),
(233,775,o),
(199,799,o),
(136,799,cs),
(72,799,o),
(39,774,o),
(39,717,cs),
(39,674,o),
(53,658,o),
(87,644,c),
(52,628,o),
(34,610,o),
(34,557,cs),
(34,491,o),
(79,469,o),
(136,469,cs)
);
},
{
closed = 1;
nodes = (
(95,502,o),
(68,519,o),
(68,559,cs),
(68,602,o),
(86,618,o),
(120,628,c),
(152,628,l),
(188,618,o),
(204,601,o),
(204,562,cs),
(204,519,o),
(179,502,o),
(136,502,cs)
);
},
{
closed = 1;
nodes = (
(120,660,l),
(85,672,o),
(73,684,o),
(73,717,cs),
(73,749,o),
(91,766,o),
(136,766,cs),
(181,766,o),
(200,749,o),
(200,716,cs),
(200,683,o),
(188,671,o),
(152,660,c)
);
}
);
};
layerId = "FCCC260D-0C10-491F-B419-2EABB30545AF";
shapes = (
{
pos = (0,483);
ref = eight.dnom;
}
);
width = 272;
},
{
background = {
shapes = (
{
closed = 1;
nodes = (
(230,368,o),
(289,390,o),
(289,472,cs),
(289,522,o),
(273,541,o),
(240,556,c),
(268,572,o),
(285,590,o),
(285,639,cs),
(285,712,o),
(232,733,o),
(155,733,cs),
(81,733,o),
(28,707,o),
(28,639,cs),
(28,587,o),
(47,572,o),
(73,557,c),
(43,539,o),
(22,523,o),
(22,471,cs),
(22,391,o),
(82,368,o),
(155,368,cs)
);
},
{
closed = 1;
nodes = (
(136,445,o),
(125,456,o),
(125,479,cs),
(125,499,o),
(135,514,o),
(148,521,c),
(166,521,l),
(177,515,o),
(188,501,o),
(188,480,cs),
(188,455,o),
(176,445,o),
(155,445,cs)
);
},
{
closed = 1;
nodes = (
(148,590,l),
(135,599,o),
(128,610,o),
(128,626,cs),
(128,646,o),
(136,657,o),
(155,657,cs),
(176,657,o),
(185,646,o),
(185,626,cs),
(185,608,o),
(176,596,o),
(166,590,c)
);
}
);
};
layerId = "A7032D4A-7BCC-4736-93C1-F342117E585F";
shapes = (
{
pos = (0,440);
ref = eight.dnom;
}
);
width = 316;
}
);
unicode = 8312;
userData = {
"- fatto in thin
- fatto in bold  com.typemytype.robofont.guides" = (
{
angle = 0;
isGlobal = 0;
magnetic = 5;
x = 0;
y = 378;
}
);
};
},
{
color = 10;
glyphname = ninesuperior;
lastChange = "2022-04-14 19:02:25 +0000";
layers = (
{
background = {
shapes = (
{
closed = 1;
nodes = (
(197,469,o),
(234,517,o),
(234,631,cs),
(234,746,o),
(200,799,o),
(133,799,cs),
(79,799,o),
(38,762,o),
(38,694,cs),
(38,630,o),
(73,590,o),
(129,590,cs),
(151,590,o),
(182,599,o),
(201,607,c),
(200,538,o),
(176,502,o),
(125,502,cs),
(102,502,o),
(69,506,o),
(53,509,c),
(50,479,l),
(67,475,o),
(102,469,o),
(126,469,cs)
);
},
{
closed = 1;
nodes = (
(94,622,o),
(72,654,o),
(72,695,cs),
(72,741,o),
(96,766,o),
(134,766,cs),
(180,766,o),
(200,726,o),
(201,640,c),
(184,632,o),
(152,622,o),
(131,622,cs)
);
}
);
};
layerId = "FCCC260D-0C10-491F-B419-2EABB30545AF";
shapes = (
{
pos = (0,483);
ref = nine.dnom;
}
);
width = 272;
},
{
background = {
shapes = (
{
closed = 1;
nodes = (
(232,368,o),
(284,415,o),
(284,552,cs),
(284,673,o),
(245,733,o),
(153,733,cs),
(82,733,o),
(29,695,o),
(29,613,cs),
(29,533,o),
(70,495,o),
(141,495,cs),
(154,495,o),
(174,500,o),
(190,506,c),
(188,471,o),
(175,452,o),
(143,452,cs),
(114,452,o),
(70,456,o),
(47,459,c),
(40,384,l,{
name = hr00;
}),
(73,376,o),
(120,368,o),
(149,368,cs)
);
},
{
closed = 1;
nodes = (
(135,573,o),
(122,588,o),
(122,612,cs),
(122,637,o),
(134,651,o),
(154,651,cs),
(180,651,o),
(190,632,o),
(191,583,c),
(182,579,o),
(167,573,o),
(153,573,cs)
);
}
);
};
layerId = "A7032D4A-7BCC-4736-93C1-F342117E585F";
shapes = (
{
pos = (0,440);
ref = nine.dnom;
}
);
width = 316;
}
);
unicode = 8313;
userData = {
"- fatto in thin
- fatto in bold  com.typemytype.robofont.guides" = (
{
angle = 0;
isGlobal = 0;
magnetic = 5;
x = 0;
y = 378;
}
);
};
},
{
glyphname = fraction;
lastChange = "2022-04-14 18:46:40 +0000";
layers = (
{
background = {
shapes = (
{
closed = 1;
nodes = (
(211,660,l),
(173,660,l),
(-197,10,l),
(-157,10,l)
);
}
);
};
layerId = "FCCC260D-0C10-491F-B419-2EABB30545AF";
shapes = (
{
closed = 1;
nodes = (
(234,700,l),
(196,700,l),
(-203,0,l),
(-163,0,l)
);
}
);
width = 20;
},
{
background = {
shapes = (
{
closed = 1;
nodes = (
(292,709,l),
(176,709,l),
(-165,-29,l),
(-49,-29,l)
);
}
);
};
layerId = "A7032D4A-7BCC-4736-93C1-F342117E585F";
shapes = (
{
closed = 1;
nodes = (
(288,700,l),
(172,700,l),
(-152,0,l),
(-36,0,l)
);
}
);
width = 130;
}
);
unicode = 8260;
},
{
glyphname = percent;
kernLeft = percent;
lastChange = "2022-04-14 18:46:40 +0000";
layers = (
{
background = {
shapes = (
{
closed = 1;
nodes = (
(367,660,l),
(337,669,l),
(168,-1,l),
(196,-9,l)
);
},
{
closed = 1;
nodes = (
(192,397,o),
(232,450,o),
(232,535,cs),
(232,620,o),
(193,669,o),
(136,669,cs),
(80,669,o),
(42,621,o),
(42,536,cs),
(42,449,o),
(81,397,o),
(136,397,cs)
);
},
{
closed = 1;
nodes = (
(93,429,o),
(76,478,o),
(76,536,cs),
(76,593,o),
(93,637,o),
(136,637,cs),
(182,637,o),
(198,592,o),
(198,535,cs),
(198,478,o),
(182,429,o),
(136,429,cs)
);
},
{
closed = 1;
nodes = (
(448,-9,o),
(487,44,o),
(487,129,cs),
(487,215,o),
(448,263,o),
(393,263,cs),
(335,263,o),
(297,214,o),
(297,130,cs),
(297,44,o),
(336,-9,o),
(393,-9,cs)
);
},
{
closed = 1;
nodes = (
(348,23,o),
(331,73,o),
(331,130,cs),
(331,186,o),
(348,231,o),
(393,231,cs),
(437,231,o),
(453,186,o),
(453,129,cs),
(453,72,o),
(437,23,o),
(393,23,cs)
);
}
);
};
layerId = "FCCC260D-0C10-491F-B419-2EABB30545AF";
shapes = (
{
closed = 1;
nodes = (
(185,0,l),
(355,660,l),
(322,660,l),
(154,0,l)
);
},
{
closed = 1;
nodes = (
(440,-8,o),
(479,42,o),
(479,128,cs),
(479,216,o),
(441,264,o),
(383,264,cs),
(325,264,o),
(287,216,o),
(287,128,cs),
(287,42,o),
(326,-8,o),
(383,-8,cs)
);
},
{
closed = 1;
nodes = (
(336,21,o),
(318,69,o),
(318,128,cs),
(318,190,o),
(336,235,o),
(383,235,cs),
(430,235,o),
(448,190,o),
(448,128,cs),
(448,69,o),
(430,21,o),
(383,21,cs)
);
},
{
closed = 1;
nodes = (
(182,396,o),
(221,446,o),
(221,532,cs),
(221,620,o),
(183,668,o),
(125,668,cs),
(67,668,o),
(29,620,o),
(29,532,cs),
(29,446,o),
(68,396,o),
(125,396,cs)
);
},
{
closed = 1;
nodes = (
(78,425,o),
(60,473,o),
(60,532,cs),
(60,594,o),
(78,639,o),
(125,639,cs),
(172,639,o),
(190,594,o),
(190,532,cs),
(190,473,o),
(172,425,o),
(125,425,cs)
);
}
);
width = 507;
},
{
background = {
shapes = (
{
closed = 1;
nodes = (
(401,679,l),
(357,692,l),
(189,-32,l),
(233,-44,l)
);
},
{
closed = 1;
nodes = (
(235,349,o),
(270,408,o),
(270,510,cs),
(270,613,o),
(236,669,o),
(148,669,cs),
(63,669,o),
(27,612,o),
(27,510,cs),
(27,409,o),
(62,349,o),
(148,349,cs)
);
},
{
closed = 1;
nodes = (
(127,430,o),
(122,458,o),
(122,510,cs),
(122,564,o),
(127,589,o),
(148,589,cs),
(171,589,o),
(177,564,o),
(177,510,cs),
(177,457,o),
(170,430,o),
(148,430,cs)
);
},
{
closed = 1;
nodes = (
(533,-11,o),
(567,48,o),
(567,149,cs),
(567,251,o),
(533,308,o),
(447,308,cs),
(361,308,o),
(325,251,o),
(325,150,cs),
(325,47,o),
(360,-11,o),
(447,-11,cs)
);
},
{
closed = 1;
nodes = (
(425,69,o),
(419,96,o),
(419,150,cs),
(419,204,o),
(425,228,o),
(447,228,cs),
(468,228,o),
(474,203,o),
(474,149,cs),
(474,97,o),
(467,69,o),
(447,69,cs)
);
}
);
};
layerId = "A7032D4A-7BCC-4736-93C1-F342117E585F";
shapes = (
{
closed = 1;
nodes = (
(246,0,l),
(399,660,l),
(353,660,l),
(200,0,l)
);
},
{
closed = 1;
nodes = (
(529,-8,o),
(571,47,o),
(571,153,cs),
(571,258,o),
(530,312,o),
(449,312,cs),
(368,312,o),
(327,258,o),
(327,153,cs),
(327,47,o),
(369,-8,o),
(449,-8,cs)
);
},
{
closed = 1;
nodes = (
(429,73,o),
(422,94,o),
(422,153,cs),
(422,211,o),
(429,232,o),
(449,232,cs),
(469,232,o),
(476,211,o),
(476,153,cs),
(476,94,o),
(469,73,o),
(449,73,cs)
);
},
{
closed = 1;
nodes = (
(231,348,o),
(273,403,o),
(273,509,cs),
(273,614,o),
(232,668,o),
(151,668,cs),
(70,668,o),
(29,614,o),
(29,509,cs),
(29,403,o),
(71,348,o),
(151,348,cs)
);
},
{
closed = 1;
nodes = (
(131,429,o),
(124,450,o),
(124,509,cs),
(124,567,o),
(131,588,o),
(151,588,cs),
(171,588,o),
(178,567,o),
(178,509,cs),
(178,450,o),
(171,429,o),
(151,429,cs)
);
}
);
width = 599;
}
);
unicode = 37;
},
{
color = 11;
glyphname = perthousand;
kernLeft = percent;
lastChange = "2022-04-14 18:46:40 +0000";
layers = (
{
background = {
shapes = (
{
closed = 1;
nodes = (
(684,-9,o),
(724,44,o),
(724,129,cs),
(724,214,o),
(685,263,o),
(628,263,cs),
(572,263,o),
(534,215,o),
(534,130,cs),
(534,43,o),
(573,-9,o),
(628,-9,cs)
);
},
{
closed = 1;
nodes = (
(585,23,o),
(568,71,o),
(568,130,cs),
(568,187,o),
(585,231,o),
(628,231,cs),
(674,231,o),
(690,186,o),
(690,129,cs),
(690,72,o),
(674,23,o),
(628,23,cs)
);
},
{
ref = percent;
}
);
};
layerId = "FCCC260D-0C10-491F-B419-2EABB30545AF";
shapes = (
{
closed = 1;
nodes = (
(680,-8,o),
(719,42,o),
(719,128,cs),
(719,216,o),
(681,264,o),
(623,264,cs),
(565,264,o),
(527,216,o),
(527,128,cs),
(527,42,o),
(566,-8,o),
(623,-8,cs)
);
},
{
closed = 1;
nodes = (
(576,21,o),
(558,69,o),
(558,128,cs),
(558,190,o),
(576,235,o),
(623,235,cs),
(670,235,o),
(688,190,o),
(688,128,cs),
(688,69,o),
(670,21,o),
(623,21,cs)
);
},
{
alignment = -1;
ref = percent;
}
);
width = 745;
},
{
background = {
shapes = (
{
closed = 1;
nodes = (
(800,-11,o),
(835,47,o),
(835,149,cs),
(835,252,o),
(801,308,o),
(714,308,cs),
(629,308,o),
(593,251,o),
(593,150,cs),
(593,48,o),
(627,-11,o),
(714,-11,cs)
);
},
{
closed = 1;
nodes = (
(692,69,o),
(686,97,o),
(686,150,cs),
(686,203,o),
(692,228,o),
(714,228,cs),
(736,228,o),
(741,203,o),
(741,149,cs),
(741,97,o),
(735,69,o),
(714,69,cs)
);
},
{
ref = percent;
}
);
};
layerId = "A7032D4A-7BCC-4736-93C1-F342117E585F";
shapes = (
{
closed = 1;
nodes = (
(801,-8,o),
(843,47,o),
(843,153,cs),
(843,258,o),
(802,312,o),
(721,312,cs),
(640,312,o),
(599,258,o),
(599,153,cs),
(599,47,o),
(641,-8,o),
(721,-8,cs)
);
},
{
closed = 1;
nodes = (
(701,73,o),
(694,94,o),
(694,153,cs),
(694,211,o),
(701,232,o),
(721,232,cs),
(741,232,o),
(748,211,o),
(748,153,cs),
(748,94,o),
(741,73,o),
(721,73,cs)
);
},
{
alignment = -1;
ref = percent;
}
);
width = 869;
}
);
unicode = 8240;
},
{
color = 11;
glyphname = dollar;
lastChange = "2022-04-14 18:46:40 +0000";
layers = (
{
anchors = (
{
name = bottom;
pos = (278.955,0);
},
{
name = top;
pos = (278.955,658.7);
}
);
background = {
shapes = (
{
closed = 1;
nodes = (
(234,-120,l),
(341,790,l),
(309,790,l),
(201,-120,l)
);
},
{
pos = (27,0);
ref = S;
scale = (0.941,0.941);
}
);
};
layerId = "FCCC260D-0C10-491F-B419-2EABB30545AF";
shapes = (
{
closed = 1;
nodes = (
(246,-120,l),
(353,790,l),
(321,790,l),
(213,-120,l)
);
},
{
alignment = -1;
pos = (40.944,-3);
ref = S;
scale = (0.944,0.944);
}
);
width = 532;
},
{
anchors = (
{
name = bottom;
pos = (254.308,0);
},
{
name = top;
pos = (260.111,677.11);
}
);
background = {
shapes = (
{
closed = 1;
nodes = (
(254,-120,l),
(343,790,l),
(288,790,l),
(200,-120,l)
);
},
{
pos = (6,0);
ref = S;
scale = (0.9672,0.9673);
}
);
};
layerId = "A7032D4A-7BCC-4736-93C1-F342117E585F";
shapes = (
{
closed = 1;
nodes = (
(246,-120,l),
(335,790,l),
(280,790,l),
(192,-120,l)
);
},
{
alignment = -1;
pos = (1.809,0);
ref = S;
scale = (0.9681,0.9681);
}
);
width = 532;
}
);
unicode = 36;
},
{
color = 11;
glyphname = cent;
lastChange = "2022-04-14 18:46:40 +0000";
layers = (
{
background = {
shapes = (
{
closed = 1;
nodes = (
(334,40,o),
(369,45,o),
(407,55,c),
(400,90,l),
(372,82,o),
(334,77,o),
(286,77,cs),
(186,77,o),
(147,135,o),
(147,247,cs),
(147,355,o),
(190,425,o),
(277,425,cs),
(322,425,o),
(361,421,o),
(399,411,c),
(405,445,l),
(372,456,o),
(332,461,o),
(275,461,c),
(168,460,o),
(107,381,o),
(107,247,cs),
(107,100,o),
(168,43,o),
(276,41,cs)
);
},
{
closed = 1;
nodes = (
(300,-85,l),
(300,49,l),
(267,49,l),
(267,-85,l)
);
},
{
closed = 1;
nodes = (
(300,591,l),
(266,591,l),
(266,452,l),
(300,451,l)
);
}
);
};
layerId = "FCCC260D-0C10-491F-B419-2EABB30545AF";
shapes = (
{
closed = 1;
nodes = (
(267,-120,l),
(267,8,l),
(234,8,l),
(234,-120,l)
);
},
{
closed = 1;
nodes = (
(267,620,l),
(235,620,l),
(235,492,l),
(267,491,l)
);
},
{
alignment = -1;
pos = (3,0);
ref = c;
}
);
width = 406;
},
{
background = {
shapes = (
{
closed = 1;
nodes = (
(368,41,o),
(405,50,o),
(453,60,c),
(438,166,l),
(385,159,o),
(348,158,o),
(312,158,cs),
(251,158,o),
(223,194,o),
(223,251,cs),
(223,299,o),
(253,346,o),
(310,346,cs),
(353,346,o),
(404,342,o),
(438,337,c),
(453,445,l),
(404,456,o),
(362,463,o),
(279,466,c),
(142,468,o),
(70,387,o),
(70,251,cs),
(70,104,o),
(136,39,o),
(280,39,c)
);
},
{
closed = 1;
nodes = (
(312,-84,l),
(312,56,l),
(251,54,l),
(251,-84,l,{
name = hr00;
})
);
},
{
closed = 1;
nodes = (
(312,587,l),
(250,587,l),
(250,450,l),
(312,448,l)
);
}
);
};
layerId = "A7032D4A-7BCC-4736-93C1-F342117E585F";
shapes = (
{
closed = 1;
nodes = (
(295,-120,l),
(295,56,l),
(241,54,l),
(241,-120,l,{
name = hr00;
})
);
},
{
closed = 1;
nodes = (
(295,644,l),
(241,644,l),
(241,506,l),
(295,504,l)
);
},
{
alignment = -1;
pos = (1,0);
ref = c;
}
);
width = 471;
}
);
unicode = 162;
},
{
glyphname = sterling;
lastChange = "2022-04-14 18:46:40 +0000";
layers = (
{
background = {
shapes = (
{
closed = 1;
nodes = (
(104,406,l),
(104,374,l),
(368,374,l),
(368,406,l)
);
},
{
closed = 1;
nodes = (
(84,34,l),
(84,0,l),
(367,0,l),
(441,18,l),
(434,50,l),
(360,34,l)
);
},
{
closed = 1;
nodes = (
(167,25,l),
(202,25,l),
(202,454,ls),
(202,593,o),
(241,637,o),
(305,637,cs),
(346,637,o),
(369,632,o),
(399,625,c),
(405,657,l),
(373,665,o),
(348,669,o),
(304,669,cs),
(222,669,o),
(167,621,o),
(167,458,cs)
);
}
);
};
layerId = "FCCC260D-0C10-491F-B419-2EABB30545AF";
shapes = (
{
closed = 1;
nodes = (
(49,406,l),
(49,374,l),
(313,374,l),
(313,406,l)
);
},
{
closed = 1;
nodes = (
(29,34,l),
(29,0,l),
(312,0,l),
(386,18,l),
(379,50,l),
(305,34,l)
);
},
{
closed = 1;
nodes = (
(112,23,l),
(147,23,l),
(147,462,ls),
(147,601,o),
(186,645,o),
(250,645,cs),
(291,645,o),
(314,640,o),
(344,633,c),
(350,665,l),
(318,673,o),
(293,677,o),
(249,677,cs),
(167,677,o),
(112,629,o),
(112,466,cs)
);
}
);
width = 412;
},
{
background = {
shapes = (
{
closed = 1;
nodes = (
(63,402,l),
(63,338,l),
(404,338,l),
(404,402,l)
);
},
{
closed = 1;
nodes = (
(57,118,l),
(57,0,l),
(385,0,l),
(481,17,l),
(466,133,l),
(373,118,l)
);
},
{
closed = 1;
nodes = (
(123,102,l),
(263,102,l),
(263,440,ls),
(263,508,o),
(280,552,o),
(335,552,cs),
(380,552,o),
(409,548,o),
(439,545,c),
(453,651,l),
(417,659,o),
(360,670,o),
(314,670,cs),
(197,670,o),
(123,610,o),
(123,449,cs)
);
}
);
};
layerId = "A7032D4A-7BCC-4736-93C1-F342117E585F";
shapes = (
{
closed = 1;
nodes = (
(52,402,l),
(52,338,l),
(393,338,l),
(393,402,l)
);
},
{
closed = 1;
nodes = (
(46,118,l),
(46,0,l),
(362,0,l),
(455,17,l),
(455,133,l),
(362,118,l)
);
},
{
closed = 1;
nodes = (
(112,102,l),
(252,102,l),
(252,460,ls),
(252,528,o),
(269,572,o),
(324,572,cs),
(369,572,o),
(398,568,o),
(428,565,c),
(442,671,l),
(406,679,o),
(349,690,o),
(303,690,cs),
(186,690,o),
(112,630,o),
(112,469,cs)
);
}
);
width = 497;
}
);
unicode = 163;
},
{
color = 11;
glyphname = euro;
lastChange = "2022-04-14 18:46:40 +0000";
layers = (
{
background = {
shapes = (
{
closed = 1;
nodes = (
(423,393,l),
(423,427,l),
(37,427,l),
(37,393,l)
);
},
{
closed = 1;
nodes = (
(423,245,l),
(423,279,l),
(37,279,l),
(37,245,l)
);
},
{
pos = (32,0);
ref = C;
scale = (0.944,0.944);
}
);
};
layerId = "FCCC260D-0C10-491F-B419-2EABB30545AF";
shapes = (
{
closed = 1;
nodes = (
(436,393,l),
(436,427,l),
(50,427,l),
(50,393,l)
);
},
{
closed = 1;
nodes = (
(436,245,l),
(436,279,l),
(50,279,l),
(50,245,l)
);
},
{
alignment = -1;
pos = (48.776,0);
ref = C;
scale = (0.944,0.944);
}
);
width = 524;
},
{
background = {
shapes = (
{
closed = 1;
nodes = (
(447,372,l),
(447,433,l),
(20,433,l),
(20,372,l)
);
},
{
closed = 1;
nodes = (
(447,233,l),
(447,294,l),
(20,294,l),
(20,233,l)
);
},
{
pos = (27,0);
ref = C;
scale = (0.9681,0.9688);
}
);
};
layerId = "A7032D4A-7BCC-4736-93C1-F342117E585F";
shapes = (
{
closed = 1;
nodes = (
(476,372,l),
(476,433,l),
(49,433,l),
(49,372,l)
);
},
{
closed = 1;
nodes = (
(476,233,l),
(476,294,l),
(49,294,l),
(49,233,l)
);
},
{
alignment = -1;
pos = (59.872,0);
ref = C;
scale = (0.9681,0.9688);
}
);
width = 590;
}
);
unicode = 8364;
userData = {
com.typemytype.robofont.guides = (
{
angle = 0;
isGlobal = 0;
magnetic = 5;
x = 0;
y = 660;
},
{
angle = 0;
isGlobal = 0;
magnetic = 5;
x = 0;
y = -11;
},
{
angle = 0;
isGlobal = 0;
magnetic = 5;
x = 0;
y = 671;
}
);
};
},
{
color = 11;
glyphname = yen;
lastChange = "2022-04-14 18:46:40 +0000";
layers = (
{
background = {
shapes = (
{
closed = 1;
nodes = (
(464,182,l),
(464,216,l),
(58,216,l),
(58,182,l)
);
},
{
closed = 1;
nodes = (
(232,331,l),
(232,365,l),
(58,365,l),
(58,331,l)
);
},
{
closed = 1;
nodes = (
(464,331,l),
(464,365,l),
(291,365,l),
(291,331,l)
);
},
{
alignment = -1;
pos = (32,0);
ref = Y;
scale = (0.944,0.944);
}
);
};
layerId = "FCCC260D-0C10-491F-B419-2EABB30545AF";
shapes = (
{
closed = 1;
nodes = (
(464,182,l),
(464,216,l),
(58,216,l),
(58,182,l)
);
},
{
closed = 1;
nodes = (
(232,331,l),
(232,365,l),
(58,365,l),
(58,331,l)
);
},
{
closed = 1;
nodes = (
(464,331,l),
(464,365,l),
(291,365,l),
(291,331,l)
);
},
{
closed = 1;
nodes = (
(278,0,l),
(278,284,l),
(475,660,l),
(436,660,l),
(261,322,l),
(88,660,l),
(48,660,l),
(244,284,l),
(244,0,l)
);
}
);
width = 523;
},
{
background = {
shapes = (
{
closed = 1;
nodes = (
(498,154,l),
(498,218,l),
(64,218,l),
(64,154,l)
);
},
{
closed = 1;
nodes = (
(208,307,l),
(208,370,l),
(64,370,l),
(64,307,l)
);
},
{
closed = 1;
nodes = (
(498,307,l),
(498,370,l),
(360,370,l),
(360,307,l)
);
},
{
alignment = -1;
pos = (21,0);
ref = Y;
scale = (0.9681,0.9681);
}
);
};
layerId = "A7032D4A-7BCC-4736-93C1-F342117E585F";
shapes = (
{
closed = 1;
nodes = (
(503,154,l),
(503,218,l),
(69,218,l),
(69,154,l)
);
},
{
closed = 1;
nodes = (
(213,307,l),
(213,370,l),
(69,370,l),
(69,307,l)
);
},
{
closed = 1;
nodes = (
(503,307,l),
(503,370,l),
(365,370,l),
(365,307,l)
);
},
{
closed = 1;
nodes = (
(363,0,l),
(363,250,l),
(544,672,l),
(379,672,l),
(287,399,l),
(192,672,l),
(28,672,l),
(209,250,l),
(209,0,l)
);
}
);
width = 572;
}
);
unicode = 165;
},
{
glyphname = florin;
lastChange = "2022-04-14 18:46:40 +0000";
layers = (
{
background = {
shapes = (
{
closed = 1;
nodes = (
(208,-239,o),
(241,-194,o),
(241,-60,cs),
(241,352,l),
(388,352,l),
(388,384,l),
(241,384,l),
(241,494,ls),
(241,593,o),
(273,640,o),
(324,640,cs),
(353,640,o),
(389,637,o),
(407,635,c),
(409,667,l),
(389,670,o),
(354,673,o),
(323,673,cs),
(206,673,o),
(206,528,o),
(206,458,cs),
(206,384,l),
(144,384,l),
(144,352,l),
(206,352,l),
(206,-60,ls),
(206,-169,o),
(184,-206,o),
(123,-206,cs),
(104,-206,o),
(64,-203,o),
(42,-201,c),
(40,-234,l),
(63,-236,o),
(102,-239,o),
(125,-239,cs)
);
}
);
};
layerId = "FCCC260D-0C10-491F-B419-2EABB30545AF";
shapes = (
{
closed = 1;
nodes = (
(180,-239,o),
(213,-194,o),
(213,-60,cs),
(213,352,l),
(360,352,l),
(360,384,l),
(213,384,l),
(213,494,ls),
(213,593,o),
(245,640,o),
(296,640,cs),
(325,640,o),
(361,637,o),
(379,635,c),
(381,667,l),
(361,670,o),
(326,673,o),
(295,673,cs),
(178,673,o),
(178,528,o),
(178,458,cs),
(178,384,l),
(116,384,l),
(116,352,l),
(178,352,l),
(178,-60,ls),
(178,-169,o),
(156,-206,o),
(95,-206,cs),
(76,-206,o),
(36,-203,o),
(14,-201,c),
(12,-234,l),
(35,-236,o),
(74,-239,o),
(97,-239,cs)
);
}
);
width = 407;
},
{
background = {
shapes = (
{
closed = 1;
nodes = (
(267,-214,o),
(299,-170,o),
(302,-35,cs,{
name = hr00;
}),
(310,346,l),
(413,346,l),
(413,415,l),
(311,415,l),
(312,459,ls),
(315,551,o),
(326,564,o),
(375,564,cs),
(389,564,o),
(408,563,o),
(417,562,c),
(418,669,l),
(378,675,o),
(331,680,o),
(309,680,cs),
(208,680,o),
(168,612,o),
(165,489,cs),
(163,415,l),
(103,415,l),
(103,346,l),
(162,346,l),
(154,-26,ls),
(154,-67,o),
(143,-96,o),
(108,-98,cs),
(95,-99,o),
(65,-97,o),
(48,-96,c),
(47,-204,l),
(96,-210,o),
(135,-214,o),
(156,-214,cs)
);
}
);
};
layerId = "A7032D4A-7BCC-4736-93C1-F342117E585F";
shapes = (
{
closed = 1;
nodes = (
(238,-214,o),
(270,-170,o),
(273,-35,cs,{
name = hr00;
}),
(281,346,l),
(384,346,l),
(384,415,l),
(282,415,l),
(283,459,ls),
(286,551,o),
(297,564,o),
(346,564,cs),
(360,564,o),
(379,563,o),
(388,562,c),
(389,669,l),
(349,675,o),
(302,680,o),
(280,680,cs),
(179,680,o),
(139,612,o),
(136,489,cs),
(134,415,l),
(74,415,l),
(74,346,l),
(133,346,l),
(125,-26,ls),
(125,-67,o),
(114,-96,o),
(79,-98,cs),
(66,-99,o),
(36,-97,o),
(19,-96,c),
(18,-204,l),
(67,-210,o),
(106,-214,o),
(127,-214,cs)
);
}
);
width = 420;
}
);
unicode = 402;
},
{
glyphname = currency;
lastChange = "2022-04-14 18:46:40 +0000";
layers = (
{
background = {
shapes = (
{
closed = 1;
nodes = (
(346,82,o),
(417,155,o),
(418,250,cs),
(419,346,o),
(353,422,o),
(265,422,cs),
(181,422,o),
(109,350,o),
(108,252,cs),
(107,158,o),
(175,82,o),
(262,82,cs)
);
},
{
closed = 1;
nodes = (
(187,144,l),
(163,169,l),
(77,75,l),
(102,49,l)
);
},
{
closed = 1;
nodes = (
(197,118,o),
(142,179,o),
(142,252,cs),
(142,325,o),
(198,386,o),
(264,386,cs),
(329,386,o),
(385,325,o),
(385,252,cs),
(385,179,o),
(328,118,o),
(263,118,cs)
);
},
{
closed = 1;
nodes = (
(187,360,l),
(102,455,l),
(77,429,l),
(163,335,l)
);
},
{
closed = 1;
nodes = (
(450,75,l),
(363,169,l),
(339,144,l),
(425,49,l)
);
},
{
closed = 1;
nodes = (
(450,429,l),
(425,455,l),
(339,360,l),
(363,335,l)
);
}
);
};
layerId = "FCCC260D-0C10-491F-B419-2EABB30545AF";
shapes = (
{
closed = 1;
nodes = (
(323,82,o),
(394,155,o),
(395,250,cs),
(396,346,o),
(330,422,o),
(242,422,cs),
(158,422,o),
(86,350,o),
(85,252,cs),
(84,158,o),
(152,82,o),
(239,82,cs)
);
},
{
closed = 1;
nodes = (
(164,144,l),
(140,169,l),
(54,75,l),
(79,49,l)
);
},
{
closed = 1;
nodes = (
(174,118,o),
(119,179,o),
(119,252,cs),
(119,325,o),
(175,386,o),
(241,386,cs),
(306,386,o),
(362,325,o),
(362,252,cs),
(362,179,o),
(305,118,o),
(240,118,cs)
);
},
{
closed = 1;
nodes = (
(164,360,l),
(79,455,l),
(54,429,l),
(140,335,l)
);
},
{
closed = 1;
nodes = (
(427,75,l),
(340,169,l),
(316,144,l),
(402,49,l)
);
},
{
closed = 1;
nodes = (
(427,429,l),
(402,455,l),
(316,360,l),
(340,335,l)
);
}
);
width = 480;
},
{
background = {
shapes = (
{
closed = 1;
nodes = (
(277,37,o),
(380,88,o),
(423,174,cs),
(470,267,o),
(437,380,o),
(350,425,cs),
(261,471,o),
(154,431,o),
(107,336,cs),
(64,249,o),
(89,134,o),
(182,86,cs)
);
},
{
closed = 1;
nodes = (
(188,124,l),
(142,172,l),
(51,74,l),
(97,26,l)
);
},
{
closed = 1;
nodes = (
(188,185,o),
(168,240,o),
(187,288,cs),
(207,339,o),
(256,362,o),
(301,343,cs),
(341,326,o),
(364,272,o),
(344,221,cs),
(326,174,o),
(274,149,o),
(231,167,cs)
);
},
{
closed = 1;
nodes = (
(188,387,l),
(97,485,l),
(51,437,l),
(142,340,l)
);
},
{
closed = 1;
nodes = (
(482,74,l),
(392,172,l),
(346,124,l),
(438,26,l)
);
},
{
closed = 1;
nodes = (
(482,437,l),
(438,485,l),
(346,387,l),
(392,340,l)
);
}
);
};
layerId = "A7032D4A-7BCC-4736-93C1-F342117E585F";
shapes = (
{
closed = 1;
nodes = (
(273,37,o),
(376,88,o),
(419,174,cs),
(466,267,o),
(433,380,o),
(346,425,cs),
(257,471,o),
(150,431,o),
(103,336,cs),
(60,249,o),
(85,134,o),
(178,86,cs)
);
},
{
closed = 1;
nodes = (
(184,124,l),
(138,172,l),
(47,74,l),
(93,26,l)
);
},
{
closed = 1;
nodes = (
(184,185,o),
(164,240,o),
(183,288,cs),
(203,339,o),
(252,362,o),
(297,343,cs),
(337,326,o),
(360,272,o),
(340,221,cs),
(322,174,o),
(270,149,o),
(227,167,cs)
);
},
{
closed = 1;
nodes = (
(184,387,l),
(93,485,l),
(47,437,l),
(138,340,l)
);
},
{
closed = 1;
nodes = (
(478,74,l),
(388,172,l),
(342,124,l),
(434,26,l)
);
},
{
closed = 1;
nodes = (
(478,437,l),
(434,485,l),
(342,387,l),
(388,340,l)
);
}
);
width = 525;
}
);
unicode = 164;
userData = {
com.typemytype.robofont.guides = (
{
angle = 0;
isGlobal = 0;
magnetic = 5;
x = 0;
y = 520;
},
{
angle = 0;
isGlobal = 0;
magnetic = 5;
x = 0;
y = 317;
},
{
angle = 0;
isGlobal = 0;
magnetic = 5;
x = 0;
y = 187;
},
{
angle = 0;
isGlobal = 0;
magnetic = 5;
x = 0;
y = 565;
},
{
angle = 90;
isGlobal = 0;
magnetic = 5;
x = 165;
y = 0;
},
{
angle = 90;
isGlobal = 0;
magnetic = 5;
x = 210;
y = 0;
},
{
angle = 90;
isGlobal = 0;
magnetic = 5;
x = 340;
y = 0;
}
);
};
},
{
glyphname = asciicircum;
lastChange = "2022-04-14 18:46:40 +0000";
layers = (
{
background = {
shapes = (
{
closed = 1;
nodes = (
(122,323,l),
(264,624,l),
(415,323,l),
(455,323,l),
(282,660,l),
(246,660,l),
(82,323,l)
);
}
);
};
layerId = "FCCC260D-0C10-491F-B419-2EABB30545AF";
shapes = (
{
closed = 1;
nodes = (
(75,323,l),
(217,624,l),
(368,323,l),
(408,323,l),
(235,660,l),
(199,660,l),
(35,323,l)
);
}
);
width = 442;
},
{
background = {
shapes = (
{
closed = 1;
nodes = (
(202,316,l),
(290,556,l),
(377,316,l),
(524,316,l),
(370,665,l),
(205,665,l),
(54,316,l)
);
}
);
};
layerId = "A7032D4A-7BCC-4736-93C1-F342117E585F";
shapes = (
{
closed = 1;
nodes = (
(179,316,l),
(267,556,l),
(354,316,l),
(501,316,l),
(347,665,l),
(182,665,l),
(31,316,l)
);
}
);
width = 531;
}
);
unicode = 94;
},
{
glyphname = plus;
lastChange = "2022-04-14 18:46:40 +0000";
layers = (
{
background = {
shapes = (
{
closed = 1;
nodes = (
(280,20,l),
(280,234,l),
(465,234,l),
(465,268,l),
(280,268,l),
(280,480,l),
(244,480,l),
(244,268,l),
(61,268,l),
(61,234,l),
(244,234,l),
(244,20,l)
);
}
);
};
layerId = "FCCC260D-0C10-491F-B419-2EABB30545AF";
shapes = (
{
closed = 1;
nodes = (
(262,20,l),
(262,233,l),
(445,233,l),
(445,267,l),
(262,267,l),
(262,480,l),
(226,480,l),
(226,267,l),
(43,267,l),
(43,233,l),
(226,233,l),
(226,20,l)
);
}
);
width = 488;
},
{
background = {
shapes = (
{
closed = 1;
nodes = (
(330,22,l),
(330,191,l),
(480,191,l),
(480,314,l),
(330,314,l),
(330,482,l),
(202,482,l),
(202,314,l),
(53,314,l),
(53,191,l),
(202,191,l),
(202,22,l)
);
}
);
};
layerId = "A7032D4A-7BCC-4736-93C1-F342117E585F";
shapes = (
{
closed = 1;
nodes = (
(317,20,l),
(317,189,l),
(467,189,l),
(467,311,l),
(317,311,l),
(317,480,l),
(189,480,l),
(189,311,l),
(39,311,l),
(39,189,l),
(189,189,l),
(189,20,l)
);
}
);
width = 506;
}
);
unicode = 43;
},
{
glyphname = minus;
lastChange = "2022-04-14 18:46:40 +0000";
layers = (
{
background = {
shapes = (
{
closed = 1;
nodes = (
(456,234,l),
(456,268,l),
(71,268,l),
(71,234,l)
);
}
);
};
layerId = "FCCC260D-0C10-491F-B419-2EABB30545AF";
shapes = (
{
closed = 1;
nodes = (
(437,233,l),
(437,267,l),
(51,267,l),
(51,233,l)
);
}
);
width = 488;
},
{
background = {
shapes = (
{
closed = 1;
nodes = (
(466,191,l),
(466,314,l),
(68,314,l),
(68,191,l)
);
}
);
};
layerId = "A7032D4A-7BCC-4736-93C1-F342117E585F";
shapes = (
{
closed = 1;
nodes = (
(452,189,l),
(452,311,l),
(54,311,l),
(54,189,l)
);
}
);
width = 506;
}
);
unicode = 8722;
},
{
glyphname = plusminus;
lastChange = "2022-04-14 18:46:40 +0000";
layers = (
{
background = {
shapes = (
{
closed = 1;
nodes = (
(280,164,l),
(280,308,l),
(465,308,l),
(465,342,l),
(280,342,l),
(280,480,l),
(244,480,l),
(244,342,l),
(61,342,l),
(61,308,l),
(244,308,l),
(244,164,l)
);
},
{
closed = 1;
nodes = (
(465,50,l),
(465,84,l),
(61,84,l),
(61,50,l)
);
}
);
};
layerId = "FCCC260D-0C10-491F-B419-2EABB30545AF";
shapes = (
{
closed = 1;
nodes = (
(262,164,l),
(262,308,l),
(445,308,l),
(445,342,l),
(262,342,l),
(262,480,l),
(226,480,l),
(226,342,l),
(43,342,l),
(43,308,l),
(226,308,l),
(226,164,l)
);
},
{
closed = 1;
nodes = (
(445,50,l),
(445,84,l),
(43,84,l),
(43,50,l)
);
}
);
width = 488;
},
{
background = {
shapes = (
{
closed = 1;
nodes = (
(330,194,l),
(330,291,l),
(480,291,l),
(480,413,l),
(330,413,l),
(330,517,l),
(202,517,l),
(202,413,l),
(53,413,l),
(53,291,l),
(202,291,l),
(202,194,l)
);
},
{
closed = 1;
nodes = (
(480,13,l),
(480,135,l),
(53,135,l),
(53,13,l)
);
}
);
};
layerId = "A7032D4A-7BCC-4736-93C1-F342117E585F";
shapes = (
{
closed = 1;
nodes = (
(317,194,l),
(317,291,l),
(467,291,l),
(467,413,l),
(317,413,l),
(317,517,l),
(189,517,l),
(189,414,l),
(39,414,l),
(39,290,l),
(189,290,l),
(189,194,l)
);
},
{
closed = 1;
nodes = (
(467,14,l),
(467,136,l),
(39,136,l),
(39,14,l)
);
}
);
width = 506;
}
);
unicode = 177;
},
{
glyphname = equal;
lastChange = "2022-04-14 18:46:40 +0000";
layers = (
{
background = {
shapes = (
{
closed = 1;
nodes = (
(457,318,l),
(457,352,l),
(70,352,l),
(70,318,l)
);
},
{
closed = 1;
nodes = (
(457,149,l),
(457,183,l),
(70,183,l),
(70,149,l)
);
}
);
};
layerId = "FCCC260D-0C10-491F-B419-2EABB30545AF";
shapes = (
{
closed = 1;
nodes = (
(438,328,l),
(438,362,l),
(51,362,l),
(51,328,l)
);
},
{
closed = 1;
nodes = (
(438,159,l),
(438,193,l),
(51,193,l),
(51,159,l)
);
}
);
width = 489;
},
{
background = {
shapes = (
{
closed = 1;
nodes = (
(468,295,l),
(468,417,l),
(65,417,l),
(65,295,l)
);
},
{
closed = 1;
nodes = (
(468,89,l),
(468,211,l),
(65,211,l),
(65,89,l)
);
}
);
};
layerId = "A7032D4A-7BCC-4736-93C1-F342117E585F";
shapes = (
{
closed = 1;
nodes = (
(462,302,l),
(462,424,l),
(59,424,l),
(59,302,l)
);
},
{
closed = 1;
nodes = (
(462,96,l),
(462,218,l),
(59,218,l),
(59,96,l)
);
}
);
width = 521;
}
);
unicode = 61;
},
{
glyphname = divide;
lastChange = "2022-04-14 18:46:40 +0000";
layers = (
{
background = {
shapes = (
{
closed = 1;
nodes = (
(466,234,l),
(466,268,l),
(60,268,l),
(60,234,l)
);
},
{
closed = 1;
nodes = (
(282,39,l),
(282,119,l),
(244,119,l),
(244,39,l)
);
},
{
closed = 1;
nodes = (
(282,383,l),
(282,463,l),
(244,463,l),
(244,383,l)
);
}
);
};
layerId = "FCCC260D-0C10-491F-B419-2EABB30545AF";
shapes = (
{
closed = 1;
nodes = (
(447,234,l),
(447,268,l),
(41,268,l),
(41,234,l)
);
},
{
closed = 1;
nodes = (
(263,39,l),
(263,119,l),
(225,119,l),
(225,39,l)
);
},
{
closed = 1;
nodes = (
(263,383,l),
(263,463,l),
(225,463,l),
(225,383,l)
);
}
);
width = 488;
},
{
background = {
shapes = (
{
closed = 1;
nodes = (
(480,192,l),
(480,314,l),
(53,314,l),
(53,192,l)
);
},
{
closed = 1;
nodes = (
(337,20,l),
(337,141,l),
(196,141,l),
(196,20,l)
);
},
{
closed = 1;
nodes = (
(337,365,l),
(337,486,l),
(196,486,l),
(196,365,l)
);
}
);
};
layerId = "A7032D4A-7BCC-4736-93C1-F342117E585F";
shapes = (
{
closed = 1;
nodes = (
(466,192,l),
(466,314,l),
(39,314,l),
(39,192,l)
);
},
{
closed = 1;
nodes = (
(323,18,l),
(323,140,l),
(182,140,l),
(182,18,l)
);
},
{
closed = 1;
nodes = (
(323,366,l),
(323,488,l),
(182,488,l),
(182,366,l)
);
}
);
width = 506;
}
);
unicode = 247;
},
{
glyphname = less;
lastChange = "2022-04-14 18:46:40 +0000";
layers = (
{
background = {
shapes = (
{
closed = 1;
nodes = (
(447,56,l),
(92,251,l),
(447,446,l),
(447,485,l),
(60,269,l),
(60,233,l),
(447,15,l)
);
}
);
};
layerId = "FCCC260D-0C10-491F-B419-2EABB30545AF";
shapes = (
{
closed = 1;
nodes = (
(434,56,l),
(79,251,l),
(434,446,l),
(434,485,l),
(47,269,l),
(47,233,l),
(434,15,l)
);
}
);
width = 484;
},
{
background = {
shapes = (
{
closed = 1;
nodes = (
(445,158,l),
(187,257,l),
(445,348,l),
(445,502,l),
(74,327,l),
(74,180,l),
(445,0,l)
);
}
);
};
layerId = "A7032D4A-7BCC-4736-93C1-F342117E585F";
shapes = (
{
closed = 1;
nodes = (
(420,158,l),
(162,257,l),
(420,348,l),
(420,502,l),
(49,327,l),
(49,180,l),
(420,0,l)
);
}
);
width = 480;
}
);
unicode = 60;
},
{
color = 10;
glyphname = greater;
lastChange = "2022-04-14 18:46:40 +0000";
layers = (
{
background = {
shapes = (
{
closed = 1;
nodes = (
(467,233,l),
(467,269,l),
(80,485,l),
(80,446,l),
(434,251,l),
(80,56,l),
(80,15,l)
);
}
);
};
layerId = "FCCC260D-0C10-491F-B419-2EABB30545AF";
shapes = (
{
alignment = -1;
pos = (484,0);
ref = less;
scale = (-1,1);
}
);
width = 484;
},
{
background = {
shapes = (
{
closed = 1;
nodes = (
(459,180,l),
(459,327,l),
(88,502,l),
(88,348,l),
(345,257,l),
(88,158,l),
(88,0,l)
);
}
);
};
layerId = "A7032D4A-7BCC-4736-93C1-F342117E585F";
shapes = (
{
alignment = -1;
pos = (480,0);
ref = less;
scale = (-1,1);
}
);
width = 480;
}
);
unicode = 62;
},
{
glyphname = asciitilde;
lastChange = "2022-04-14 18:46:40 +0000";
layers = (
{
background = {
shapes = (
{
closed = 1;
nodes = (
(389,212,o),
(433,242,o),
(458,267,c),
(449,298,l),
(415,270,o),
(377,246,o),
(346,246,cs),
(297,246,o),
(244,319,o),
(186,319,cs),
(146,319,o),
(102,292,o),
(73,265,c),
(83,233,l),
(117,262,o),
(156,285,o),
(186,285,cs),
(235,285,o),
(287,212,o),
(346,212,cs)
);
}
);
};
layerId = "FCCC260D-0C10-491F-B419-2EABB30545AF";
shapes = (
{
closed = 1;
nodes = (
(375,197,o),
(409,218,o),
(441,246,c),
(441,282,l),
(404,251,o),
(373,230,o),
(340,230,cs),
(286,230,o),
(219,303,o),
(156,303,cs),
(121,303,o),
(87,282,o),
(55,254,c),
(55,218,l),
(92,249,o),
(123,270,o),
(156,270,cs),
(210,270,o),
(277,197,o),
(340,197,cs)
);
}
);
width = 496;
},
{
background = {
shapes = (
{
closed = 1;
nodes = (
(410,164,o),
(442,192,o),
(466,217,c),
(457,336,l),
(426,314,o),
(396,294,o),
(353,294,cs),
(298,294,o),
(249,346,o),
(193,346,cs),
(132,346,o),
(97,321,o),
(68,293,c),
(77,173,l),
(101,192,o),
(137,216,o),
(187,216,cs),
(235,216,o),
(293,164,o),
(349,164,cs)
);
}
);
};
layerId = "A7032D4A-7BCC-4736-93C1-F342117E585F";
shapes = (
{
closed = 1;
nodes = (
(381,163,o),
(428,189,o),
(455,211,c),
(455,327,l),
(419,304,o),
(392,285,o),
(351,285,cs),
(294,285,o),
(242,337,o),
(172,337,cs),
(131,337,o),
(84,311,o),
(57,289,c),
(57,173,l),
(93,196,o),
(120,215,o),
(161,215,cs),
(218,215,o),
(270,163,o),
(340,163,cs)
);
}
);
width = 512;
}
);
unicode = 126;
},
{
glyphname = logicalnot;
lastChange = "2022-04-14 18:46:40 +0000";
layers = (
{
background = {
shapes = (
{
closed = 1;
nodes = (
(458,126,l),
(458,332,l),
(72,332,l),
(72,298,l),
(424,298,l),
(424,126,l)
);
}
);
};
layerId = "FCCC260D-0C10-491F-B419-2EABB30545AF";
shapes = (
{
closed = 1;
nodes = (
(454,147,l),
(454,353,l),
(68,353,l),
(68,319,l),
(418,319,l),
(418,147,l)
);
}
);
width = 532;
},
{
background = {
shapes = (
{
closed = 1;
nodes = (
(490,176,l),
(490,446,l),
(33,446,l),
(33,334,l),
(379,334,l),
(379,176,l)
);
}
);
};
layerId = "A7032D4A-7BCC-4736-93C1-F342117E585F";
shapes = (
{
closed = 1;
nodes = (
(490,115,l),
(490,385,l),
(33,385,l),
(33,263,l),
(362,263,l),
(362,115,l)
);
}
);
width = 532;
}
);
unicode = 172;
},
{
glyphname = multiply;
lastChange = "2022-04-14 18:46:40 +0000";
layers = (
{
background = {
shapes = (
{
closed = 1;
nodes = (
(264,228,l),
(422,52,l),
(446,76,l),
(287,251,l),
(446,426,l),
(422,450,l),
(264,274,l),
(105,450,l),
(81,426,l),
(241,251,l),
(81,76,l),
(105,52,l)
);
}
);
};
layerId = "FCCC260D-0C10-491F-B419-2EABB30545AF";
shapes = (
{
closed = 1;
nodes = (
(266,227,l),
(424,51,l),
(448,75,l),
(289,250,l),
(448,425,l),
(424,449,l),
(266,273,l),
(107,449,l),
(83,425,l),
(243,250,l),
(83,75,l),
(107,51,l)
);
}
);
width = 532;
},
{
background = {
shapes = (
{
closed = 1;
nodes = (
(266,165,l),
(397,22,l),
(484,109,l),
(353,252,l),
(484,395,l),
(397,483,l),
(266,339,l),
(136,482,l),
(48,395,l),
(179,252,l),
(48,108,l),
(136,22,l)
);
}
);
};
layerId = "A7032D4A-7BCC-4736-93C1-F342117E585F";
shapes = (
{
closed = 1;
nodes = (
(266,163,l),
(397,20,l),
(484,107,l),
(353,250,l),
(484,393,l),
(397,481,l),
(266,337,l),
(136,480,l),
(48,393,l),
(179,250,l),
(48,106,l),
(136,20,l)
);
}
);
width = 532;
}
);
unicode = 215;
},
{
glyphname = numbersign;
lastChange = "2022-04-14 18:46:40 +0000";
layers = (
{
background = {
shapes = (
{
closed = 1;
nodes = (
(179,0,l),
(179,190,l),
(348,190,l),
(348,0,l),
(384,0,l),
(384,190,l),
(492,190,l),
(492,222,l),
(384,222,l),
(384,448,l),
(492,448,l),
(492,480,l),
(384,480,l),
(384,670,l),
(348,670,l),
(348,480,l),
(179,480,l),
(179,670,l),
(143,670,l),
(143,480,l),
(35,480,l),
(35,448,l),
(143,448,l),
(143,222,l),
(35,222,l),
(35,190,l),
(143,190,l),
(143,0,l)
);
},
{
closed = 1;
nodes = (
(179,448,l),
(348,448,l),
(348,222,l),
(179,222,l)
);
}
);
};
layerId = "FCCC260D-0C10-491F-B419-2EABB30545AF";
shapes = (
{
closed = 1;
nodes = (
(181,0,l),
(181,190,l),
(350,190,l),
(350,0,l),
(386,0,l),
(386,190,l),
(494,190,l),
(494,222,l),
(386,222,l),
(386,448,l),
(494,448,l),
(494,480,l),
(386,480,l),
(386,670,l),
(350,670,l),
(350,480,l),
(181,480,l),
(181,670,l),
(145,670,l),
(145,480,l),
(37,480,l),
(37,448,l),
(145,448,l),
(145,222,l),
(37,222,l),
(37,190,l),
(145,190,l),
(145,0,l)
);
},
{
closed = 1;
nodes = (
(181,448,l),
(350,448,l),
(350,222,l),
(181,222,l)
);
}
);
width = 532;
},
{
background = {
shapes = (
{
closed = 1;
nodes = (
(215,0,l),
(216,142,l),
(307,142,l),
(306,0,l),
(431,0,l),
(432,142,l),
(505,142,l),
(507,265,l),
(435,265,l),
(436,395,l),
(508,395,l),
(511,518,l),
(438,518,l),
(440,668,l),
(315,668,l),
(313,518,l),
(223,518,l),
(224,668,l),
(100,668,l),
(98,518,l),
(26,518,l),
(23,395,l),
(96,395,l),
(95,265,l),
(23,265,l),
(19,142,l),
(92,142,l),
(90,0,l)
);
},
{
closed = 1;
nodes = (
(220,395,l),
(311,395,l),
(310,265,l),
(219,265,l)
);
}
);
};
layerId = "A7032D4A-7BCC-4736-93C1-F342117E585F";
shapes = (
{
closed = 1;
nodes = (
(216,0,l),
(217,142,l),
(308,142,l),
(307,0,l),
(432,0,l),
(433,142,l),
(506,142,l),
(508,264,l),
(436,264,l),
(437,396,l),
(509,396,l),
(512,518,l),
(439,518,l),
(441,668,l),
(316,668,l),
(314,518,l),
(224,518,l),
(225,668,l),
(101,668,l),
(99,518,l),
(27,518,l),
(24,396,l),
(97,396,l),
(96,264,l),
(24,264,l),
(20,142,l),
(93,142,l),
(91,0,l)
);
},
{
closed = 1;
nodes = (
(221,396,l),
(312,396,l),
(311,264,l),
(220,264,l)
);
}
);
width = 532;
}
);
unicode = 35;
userData = {
com.typemytype.robofont.guides = (
{
angle = 90;
isGlobal = 0;
magnetic = 5;
x = 7;
y = 0;
},
{
angle = 90;
isGlobal = 0;
magnetic = 5;
x = 555;
y = 0;
}
);
};
},
{
glyphname = divisionslash;
lastChange = "2022-04-14 18:46:40 +0000";
layers = (
{
background = {
shapes = (
{
closed = 1;
nodes = (
(324,688,l),
(291,702,l),
(38,12,l),
(71,-1,l)
);
}
);
};
layerId = "FCCC260D-0C10-491F-B419-2EABB30545AF";
shapes = (
{
closed = 1;
nodes = (
(310,700,l),
(273,700,l),
(17,0,l),
(54,0,l)
);
}
);
width = 327;
},
{
background = {
shapes = (
{
closed = 1;
nodes = (
(448,679,l),
(303,715,l),
(28,-11,l),
(174,-45,l)
);
}
);
};
layerId = "A7032D4A-7BCC-4736-93C1-F342117E585F";
shapes = (
{
closed = 1;
nodes = (
(437,700,l),
(280,700,l),
(15,0,l),
(172,0,l)
);
}
);
width = 452;
}
);
unicode = 8725;
},
{
color = 11;
glyphname = notequal;
lastChange = "2022-04-14 18:46:40 +0000";
layers = (
{
background = {
shapes = (
{
closed = 1;
nodes = (
(389,496,l),
(358,509,l),
(157,4,l),
(188,-9,l)
);
},
{
ref = equal;
}
);
};
layerId = "FCCC260D-0C10-491F-B419-2EABB30545AF";
shapes = (
{
closed = 1;
nodes = (
(363,504,l),
(327,504,l),
(126,0,l),
(162,0,l)
);
},
{
alignment = -1;
ref = equal;
}
);
width = 489;
},
{
background = {
shapes = (
{
closed = 1;
nodes = (
(414,510,l),
(354,535,l),
(133,-4,l),
(193,-29,l)
);
},
{
ref = equal;
}
);
};
layerId = "A7032D4A-7BCC-4736-93C1-F342117E585F";
shapes = (
{
closed = 1;
nodes = (
(404,518,l),
(334,518,l),
(118,0,l),
(188,0,l)
);
},
{
alignment = -1;
ref = equal;
}
);
width = 521;
}
);
metricLeft = equal;
metricRight = equal;
unicode = 8800;
},
{
glyphname = greaterequal;
lastChange = "2022-04-14 18:46:40 +0000";
layers = (
{
background = {
shapes = (
{
closed = 1;
nodes = (
(459,290,l),
(459,326,l),
(72,485,l),
(72,446,l),
(414,309,l),
(72,161,l),
(72,122,l)
);
},
{
closed = 1;
nodes = (
(459,58,l),
(72,58,l),
(72,24,l),
(459,24,l)
);
}
);
};
layerId = "FCCC260D-0C10-491F-B419-2EABB30545AF";
shapes = (
{
closed = 1;
nodes = (
(450,290,l),
(450,326,l),
(63,485,l),
(63,446,l),
(405,309,l),
(63,161,l),
(63,122,l)
);
},
{
closed = 1;
nodes = (
(450,58,l),
(63,58,l),
(63,24,l),
(450,24,l)
);
}
);
width = 508;
},
{
background = {
shapes = (
{
closed = 1;
nodes = (
(473,270,l),
(473,396,l),
(78,528,l),
(78,397,l),
(347,336,l),
(78,266,l),
(78,132,l)
);
},
{
closed = 1;
nodes = (
(458,85,l),
(88,85,l),
(88,-32,l),
(458,-32,l)
);
}
);
};
layerId = "A7032D4A-7BCC-4736-93C1-F342117E585F";
shapes = (
{
closed = 1;
nodes = (
(457,270,l),
(457,396,l),
(62,528,l),
(62,397,l),
(331,336,l),
(62,266,l),
(62,132,l)
);
},
{
closed = 1;
nodes = (
(442,85,l),
(72,85,l),
(72,-32,l),
(442,-32,l)
);
}
);
width = 507;
}
);
unicode = 8805;
},
{
glyphname = lessequal;
lastChange = "2022-04-14 18:46:40 +0000";
layers = (
{
background = {
shapes = (
{
closed = 1;
nodes = (
(454,161,l),
(112,309,l),
(454,446,l),
(454,485,l),
(67,326,l),
(67,290,l),
(454,122,l)
);
},
{
closed = 1;
nodes = (
(454,24,l),
(454,58,l),
(67,58,l),
(67,24,l)
);
}
);
};
layerId = "FCCC260D-0C10-491F-B419-2EABB30545AF";
shapes = (
{
closed = 1;
nodes = (
(445,161,l),
(103,309,l),
(445,446,l),
(445,485,l),
(58,326,l),
(58,290,l),
(445,122,l)
);
},
{
closed = 1;
nodes = (
(445,24,l),
(445,58,l),
(58,58,l),
(58,24,l)
);
}
);
width = 508;
},
{
background = {
shapes = (
{
closed = 1;
nodes = (
(460,266,l),
(190,336,l),
(460,397,l),
(460,528,l),
(66,396,l),
(66,270,l),
(460,132,l)
);
},
{
closed = 1;
nodes = (
(451,-32,l),
(451,85,l),
(81,85,l),
(81,-32,l)
);
}
);
};
layerId = "A7032D4A-7BCC-4736-93C1-F342117E585F";
shapes = (
{
closed = 1;
nodes = (
(444,266,l),
(174,336,l),
(444,397,l),
(444,528,l),
(50,396,l),
(50,270,l),
(444,132,l)
);
},
{
closed = 1;
nodes = (
(435,-32,l),
(435,85,l),
(65,85,l),
(65,-32,l)
);
}
);
width = 506;
}
);
unicode = 8804;
},
{
glyphname = infinity;
lastChange = "2022-04-14 18:46:40 +0000";
layers = (
{
background = {
shapes = (
{
closed = 1;
nodes = (
(458,121,o),
(491,187,o),
(491,292,cs),
(491,397,o),
(458,463,o),
(386,463,cs),
(305,463,o),
(280,388,o),
(249,292,c),
(280,197,o),
(305,121,o),
(385,121,cs)
);
},
{
closed = 1;
nodes = (
(222,121,o),
(239,158,o),
(279,292,c),
(247,396,o),
(219,463,o),
(142,463,cs),
(70,463,o),
(37,396,o),
(37,292,cs),
(37,188,o),
(70,121,o),
(144,121,cs)
);
},
{
closed = 1;
nodes = (
(93,156,o),
(74,215,o),
(74,292,cs),
(74,379,o),
(92,428,o),
(143,428,cs),
(210,428,o),
(225,355,o),
(249,292,c),
(219,201,o),
(211,156,o),
(143,156,cs)
);
},
{
closed = 1;
nodes = (
(319,156,o),
(303,229,o),
(279,292,c),
(303,355,o),
(319,428,o),
(385,428,cs),
(436,428,o),
(454,379,o),
(454,292,cs),
(454,205,o),
(435,156,o),
(385,156,cs)
);
}
);
};
layerId = "FCCC260D-0C10-491F-B419-2EABB30545AF";
shapes = (
{
closed = 1;
nodes = (
(477,121,o),
(510,187,o),
(510,292,cs),
(510,397,o),
(477,463,o),
(405,463,cs),
(324,463,o),
(299,388,o),
(268,292,c),
(299,197,o),
(324,121,o),
(404,121,cs)
);
},
{
closed = 1;
nodes = (
(241,121,o),
(258,158,o),
(298,292,c),
(266,396,o),
(238,463,o),
(161,463,cs),
(89,463,o),
(56,396,o),
(56,292,cs),
(56,188,o),
(89,121,o),
(163,121,cs)
);
},
{
closed = 1;
nodes = (
(112,156,o),
(93,215,o),
(93,292,cs),
(93,379,o),
(111,428,o),
(162,428,cs),
(229,428,o),
(244,355,o),
(268,292,c),
(238,201,o),
(230,156,o),
(162,156,cs)
);
},
{
closed = 1;
nodes = (
(338,156,o),
(322,229,o),
(298,292,c),
(322,355,o),
(338,428,o),
(404,428,cs),
(455,428,o),
(473,379,o),
(473,292,cs),
(473,205,o),
(454,156,o),
(404,156,cs)
);
}
);
width = 567;
},
{
background = {
shapes = (
{
closed = 1;
nodes = (
(524,124,o),
(565,197,o),
(565,317,cs),
(565,437,o),
(524,511,o),
(438,511,cs),
(350,511,o),
(291,436,o),
(255,317,c),
(291,199,o),
(349,124,o),
(437,124,cs)
);
},
{
closed = 1;
nodes = (
(249,124,o),
(305,189,o),
(344,317,c),
(305,439,o),
(247,511,o),
(159,511,cs),
(73,511,o),
(32,437,o),
(32,317,cs),
(32,197,o),
(73,124,o),
(160,124,cs)
);
},
{
closed = 1;
nodes = (
(145,229,o),
(124,255,o),
(124,317,cs),
(124,382,o),
(144,405,o),
(169,405,cs),
(207,405,o),
(227,378,o),
(253,317,c),
(226,252,o),
(208,229,o),
(169,229,cs)
);
},
{
closed = 1;
nodes = (
(389,229,o),
(370,259,o),
(345,317,c),
(370,375,o),
(389,405,o),
(428,405,cs),
(454,405,o),
(473,381,o),
(473,317,cs),
(473,254,o),
(453,229,o),
(428,229,cs)
);
}
);
};
layerId = "A7032D4A-7BCC-4736-93C1-F342117E585F";
shapes = (
{
closed = 1;
nodes = (
(544,124,o),
(585,197,o),
(585,317,cs),
(585,437,o),
(544,511,o),
(458,511,cs),
(370,511,o),
(311,436,o),
(275,317,c),
(311,199,o),
(369,124,o),
(457,124,cs)
);
},
{
closed = 1;
nodes = (
(269,124,o),
(325,189,o),
(364,317,c),
(325,439,o),
(267,511,o),
(179,511,cs),
(93,511,o),
(52,437,o),
(52,317,cs),
(52,197,o),
(93,124,o),
(180,124,cs)
);
},
{
closed = 1;
nodes = (
(165,229,o),
(144,255,o),
(144,317,cs),
(144,382,o),
(164,405,o),
(189,405,cs),
(227,405,o),
(247,378,o),
(273,317,c),
(246,252,o),
(228,229,o),
(189,229,cs)
);
},
{
closed = 1;
nodes = (
(409,229,o),
(390,259,o),
(365,317,c),
(390,375,o),
(409,405,o),
(448,405,cs),
(474,405,o),
(493,381,o),
(493,317,cs),
(493,254,o),
(473,229,o),
(448,229,cs)
);
}
);
width = 637;
}
);
unicode = 8734;
userData = {
"- Fatto in thin
- Fatto in bold  com.typemytype.robofont.guides" = (
{
angle = 0;
isGlobal = 0;
magnetic = 5;
x = 0;
y = 292;
}
);
};
},
{
glyphname = integral;
lastChange = "2022-04-14 18:46:40 +0000";
layers = (
{
background = {
shapes = (
{
closed = 1;
nodes = (
(248,-179,o),
(282,-133,o),
(282,0,cs),
(282,564,ls),
(282,703,o),
(313,746,o),
(365,746,cs),
(389,746,o),
(422,743,o),
(438,741,c),
(440,773,l),
(424,776,o),
(393,779,o),
(363,779,cs),
(289,779,o),
(246,726,o),
(246,564,cs),
(246,0,ls),
(246,-110,o),
(223,-146,o),
(163,-146,cs),
(144,-146,o),
(109,-143,o),
(91,-141,c),
(89,-174,l),
(108,-176,o),
(141,-179,o),
(165,-179,cs)
);
}
);
};
layerId = "FCCC260D-0C10-491F-B419-2EABB30545AF";
shapes = (
{
closed = 1;
nodes = (
(172,-179,o),
(206,-133,o),
(206,0,cs),
(206,564,ls),
(206,703,o),
(237,746,o),
(289,746,cs),
(313,746,o),
(346,743,o),
(362,741,c),
(364,773,l),
(348,776,o),
(317,779,o),
(287,779,cs),
(213,779,o),
(170,726,o),
(170,564,cs),
(170,0,ls),
(170,-110,o),
(147,-146,o),
(87,-146,cs),
(68,-146,o),
(33,-143,o),
(15,-141,c),
(13,-174,l),
(32,-176,o),
(65,-179,o),
(89,-179,cs)
);
}
);
width = 376;
},
{
background = {
shapes = (
{
closed = 1;
nodes = (
(288,-192,o),
(327,-147,o),
(331,-12,cs),
(348,543,ls),
(350,598,o),
(363,617,o),
(398,617,cs),
(412,617,o),
(432,617,o),
(448,616,c),
(449,723,l),
(418,728,o),
(367,734,o),
(343,734,cs),
(246,734,o),
(204,686,o),
(200,543,cs),
(183,-11,ls),
(182,-60,o),
(161,-75,o),
(128,-75,cs),
(114,-75,o),
(98,-74,o),
(85,-73,c),
(84,-181,l),
(115,-186,o),
(165,-192,o),
(188,-192,cs)
);
}
);
};
layerId = "A7032D4A-7BCC-4736-93C1-F342117E585F";
shapes = (
{
closed = 1;
nodes = (
(219,-192,o),
(258,-147,o),
(262,-12,cs),
(279,543,ls),
(281,598,o),
(294,617,o),
(329,617,cs),
(343,617,o),
(363,617,o),
(379,616,c),
(380,723,l),
(349,728,o),
(298,734,o),
(274,734,cs),
(177,734,o),
(135,686,o),
(131,543,cs),
(114,-11,ls),
(113,-60,o),
(92,-75,o),
(59,-75,cs),
(45,-75,o),
(29,-74,o),
(16,-73,c),
(15,-181,l),
(46,-186,o),
(96,-192,o),
(119,-192,cs)
);
}
);
width = 394;
}
);
unicode = 8747;
},
